SplineFontDB: 3.2
FontName: MathJax_AMS-Regular
FullName: MathJax_AMS-Regular
FamilyName: MathJax_AMS
Weight: Normal
Copyright: Copyright (c) 2009-2010 Design Science, Inc.
Version: 3.0
ItalicAngle: 0
UnderlinePosition: -150
UnderlineWidth: 50
Ascent: 800
Descent: 200
InvalidEm: 0
sfntRevision: 0x00030000
woffMajor: 3
woffMinor: 0
LayerCount: 2
Layer: 0 0 "Back" 1
Layer: 1 0 "Fore" 0
XUID: [1021 584 -1222252386 3713025]
StyleMap: 0x0040
FSType: 0
OS2Version: 3
OS2_WeightWidthSlopeOnly: 0
OS2_UseTypoMetrics: 0
CreationTime: 1255375311
ModificationTime: 1663502375
PfmFamily: 81
TTFWeight: 400
TTFWidth: 5
LineGap: 0
VLineGap: 0
Panose: 0 0 0 0 0 0 0 0 0 0
OS2TypoAscent: 1003
OS2TypoAOffset: 0
OS2TypoDescent: -463
OS2TypoDOffset: 0
OS2TypoLinegap: 0
OS2WinAscent: 1003
OS2WinAOffset: 0
OS2WinDescent: 463
OS2WinDOffset: 0
HheadAscent: 1003
HheadAOffset: 0
HheadDescent: -463
HheadDOffset: 0
OS2SubXSize: 650
OS2SubYSize: 700
OS2SubXOff: 0
OS2SubYOff: 140
OS2SupXSize: 650
OS2SupYSize: 700
OS2SupXOff: 0
OS2SupYOff: 480
OS2StrikeYSize: 49
OS2StrikeYPos: 258
OS2CapHeight: 683
OS2Vendor: 'PfEd'
OS2CodePages: 2000008f.5e030000
OS2UnicodeRanges: 800000ef.1000eced.00000000.00000000
DEI: 91125
LangName: 1033 "" "" "" "FontForge 2.0 : MathJax_AMS-Regular" "" "Version 1.1" "" "" "" "" "" "" "" "Copyright (c) 2009-2010, Design Science, Inc. (<www.mathjax.org>),+AAoA-with Reserved Font Name MathJax_AMS.+AAoACgAA-This Font Software is licensed under the SIL Open Font License, Version 1.1.+AAoA-This license available with a FAQ at:+AAoA-http://scripts.sil.org/OFL" "http://scripts.sil.org/OFL" "" "MathJax_AMS" "Regular"
Encoding: Custom
UnicodeInterp: none
NameList: AGL For New Fonts
DisplaySize: -48
AntiAlias: 1
FitToEm: 0
WinInfo: 0 21 8
BeginPrivate: 5
BlueValues 16 [-19 -1 683 701]
BlueScale 7 0.03963
BlueShift 1 0
StdHW 4 [50]
StdVW 4 [50]
EndPrivate
BeginChars: 65537 259

StartChar: .notdef
Encoding: 65536 -1 0
Width: 250
GlyphClass: 1
Flags: MW
HStem: 0 50<100 150 100 200> 483 50<100 150 100 100>
VStem: 50 50<50 50 50 483> 150 50<50 483 483 483>
LayerCount: 2
Fore
SplineSet
50 0 m 1
 50 533 l 1
 200 533 l 1
 200 0 l 1
 50 0 l 1
100 50 m 1
 150 50 l 1
 150 483 l 1
 100 483 l 1
 100 50 l 1
EndSplineSet
Validated: 1
EndChar

StartChar: u1D538
Encoding: 65 120120 1
Width: 722
GlyphClass: 2
Flags: MW
HStem: -1 36<135 159 483.5 615.5> 197 35<208 306 306 335 208 419 197 306> 681 20G<343.5 348>
VStem: 148 36<88 108 83 117 83 117> 456 37<59.5 71.5 59.5 72.5>
LayerCount: 2
Fore
SplineSet
397 35 m 0
 413 35 456 48 456 65 c 0
 456 80 447 118 428 170 c 2
 419 197 l 1
 197 197 l 1
 195 179 l 1
 187 146 184 119 184 97 c 0
 184 69 190 50 201 41 c 0
 214 32 241 36 241 17 c 0
 241 10 239 8 235 3 c 0
 230 -1 228 -1 130 -1 c 0
 30 -1 28 -1 24 3 c 0
 19 7 17 12 17 17 c 0
 17 26 25 35 35 35 c 0
 53 35 77 48 88 66 c 0
 90 70 146 212 210 383 c 0
 290 588 333 695 335 697 c 0
 337 699 341 701 346 701 c 0
 350 701 355 699 357 697 c 0
 359 695 417 566 493 399 c 0
 564 235 626 95 633 83 c 0
 648 52 666 35 686 35 c 0
 696 35 703 26 703 17 c 0
 703 12 701 7 697 3 c 0
 693 -1 690 -1 541 -1 c 0
 426 -1 388 -1 386 1 c 0
 380 5 378 11 378 16 c 0
 378 26 386 35 397 35 c 0
493 68 m 0
 493 51 488 43 481 35 c 1
 619 35 l 1
 613 43 l 2
 601 61 595 77 468 361 c 2
 348 637 l 2
 346 637 313 546 313 543 c 0
 313 541 319 523 328 503 c 0
 417 303 479 148 490 92 c 0
 492 84 493 75 493 68 c 0
404 235 m 0
 404 241 314 455 295 488 c 1
 275 430 l 2
 251 369 214 254 208 232 c 1
 306 232 l 2
 364 232 404 232 404 235 c 0
155 48 m 0
 150 57 150 68 148 88 c 2
 148 117 l 1
 135 86 l 2
 128 70 121 50 117 46 c 2
 110 37 l 1
 135 35 l 1
 159 35 l 1
 159 35 157 41 155 48 c 0
EndSplineSet
Validated: 1
EndChar

StartChar: u1D539
Encoding: 66 120121 2
Width: 667
GlyphClass: 2
Flags: MW
HStem: -1 36<37.5 51 133 207 22 51> 335 35<264 284 264 302 264 284> 648 35<37.5 51 133 133 133 213 22 240>
VStem: 107 35<208 474.5 208 480> 229 35<199 335 370 492> 417 35<478 539.5 478 541.5> 449 35<162.5 211.5 162.5 224.5> 546 36<506.5 521.5> 585 35<173 187.5 173 225.5>
LayerCount: 2
Fore
SplineSet
11 665 m 0xfb80
 11 671 17 678 22 683 c 1
 213 683 l 2
 400 681 407 681 431 677 c 0
 507 663 551 630 571 577 c 0
 578 557 582 536 582 515 c 0
 582 498 579 481 573 468 c 0
 560 430 527 397 484 372 c 0
 475 368 473 366 475 366 c 0
 549 341 598 295 613 232 c 0
 618 219 620 197 620 178 c 0
 620 168 619 159 618 152 c 0
 600 77 533 26 420 6 c 0
 393 1 389 1 207 -1 c 2
 22 -1 l 1
 17 4 11 11 11 18 c 0
 11 22 12 25 15 28 c 0
 20 32 24 35 51 35 c 0
 87 37 95 39 102 52 c 0
 104 59 107 63 107 341 c 0
 107 619 104 623 102 630 c 0
 95 643 87 646 51 648 c 0
 24 648 20 650 15 655 c 0
 12 658 11 661 11 665 c 0xfb80
233 635 m 1
 240 648 l 1
 133 648 l 1
 138 639 l 2
 140 630 142 608 142 341 c 0
 142 75 140 52 138 43 c 2
 133 35 l 1
 240 35 l 1
 233 48 l 1
 229 61 l 1
 229 623 l 1
 233 635 l 1
284 370 m 1
 379 379 417 412 417 508 c 0xfd80
 417 575 397 620 355 639 c 0
 344 645 332 648 320 648 c 0
 305 648 290 643 278 635 c 0
 264 626 264 628 264 492 c 2
 264 370 l 1
 284 370 l 1
449 637 m 0xfb80
 440 639 427 641 422 641 c 2
 411 643 l 1
 420 630 l 2
 445 595 452 569 452 510 c 0xfd80
 452 446 439 417 415 383 c 1
 420 383 451 395 460 399 c 0
 489 415 520 441 533 463 c 0
 542 478 546 496 546 515 c 0
 546 528 544 541 540 555 c 0
 531 595 498 623 449 637 c 0xfb80
585 185 m 0
 585 266 525 315 455 332 c 0
 444 335 438 337 436 337 c 0
 435 337 435 336 435 336 c 2
 435 335 438 332 442 328 c 0
 449 321 458 308 462 297 c 0
 478 263 484 235 484 188 c 0xfb80
 484 137 473 92 453 63 c 0
 449 55 444 48 442 48 c 1
 442 47 443 47 444 47 c 0
 452 47 483 58 500 66 c 0
 554 93 585 134 585 185 c 0
449 184 m 0
 449 265 427 320 358 332 c 0
 349 332 324 335 302 335 c 2
 264 335 l 1
 264 199 l 2
 267 41 264 55 289 43 c 0
 300 37 302 37 324 37 c 0
 407 37 449 88 449 184 c 0
EndSplineSet
Validated: 1
EndChar

StartChar: uni2102
Encoding: 67 8450 3
Width: 722
GlyphClass: 2
Flags: MW
HStem: -19 49<364.5 407.5> 619 36<575 589 575 590 575 589> 663 36<341 381 341 390>
VStem: 39 35<327.5 364.5> 178 34<326 362> 621 36<565 625 625 625>
LayerCount: 2
Fore
SplineSet
666 147 m 0
 676 147 684 138 684 131 c 0
 684 125 679 117 670 108 c 0
 637 65 570 21 515 3 c 0
 473 -11 429 -19 386 -19 c 0
 343 -19 300 -11 259 3 c 0
 144 43 66 134 44 261 c 0
 39 283 39 294 39 341 c 0
 39 388 39 399 44 421 c 0
 73 577 181 679 341 699 c 0
 350 699 375 701 395 701 c 0
 437 699 461 694 501 677 c 0
 536 663 565 655 585 655 c 0
 593 655 599 656 604 659 c 0
 615 663 619 668 621 683 c 0
 623 695 630 702 639 702 c 0
 643 702 648 701 653 697 c 2
 657 690 l 1
 657 481 l 1
 653 474 l 1
 646 470 637 468 628 472 c 0
 626 474 621 483 619 492 c 0
 613 510 608 521 595 541 c 0
 566 581 521 621 473 643 c 0
 439 659 419 663 390 663 c 2
 381 663 l 2
 346 663 326 652 299 625 c 0
 243 574 212 467 212 336 c 0
 212 279 221 219 233 179 c 0
 260 80 316 30 405 30 c 0
 424 30 444 33 466 37 c 0
 533 50 586 79 641 130 c 0
 654 143 660 147 666 147 c 0
250 625 m 0
 257 634 264 643 261 643 c 0
 222 629 187 604 159 577 c 0
 102 519 74 451 74 341 c 0
 74 314 76 286 79 268 c 0
 97 170 150 94 230 54 c 0
 246 45 273 34 277 34 c 1
 277 34 270 41 264 48 c 0
 219 92 193 161 181 254 c 0
 179 272 178 308 178 344 c 0
 178 380 179 416 181 434 c 0
 193 512 217 581 250 625 c 0
621 565 m 1
 621 625 l 1
 621 625 617 623 613 623 c 0
 608 621 597 619 590 619 c 2
 575 619 l 1
 588 605 l 2
 595 597 606 585 610 579 c 2
 621 565 l 1
EndSplineSet
Validated: 1
EndChar

StartChar: u1D53B
Encoding: 68 120123 4
Width: 722
GlyphClass: 2
Flags: MW
HStem: -1 36<41.5 53 128 195 28 53> 648 35<41.5 53 128 128 128 184>
VStem: 98 38<270.5 411.5 270.5 412> 226 38<61 343 343 343> 515 35<340.5 368.5> 654 34<323.5 371 323.5 401.5>
LayerCount: 2
Fore
SplineSet
21 679 m 2
 28 683 l 1
 193 683 l 2
 368 683 388 683 430 672 c 0
 570 643 661 552 686 423 c 0
 688 406 688 390 688 352 c 0
 688 295 686 268 673 226 c 0
 630 99 526 17 381 1 c 0
 368 -1 293 -1 195 -1 c 2
 28 -1 l 1
 21 3 l 2
 18 7 16 12 16 16 c 0
 16 20 18 24 21 28 c 0
 26 32 30 35 53 35 c 0
 81 37 90 39 95 52 c 0
 97 58 98 199 98 341 c 0
 98 483 97 624 95 630 c 0
 90 643 81 646 53 648 c 0
 30 648 26 650 21 655 c 0
 18 658 16 662 16 666 c 0
 16 670 18 675 21 679 c 2
237 646 m 0
 237 648 213 648 184 648 c 2
 128 648 l 1
 128 646 130 641 133 632 c 0
 135 624 136 482 136 341 c 0
 136 200 135 59 133 50 c 0
 130 41 128 37 128 35 c 1
 237 35 l 1
 230 48 l 1
 226 61 l 1
 226 343 l 2
 228 650 226 626 237 646 c 0
321 648 m 0
 289 648 277 636 264 621 c 1
 264 61 l 1
 268 55 l 2
 275 46 295 37 310 35 c 0
 330 35 361 39 381 46 c 0
 459 75 501 157 513 295 c 0
 514 314 515 332 515 349 c 0
 515 388 512 424 504 459 c 0
 488 549 445 612 373 641 c 0
 357 646 337 648 321 648 c 0
484 619 m 0
 473 623 464 628 461 628 c 1
 461 628 466 621 473 615 c 0
 526 550 550 468 550 352 c 0
 550 228 528 137 479 75 c 1
 468 59 l 1
 475 59 508 77 526 90 c 0
 607 144 654 226 654 354 c 0
 654 449 629 503 581 552 c 0
 553 583 521 603 484 619 c 0
EndSplineSet
Validated: 1
EndChar

StartChar: u1D53C
Encoding: 69 120124 5
Width: 667
GlyphClass: 2
Flags: MW
HStem: -1 36<38.5 51 129 235 282 331 331 358.5 542 577 24 51> 335 35<260 277 260 284 260 277> 648 35<38.5 51 129 129 129 235 282 282 282 340 504 504 504 557>
VStem: 102 35<218 464.5> 226 34<201 335 370 492> 420 35<317 397 397 397> 557 36<603 648 648 648>
LayerCount: 2
Fore
SplineSet
437 197 m 0
 425 197 420 203 420 217 c 0
 420 230 413 255 406 270 c 0
 386 310 349 330 284 335 c 1
 260 335 l 1
 260 201 l 2
 262 77 262 66 264 57 c 0
 267 45 276 40 282 35 c 1
 331 35 l 2
 386 35 413 39 449 50 c 0
 516 73 580 115 602 179 c 0
 604 197 611 203 622 203 c 0
 631 203 640 192 640 183 c 1
 634 179 615 14 604 3 c 2
 600 -1 l 1
 24 -1 l 1
 17 3 l 2
 14 7 12 12 12 16 c 0
 12 20 14 24 17 28 c 0
 22 32 26 35 51 35 c 0
 82 37 93 41 97 52 c 0
 100 57 102 95 102 341 c 0
 102 588 100 626 97 632 c 0
 93 641 82 646 51 648 c 0
 26 648 22 650 17 655 c 0
 14 658 12 662 12 666 c 0
 12 670 14 675 17 679 c 2
 24 683 l 1
 582 683 l 1
 589 679 l 1
 593 672 l 1
 593 588 l 2
 593 490 593 490 575 490 c 0
 564 490 560 495 555 517 c 0
 553 548 542 566 517 590 c 0
 502 606 495 612 480 619 c 0
 435 641 413 646 340 648 c 2
 282 648 l 1
 275 643 l 2
 262 630 262 630 260 492 c 2
 260 370 l 1
 277 370 l 1
 346 377 382 397 404 439 c 0
 411 457 420 488 420 506 c 0
 420 517 424 526 431 528 c 0
 440 530 446 528 451 521 c 0
 455 517 455 499 455 361 c 0
 455 210 455 208 451 203 c 0
 446 199 444 197 437 197 c 0
235 648 m 1
 129 648 l 1
 133 639 l 2
 135 632 137 610 137 341 c 0
 137 72 135 50 133 43 c 2
 129 35 l 1
 235 35 l 1
 235 35 233 41 231 48 c 2
 226 61 l 1
 226 623 l 1
 231 635 l 2
 233 641 235 648 235 648 c 1
557 603 m 1
 557 648 l 1
 504 648 l 1
 504 646 509 643 515 639 c 0
 520 637 533 628 542 619 c 2
 557 603 l 1
420 317 m 1
 420 397 l 1
 406 383 l 2
 400 377 389 368 380 363 c 2
 366 355 l 1
 366 355 373 350 382 346 c 0
 389 341 402 332 409 328 c 2
 420 317 l 1
582 61 m 2
 586 88 l 1
 584 88 584 86 582 83 c 0
 575 77 544 55 526 46 c 2
 511 37 l 1
 542 35 l 1
 577 35 l 1
 577 37 580 48 582 61 c 2
EndSplineSet
Validated: 1
EndChar

StartChar: u1D53D
Encoding: 70 120125 6
Width: 611
GlyphClass: 2
Flags: MW
HStem: -1 36<38.5 51 129 182 182 206.5 326 341.5 24 51> 335 35<260 280 260 260> 648 35<38.5 51 129 129 129 235 304 360.5 495 495 495 549>
VStem: 102 35<218 464.5> 224 36<202.5 206 206 335> 409 35<323.5 395 395 395> 549 35<603 648 648 648>
LayerCount: 2
Fore
SplineSet
17 679 m 2
 24 683 l 1
 573 683 l 1
 577 677 l 1
 584 670 l 1
 584 499 l 1
 577 495 l 2
 573 490 564 488 557 492 c 0
 551 495 546 503 546 515 c 0
 546 526 540 546 533 559 c 0
 524 579 491 610 469 621 c 0
 429 641 395 648 326 648 c 0
 282 648 282 648 275 641 c 0
 273 639 266 632 264 626 c 0
 262 617 262 606 260 492 c 2
 260 370 l 1
 275 372 l 2
 340 377 373 397 393 441 c 0
 402 459 409 488 409 506 c 0
 409 520 417 529 427 529 c 0
 434 529 439 525 442 519 c 0
 443 515 444 439 444 362 c 0
 444 285 443 209 442 206 c 0
 437 199 435 197 426 197 c 0
 415 197 409 206 409 217 c 0
 409 246 395 279 375 299 c 0
 355 319 326 330 280 335 c 1
 260 335 l 1
 260 206 l 2
 260 121 260 70 262 63 c 0
 266 41 275 37 326 35 c 0
 357 35 362 35 366 28 c 0
 373 21 373 12 366 3 c 2
 360 -1 l 1
 24 -1 l 1
 17 3 l 2
 14 7 12 12 12 16 c 0
 12 20 14 24 17 28 c 0
 22 32 26 35 51 35 c 0
 82 37 93 41 97 52 c 0
 100 57 102 95 102 341 c 0
 102 588 100 626 97 632 c 0
 93 641 82 646 51 648 c 0
 26 648 22 650 17 655 c 0
 14 658 12 662 12 666 c 0
 12 670 14 675 17 679 c 2
235 648 m 1
 129 648 l 1
 133 639 l 2
 135 632 137 610 137 341 c 0
 137 72 135 50 133 43 c 2
 129 35 l 1
 182 35 l 2
 231 35 233 35 233 39 c 0
 224 59 224 59 224 346 c 2
 226 623 l 1
 231 635 l 2
 233 641 235 648 235 648 c 1
549 603 m 1
 549 648 l 1
 495 648 l 1
 506 641 l 2
 511 637 524 628 533 619 c 2
 549 603 l 1
409 317 m 1
 409 395 l 1
 400 386 l 2
 395 381 384 372 375 366 c 2
 357 355 l 1
 373 346 l 2
 380 341 393 332 397 328 c 2
 409 317 l 1
EndSplineSet
Validated: 1
EndChar

StartChar: u1D53E
Encoding: 71 120126 7
Width: 778
GlyphClass: 2
Flags: MW
HStem: -19 38<401.5 415> 250 35<429.5 435 517 517 517 655 720 735.5> 619 36<575 589 575 590 575 589> 663 36<341 381 341 390>
VStem: 39 35<327.5 364.5> 177 36<343 361 361 361> 513 35<45 114 39 119 39 154.5> 621 36<565 625 625 625> 630 36<98 134 134 134>
LayerCount: 2
Fore
SplineSet
341 699 m 0xfe80
 350 699 375 701 395 701 c 0
 437 699 461 694 501 677 c 0
 536 663 565 655 585 655 c 0
 593 655 599 656 604 659 c 0
 615 663 619 668 621 683 c 0
 623 695 630 702 639 702 c 0
 643 702 648 701 653 697 c 2
 657 690 l 1
 657 481 l 1xff
 653 474 l 1
 646 470 637 468 628 472 c 0
 626 474 621 483 619 492 c 0
 613 510 608 521 595 541 c 0
 566 581 521 621 473 643 c 0
 439 659 419 663 390 663 c 2
 381 663 l 2
 346 663 326 652 299 625 c 0
 243 574 213 468 213 337 c 0
 213 246 228 159 253 110 c 0
 277 63 301 39 341 23 c 0
 357 19 361 19 397 19 c 0
 459 19 490 23 506 39 c 2
 513 45 l 1
 513 119 l 2
 513 190 510 192 506 203 c 0
 494 230 467 243 435 250 c 0
 424 250 419 252 415 257 c 0
 408 263 408 272 415 281 c 2
 421 285 l 1
 737 285 l 1
 744 281 l 2
 747 277 749 272 749 268 c 0
 749 258 741 250 730 250 c 0
 710 250 688 237 677 217 c 0
 668 199 666 188 666 119 c 0
 666 77 666 52 664 50 c 0
 659 41 604 19 555 3 c 0
 506 -10 461 -17 415 -19 c 0
 388 -19 364 -19 348 -17 c 0
 186 1 73 103 44 261 c 0
 39 283 39 294 39 341 c 0
 39 388 39 399 44 421 c 0
 73 577 181 679 341 699 c 0xfe80
250 625 m 0
 257 634 264 643 261 643 c 0
 222 629 187 604 159 577 c 0
 102 519 74 451 74 341 c 0
 74 314 76 286 79 268 c 0
 97 168 150 94 230 52 c 0
 241 48 250 43 250 43 c 1
 250 45 246 52 241 59 c 0
 197 120 177 218 177 343 c 2
 177 361 l 1
 181 469 204 562 250 625 c 0
621 565 m 1
 621 625 l 1
 621 625 617 623 613 623 c 0
 608 621 597 619 590 619 c 2
 575 619 l 1
 588 605 l 2
 595 597 606 585 610 579 c 2
 621 565 l 1
655 250 m 1
 517 250 l 1
 524 241 l 2
 535 228 539 217 544 201 c 0
 548 190 548 177 548 114 c 2
 548 39 l 1
 550 39 601 59 615 63 c 2
 630 70 l 1
 630 134 l 2xfe80
 633 205 633 212 648 237 c 0
 653 243 655 248 655 250 c 1
EndSplineSet
Validated: 1
EndChar

StartChar: uni210D
Encoding: 72 8461 8
Width: 778
GlyphClass: 2
Flags: MW
HStem: -1 36<40.5 53 131 239 317 329.5 26 53 447 459 537 646 724 736> 323 47<266 511 266 511> 648 35<40.5 53 131 131 131 239 317 329.5 447 459 537 537 537 646 724 736>
VStem: 104 35<218 464.5> 235 31 511 35<206.5 323 323 323 370 475.5 206.5 497 206.5 497> 638 37
LayerCount: 2
Fore
SplineSet
751 683 m 1
 757 679 762 674 762 666 c 0
 762 662 761 658 757 655 c 0
 753 650 748 648 724 648 c 0
 693 646 682 641 677 632 c 0
 675 626 675 588 675 341 c 0
 675 95 675 57 677 52 c 0
 682 41 693 37 724 35 c 0
 748 35 753 32 757 28 c 0
 761 24 762 20 762 16 c 0
 762 8 757 3 751 -1 c 1
 433 -1 l 1
 426 3 l 1
 419 12 419 21 426 28 c 0
 431 32 435 35 459 35 c 0
 491 37 502 41 506 52 c 0
 508 57 511 79 511 190 c 2
 511 323 l 1
 266 323 l 1
 266 190 l 2
 266 79 268 57 271 52 c 0
 275 41 286 37 317 35 c 0
 342 35 346 32 351 28 c 0
 357 21 357 12 351 3 c 1
 344 -1 l 1
 26 -1 l 1
 19 3 l 2
 16 7 14 12 14 16 c 0
 14 20 16 24 19 28 c 0
 24 32 28 35 53 35 c 0
 84 37 95 41 99 52 c 0
 102 57 104 95 104 341 c 0
 104 588 102 626 99 632 c 0
 95 641 84 646 53 648 c 0
 28 648 24 650 19 655 c 0
 16 658 14 662 14 666 c 0
 14 670 16 675 19 679 c 2
 26 683 l 1
 344 683 l 1
 351 679 l 1
 357 670 357 661 351 655 c 0
 346 650 342 648 317 648 c 0
 297 646 288 646 282 641 c 0
 266 635 268 639 266 497 c 2
 266 370 l 1
 511 370 l 1
 511 497 l 2
 508 639 511 635 495 641 c 0
 488 646 479 646 459 648 c 0
 435 648 431 650 426 655 c 0
 419 661 419 670 426 679 c 1
 433 683 l 1
 751 683 l 1
235 639 m 2
 239 648 l 1
 131 648 l 1
 135 639 l 2
 137 632 139 610 139 341 c 0
 139 72 137 50 135 43 c 2
 131 35 l 1
 239 35 l 1
 235 43 l 2
 233 50 233 72 233 341 c 0
 233 610 233 632 235 639 c 2
639 341 m 0
 639 461 638 530 638 572 c 0
 638 629 640 634 646 648 c 1
 537 648 l 1
 542 639 l 2
 544 632 546 610 546 341 c 0
 546 72 544 50 542 43 c 2
 537 35 l 1
 646 35 l 1
 642 43 l 2
 639 50 639 72 639 341 c 0
EndSplineSet
Validated: 1
EndChar

StartChar: u1D540
Encoding: 73 120128 9
Width: 389
GlyphClass: 2
Flags: MW
HStem: -1 36<45.5 58 140 249 331 343.5 31 58> 648 35<45.5 58 140 140 140 249 331 343.5>
VStem: 113 36<206.5 475.5 206.5 482> 242 36<206.5 475.5>
LayerCount: 2
Fore
SplineSet
358 683 m 1
 364 679 369 674 369 666 c 0
 369 662 368 658 364 655 c 0
 360 650 356 648 331 648 c 0
 298 646 287 643 282 632 c 0
 278 626 278 623 278 341 c 0
 278 59 278 57 282 50 c 0
 287 39 298 37 331 35 c 0
 356 35 360 32 364 28 c 0
 368 24 369 20 369 16 c 0
 369 8 364 3 358 -1 c 1
 31 -1 l 1
 24 3 l 2
 21 7 20 12 20 16 c 0
 20 20 21 24 24 28 c 0
 29 32 33 35 58 35 c 0
 91 37 102 39 107 50 c 0
 111 57 113 59 113 341 c 0
 113 623 111 626 107 632 c 0
 102 643 91 646 58 648 c 0
 33 648 29 650 24 655 c 0
 21 658 20 662 20 666 c 0
 20 670 21 675 24 679 c 2
 31 683 l 1
 358 683 l 1
244 639 m 2
 249 648 l 1
 140 648 l 1
 144 639 l 2
 147 632 149 610 149 341 c 0
 149 72 147 50 144 43 c 2
 140 35 l 1
 249 35 l 1
 244 43 l 2
 242 50 242 72 242 341 c 0
 242 610 242 632 244 639 c 2
EndSplineSet
Validated: 1
EndChar

StartChar: u1D541
Encoding: 74 120129 10
Width: 500
GlyphClass: 2
Flags: MW
HStem: -77 38<151.5 172 172 172.5 151.5 184> 67 36<73.5 87 56.5 88.5> 647 36<151.5 166 253 253 253 362 439 451.5>
VStem: 6 38<30 39.5 25 50> 115 36<31.5 44.5> 226 36<3 305 305 312 -4 408.5> 348 36
LayerCount: 2
Fore
SplineSet
6 30 m 0
 6 70 34 103 79 103 c 0
 95 103 99 101 110 96 c 0
 131 84 151 67 151 38 c 0
 151 20 143 0 130 -15 c 0
 122 -26 122 -35 130 -37 c 0
 133 -39 146 -39 157 -39 c 0
 188 -39 212 -27 219 -8 c 1
 226 3 l 1
 226 305 l 2
 226 512 226 612 224 621 c 0
 219 641 213 645 166 647 c 0
 137 647 133 650 128 654 c 0
 122 661 122 670 128 679 c 1
 135 683 l 1
 466 683 l 1
 473 679 l 2
 476 675 478 670 478 666 c 0
 478 662 476 658 473 654 c 0
 468 650 464 647 439 647 c 0
 408 645 397 641 393 632 c 0
 390 625 388 587 388 347 c 0
 386 92 386 70 384 59 c 0
 357 -28 295 -70 184 -77 c 1
 172 -77 l 2
 80 -77 10 -34 6 30 c 0
357 639 m 2
 362 647 l 1
 253 647 l 1
 257 639 l 2
 259 630 262 605 262 312 c 2
 262 -4 l 1
 255 -17 l 2
 250 -26 249 -29 250 -29 c 0
 251 -29 252 -29 253 -28 c 0
 304 -15 333 16 348 65 c 0
 350 76 350 99 353 354 c 0
 353 607 355 632 357 639 c 2
115 36 m 0
 115 53 98 67 79 67 c 0
 68 67 58 63 50 54 c 0
 44 47 44 45 44 34 c 0
 44 16 48 5 62 -8 c 0
 70 -15 86 -26 86 -24 c 1
 88 -24 88 -19 90 -13 c 0
 93 -8 97 1 102 5 c 0
 111 17 115 27 115 36 c 0
EndSplineSet
Validated: 1
EndChar

StartChar: u1D542
Encoding: 75 120130 11
Width: 778
GlyphClass: 2
Flags: MW
HStem: -1 36<47.5 60 138 246 324 336.5 33 60 559.5 624 624 684 745.5 756> 648 35<47.5 60 138 138 138 246 324 336.5 593 615 697.5 718.5>
VStem: 111 35<218 464.5> 240 33<206.5 283 170 475.5> 512 37<595 610 595 610.5>
LayerCount: 2
Fore
SplineSet
768 15 m 0
 768 7 764 3 758 -1 c 1
 624 -1 l 2
 495 -1 491 -1 486 3 c 0
 482 8 480 13 480 17 c 0
 480 27 491 35 506 35 c 0
 522 37 524 39 520 48 c 2
 400 195 l 1
 302 310 l 1
 286 297 l 1
 273 283 l 1
 273 170 l 2
 275 46 273 48 289 41 c 0
 295 37 304 37 324 35 c 0
 349 35 353 32 358 28 c 0
 364 21 364 12 358 3 c 1
 351 -1 l 1
 33 -1 l 1
 26 3 l 2
 23 7 22 12 22 16 c 0
 22 20 23 24 26 28 c 0
 31 32 35 35 60 35 c 0
 91 37 102 41 106 52 c 0
 109 57 111 95 111 341 c 0
 111 588 109 626 106 632 c 0
 102 641 91 646 60 648 c 0
 35 648 31 650 26 655 c 0
 23 658 22 662 22 666 c 0
 22 670 23 675 26 679 c 2
 33 683 l 1
 351 683 l 1
 358 679 l 1
 364 670 364 661 358 655 c 0
 353 650 349 648 324 648 c 0
 298 646 286 643 280 637 c 0
 273 628 273 606 273 477 c 2
 275 343 l 1
 382 446 l 2
 442 501 493 552 498 559 c 0
 508 571 512 585 512 599 c 0
 512 622 499 644 475 648 c 0
 462 650 455 655 455 666 c 0
 455 672 458 675 462 679 c 0
 466 683 469 683 593 683 c 2
 720 683 l 1
 726 679 732 674 732 666 c 0
 732 657 724 648 713 648 c 0
 682 648 640 623 589 581 c 0
 562 557 413 417 413 415 c 0
 413 412 689 83 711 61 c 0
 731 41 740 35 751 35 c 0
 761 35 768 25 768 15 c 0
242 639 m 2
 246 648 l 1
 138 648 l 1
 142 639 l 2
 144 632 146 610 146 341 c 0
 146 72 144 50 142 43 c 2
 138 35 l 1
 246 35 l 1
 242 43 l 2
 240 50 240 72 240 341 c 0
 240 610 240 632 242 639 c 2
595 632 m 2
 615 648 l 1
 535 648 l 1
 542 637 l 2
 544 630 546 617 549 610 c 2
 549 595 l 1
 562 606 l 2
 571 612 584 626 595 632 c 2
524 226 m 2
 386 388 l 2
 386 390 373 377 358 361 c 0
 335 342 330 337 330 333 c 0
 330 332 331 331 331 330 c 2
 533 90 l 2
 546 72 558 52 558 41 c 2
 558 35 l 1
 684 35 l 1
 671 50 l 2
 664 57 598 137 524 226 c 2
EndSplineSet
Validated: 33
EndChar

StartChar: u1D543
Encoding: 76 120131 12
Width: 667
GlyphClass: 2
Flags: MW
HStem: -1 36<38.5 51 129 237 284 340 500 577 24 51> 648 35<38.5 51 129 129 129 233 309 320>
VStem: 102 35<218 464.5> 229 37 586 25 602 38
LayerCount: 2
Fore
SplineSet
17 679 m 2xf8
 24 683 l 1
 333 683 l 1
 340 679 l 1
 346 670 346 661 340 655 c 0
 335 650 331 648 309 648 c 0
 280 646 271 643 266 630 c 0
 264 623 264 566 264 346 c 0
 264 83 264 68 266 57 c 0
 271 46 275 40 284 35 c 1
 340 35 l 2
 402 37 417 39 460 55 c 0
 531 86 589 143 602 197 c 0
 604 215 611 221 622 221 c 0
 631 221 640 210 640 201 c 0xf4
 637 190 611 15 611 12 c 0
 611 10 609 8 606 3 c 2
 600 -1 l 1
 24 -1 l 1
 17 3 l 2
 14 7 12 12 12 16 c 0
 12 20 14 24 17 28 c 0
 22 32 26 35 51 35 c 0
 82 37 93 41 97 52 c 0
 100 57 102 95 102 341 c 0
 102 588 100 626 97 632 c 0
 93 641 82 646 51 648 c 0
 26 648 22 650 17 655 c 0
 14 658 12 662 12 666 c 0
 12 670 14 675 17 679 c 2xf8
233 643 m 2
 233 648 l 1
 129 648 l 1
 133 639 l 2
 135 632 137 610 137 341 c 0
 137 72 135 50 133 43 c 2
 129 35 l 1
 237 35 l 1
 237 35 235 41 233 48 c 2
 229 61 l 1
 226 339 l 2
 226 521 226 621 229 628 c 0
 231 632 231 641 233 643 c 2
580 48 m 2
 580 60 586 88 586 97 c 0xf8
 586 99 580 92 571 86 c 0
 555 70 537 57 513 43 c 2
 500 35 l 1
 577 35 l 1
 580 48 l 2
EndSplineSet
Validated: 1
EndChar

StartChar: u1D544
Encoding: 77 120132 13
Width: 944
GlyphClass: 2
Flags: MW
HStem: -1 36<31.5 39 125 129 215 220.5 28 39 609.5 615 757 819 901 908.5> 639 44<104 104> 648 35<157 157 157 199.5 89.5 244 897 902.5>
VStem: 104 44<599 599 599 639 599 639> 679 36<79 339 339 411> 797 38
LayerCount: 2
Fore
SplineSet
17 17 m 0xbc
 17 29 24 35 39 35 c 0
 66 39 88 50 97 68 c 2
 104 79 l 1
 104 639 l 1xdc
 88 641 l 2
 79 643 64 646 53 648 c 0
 28 648 24 650 19 659 c 0
 18 661 18 664 18 666 c 0
 18 670 19 674 24 679 c 0
 28 683 33 683 146 683 c 0
 253 683 261 683 266 679 c 0
 271 674 465 215 465 215 c 2
 468 215 482 245 566 443 c 0
 628 592 666 679 668 681 c 0
 673 683 695 683 790 683 c 2
 908 683 l 1
 915 679 l 1
 919 672 921 661 915 655 c 0
 913 650 908 648 897 648 c 0
 870 643 848 632 839 615 c 2
 835 606 l 1
 833 346 l 2
 833 161 833 86 835 79 c 0
 839 66 857 48 873 41 c 0
 881 39 893 37 901 35 c 0
 916 35 926 28 926 16 c 0
 926 8 921 3 915 -1 c 1
 604 -1 l 1
 597 3 l 1
 593 10 590 21 597 28 c 0
 599 32 604 35 615 35 c 0
 641 39 664 50 673 68 c 2
 679 79 l 1
 679 339 l 2
 679 483 679 599 677 597 c 0
 608 430 426 6 424 3 c 0
 420 1 415 -1 410 -1 c 0
 407 -1 404 -1 401 1 c 0
 399 3 353 112 273 301 c 2
 148 599 l 1
 146 343 l 2
 146 161 146 86 148 79 c 0
 153 66 170 48 186 41 c 0
 195 39 206 37 215 35 c 0
 226 35 230 32 235 28 c 0
 241 21 241 12 235 3 c 1
 228 -1 l 1
 28 -1 l 1
 21 3 l 2
 19 7 17 12 17 17 c 0xbc
344 412 m 2
 244 648 l 1
 157 648 l 1xbc
 166 637 l 2
 173 628 201 559 293 346 c 2
 413 66 l 1
 413 66 424 88 435 117 c 2
 457 166 l 1
 450 170 l 2
 444 175 430 203 344 412 c 2
817 646 m 2
 817 648 795 648 766 648 c 2
 715 648 l 1
 715 72 l 1
 708 57 l 2
 704 50 699 43 697 41 c 0
 697 39 695 37 695 37 c 2
 695 35 724 35 757 35 c 2
 819 35 l 1
 813 46 l 2
 797 68 797 50 797 346 c 2
 799 612 l 1
 804 626 l 2
 808 632 813 639 815 641 c 0
 815 643 817 646 817 646 c 2
124 42 m 2
 122 42 119 39 119 38 c 0
 119 36 122 35 128 35 c 0
 130 35 132 35 132 36 c 0
 132 37 124 42 124 42 c 2
EndSplineSet
Validated: 33
EndChar

StartChar: uni2115
Encoding: 78 8469 14
Width: 722
GlyphClass: 2
Flags: MW
HStem: -1 35<44.5 56 213 223 36 56> 648 35<37 44 120 120 120 142 142 184.5 512 522 663.5 684.5>
VStem: 111 45<548 548 548 603> 582 42<259 294 -8 425> 589 35<121 192 192 192>
LayerCount: 2
Fore
SplineSet
24 16 m 0xe8
 24 31 33 34 56 34 c 0
 67 37 80 37 84 39 c 0
 98 45 107 57 109 72 c 0
 111 83 111 165 111 345 c 2
 111 603 l 1
 96 619 l 2
 78 637 62 645 44 648 c 0
 30 648 20 653 20 664 c 0
 20 669 27 678 31 683 c 1
 142 683 l 2
 227 683 256 683 258 681 c 0
 260 679 333 583 422 468 c 2
 582 259 l 1
 582 425 l 2
 582 537 582 597 580 608 c 0
 576 637 562 645 522 648 c 0
 502 648 498 650 493 654 c 0
 487 661 487 670 493 679 c 1
 500 683 l 1
 691 683 l 1
 698 679 l 2
 701 675 702 670 702 666 c 0
 702 662 701 656 698 652 c 0
 693 650 689 648 680 648 c 0
 647 648 631 637 627 612 c 0
 624 601 624 512 624 294 c 2xf0
 624 -8 l 1
 620 -15 l 2
 616 -18 611 -20 607 -20 c 0
 603 -20 599 -18 596 -15 c 0
 591 -12 491 117 371 270 c 2
 156 548 l 1
 153 319 l 2
 153 159 153 85 156 77 c 0
 160 45 173 37 213 34 c 0
 233 34 238 32 242 28 c 0
 249 21 249 12 242 3 c 2
 236 -1 l 1
 36 -1 l 1
 29 3 l 2
 25 7 24 12 24 16 c 0xe8
413 419 m 1
 240 648 l 1
 120 648 l 1
 136 628 l 2
 138 625 586 55 587 54 c 0
 589 52 589 63 589 121 c 2
 589 192 l 1xe8
 413 419 l 1
EndSplineSet
Validated: 33
EndChar

StartChar: u1D546
Encoding: 79 120134 15
Width: 778
GlyphClass: 2
Flags: MW
HStem: -19 38<375.5 402 375.5 440> 665 36<378 395>
VStem: 34 35<327 355> 174 36<322 360 322 361.5> 568 34<322 360> 708 34<314.5 367.5 314.5 369>
LayerCount: 2
Fore
SplineSet
333 697 m 0
 351 699 369 701 387 701 c 0
 449 701 512 687 562 661 c 0
 649 619 709 545 731 448 c 0
 742 410 742 394 742 341 c 0
 742 288 742 272 731 234 c 0
 715 172 689 123 646 81 c 0
 584 17 491 -19 389 -19 c 0
 286 -19 193 17 131 81 c 0
 80 132 51 192 37 274 c 0
 35 286 34 313 34 341 c 0
 34 369 35 398 37 410 c 0
 51 490 80 550 131 601 c 0
 182 654 251 685 333 697 c 0
437 659 m 0
 424 661 413 663 395 665 c 0
 349 665 317 654 286 625 c 0
 249 588 226 530 213 439 c 0
 211 418 210 379 210 341 c 0
 210 303 211 265 213 245 c 0
 226 152 249 94 286 57 c 0
 306 39 320 32 342 23 c 0
 357 19 362 19 389 19 c 0
 415 19 420 19 437 23 c 0
 457 32 471 39 491 57 c 0
 529 94 551 152 564 245 c 0
 566 265 568 303 568 341 c 0
 568 379 566 418 564 439 c 0
 551 530 529 588 491 625 c 0
 471 643 457 652 437 659 c 0
177 445 m 0
 189 533 211 584 249 639 c 1
 246 639 204 617 193 608 c 0
 184 603 169 588 155 577 c 0
 113 534 91 488 77 423 c 0
 72 398 69 371 69 344 c 0
 69 198 130 102 231 52 c 0
 240 47 244 45 246 45 c 0
 247 45 247 46 246 48 c 0
 204 106 191 154 177 239 c 0
 175 259 174 300 174 341 c 0
 174 382 175 424 177 445 c 0
582 610 m 0
 573 614 557 625 546 630 c 0
 537 635 533 637 531 637 c 0
 530 637 530 637 530 636 c 0
 530 635 531 635 531 634 c 0
 555 601 566 579 577 543 c 0
 597 485 602 439 602 341 c 0
 602 283 602 261 600 239 c 0
 589 152 571 103 531 48 c 0
 531 47 530 47 530 46 c 0
 530 45 530 45 531 45 c 0
 533 45 537 47 546 52 c 0
 575 68 597 81 622 105 c 0
 677 164 708 237 708 341 c 0
 708 397 697 454 677 497 c 0
 657 539 620 585 582 610 c 0
EndSplineSet
Validated: 1
EndChar

StartChar: uni2119
Encoding: 80 8473 16
Width: 611
GlyphClass: 2
Flags: MW
HStem: -1 36<41.5 53 128 235 313 325 28 53> 303 38<261 301 301 312.5 261 319 261 301> 648 35<41.5 53 128 128 128 195 195 237>
VStem: 98 38<270.5 411.5 270.5 412> 226 35<341 479> 426 36<484.5 505> 562 35<481.5 513>
LayerCount: 2
Fore
SplineSet
21 679 m 2
 28 683 l 1
 195 683 l 2
 373 683 395 683 437 672 c 0
 468 666 490 657 515 643 c 0
 568 612 597 559 597 495 c 0
 597 468 593 443 581 421 c 0
 561 383 537 359 495 337 c 0
 464 321 439 315 401 308 c 0
 381 303 366 303 319 303 c 2
 261 303 l 1
 261 181 l 2
 264 43 261 48 277 41 c 0
 284 37 293 37 313 35 c 0
 337 35 341 32 346 28 c 0
 353 21 353 12 346 3 c 1
 339 -1 l 1
 28 -1 l 1
 21 3 l 2
 18 7 16 12 16 16 c 0
 16 20 18 24 21 28 c 0
 26 32 30 35 53 35 c 0
 81 37 90 39 95 52 c 0
 97 58 98 199 98 341 c 0
 98 483 97 624 95 630 c 0
 90 643 81 646 53 648 c 0
 30 648 26 650 21 655 c 0
 18 658 16 662 16 666 c 0
 16 670 18 675 21 679 c 2
230 635 m 1
 237 648 l 1
 128 648 l 1
 128 646 130 641 133 632 c 0
 135 624 136 482 136 341 c 0
 136 200 135 59 133 50 c 0
 130 41 128 37 128 35 c 1
 235 35 l 1
 230 43 l 2
 228 50 226 75 226 337 c 2
 226 621 l 1
 230 635 l 1
424 537 m 0
 415 619 393 647 322 647 c 0
 310 647 299 646 293 643 c 0
 279 639 268 630 264 621 c 0
 261 617 261 590 261 479 c 2
 261 341 l 1
 301 341 l 2
 324 341 346 341 353 343 c 0
 388 352 410 377 419 423 c 0
 424 442 426 471 426 498 c 0
 426 512 425 525 424 537 c 0
484 619 m 0
 473 626 455 632 448 635 c 2
 433 639 l 1
 439 621 l 1
 454 593 462 556 462 506 c 0
 462 444 452 389 433 361 c 0
 430 357 428 352 428 350 c 1
 429 350 l 2
 435 350 461 360 479 368 c 0
 533 395 562 438 562 490 c 0
 562 536 549 565 524 592 c 0
 508 606 501 610 484 619 c 0
EndSplineSet
Validated: 1
EndChar

StartChar: uni211A
Encoding: 81 8474 17
Width: 778
GlyphClass: 2
Flags: MW
HStem: -181 37<537.5 550.5 537.5 567> -17 36<375.5 391> 666 35<378.5 395>
VStem: 34 35<328 356> 174 36<323 361 323 361.5> 568 34<323 361> 708 34<314.5 368 314.5 369>
LayerCount: 2
Fore
SplineSet
333 697 m 0
 351 700 369 701 388 701 c 0
 450 701 512 687 562 661 c 0
 649 619 709 546 731 448 c 0
 742 410 742 395 742 341 c 0
 742 288 742 272 731 235 c 0
 715 172 689 123 646 81 c 0
 606 39 546 6 493 -5 c 0
 486 -8 480 -10 480 -10 c 2
 480 -14 493 -34 504 -48 c 0
 535 -84 589 -114 648 -114 c 0
 664 -114 680 -112 697 -108 c 0
 715 -105 717 -105 722 -108 c 0
 729 -112 733 -121 729 -130 c 0
 726 -137 704 -150 669 -161 c 0
 627 -175 586 -181 548 -181 c 0
 468 -181 397 -152 342 -97 c 0
 317 -72 297 -43 284 -19 c 1
 280 -3 l 1
 262 1 l 2
 217 15 166 46 131 81 c 0
 80 132 51 192 37 275 c 0
 35 286 34 314 34 342 c 0
 34 370 35 398 37 410 c 0
 51 490 80 550 131 601 c 0
 182 655 251 686 333 697 c 0
437 659 m 0
 424 661 413 663 395 666 c 0
 349 666 317 655 286 626 c 0
 249 588 226 530 213 439 c 0
 211 418 210 380 210 342 c 0
 210 304 211 266 213 246 c 0
 226 152 249 95 286 57 c 0
 306 39 320 32 342 23 c 0
 357 19 362 19 389 19 c 0
 415 19 420 19 437 23 c 0
 457 32 471 39 491 57 c 0
 529 95 551 152 564 246 c 0
 566 266 568 304 568 342 c 0
 568 380 566 418 564 439 c 0
 551 530 529 588 491 626 c 0
 471 643 457 652 437 659 c 0
246 635 m 0
 249 637 249 639 249 639 c 1
 246 639 204 617 193 608 c 0
 184 603 169 588 155 577 c 0
 113 535 91 488 77 423 c 0
 72 398 69 371 69 344 c 0
 69 198 131 102 231 52 c 0
 246 43 249 43 246 48 c 0
 204 106 191 154 177 239 c 0
 175 259 174 300 174 341 c 0
 174 382 175 424 177 446 c 0
 189 530 209 581 246 635 c 0
582 610 m 0
 573 615 557 626 546 630 c 0
 537 635 533 638 531 638 c 0
 530 638 530 637 531 635 c 0
 555 601 566 579 577 543 c 0
 597 486 602 439 602 341 c 0
 602 283 602 261 600 239 c 0
 589 152 571 103 531 48 c 0
 529 43 531 43 546 52 c 0
 575 68 597 81 622 106 c 0
 677 164 708 237 708 341 c 0
 708 397 697 454 677 497 c 0
 657 539 620 586 582 610 c 0
391 -17 m 1
 333 -17 l 2
 329 -15 327 -15 326 -15 c 0
 325 -15 324 -15 324 -17 c 0
 324 -21 349 -52 362 -68 c 0
 404 -110 451 -134 506 -143 c 0
 518 -144 531 -144 544 -144 c 0
 557 -144 569 -144 577 -143 c 2
 589 -141 l 1
 575 -139 l 1
 528 -121 478 -82 453 -37 c 2
 442 -19 l 1
 391 -17 l 1
EndSplineSet
Validated: 1
EndChar

StartChar: uni211D
Encoding: 82 8477 18
Width: 722
GlyphClass: 2
Flags: MW
HStem: -1 36<42.5 55 133 241 319 331.5 28 55 526 619> 310 36<268 284 284 295 268 306 268 284> 648 35<42.5 55 133 133 133 221 28 244>
VStem: 106 35<218 464.5> 233 35<346 481> 457 35<482.5 509.5 482.5 535> 593 33<478 511.5 478 526>
LayerCount: 2
Fore
SplineSet
17 665 m 0
 17 671 23 678 28 683 c 1
 221 683 l 2
 410 681 415 681 439 677 c 0
 521 661 579 626 608 577 c 0
 613 570 617 557 621 548 c 0
 626 530 626 526 626 497 c 0
 626 459 624 443 613 419 c 0
 590 372 544 341 473 326 c 0
 464 323 455 321 455 321 c 2
 455 317 544 188 566 157 c 0
 624 79 661 41 686 35 c 0
 698 32 705 24 705 16 c 0
 705 8 699 3 693 -1 c 1
 510 -1 l 1
 499 10 461 71 404 159 c 2
 306 310 l 1
 268 310 l 1
 268 183 l 2
 270 43 268 48 284 41 c 0
 290 37 299 37 319 35 c 0
 344 35 348 32 353 28 c 0
 359 21 359 12 353 3 c 1
 346 -1 l 1
 28 -1 l 1
 21 3 l 2
 18 7 16 12 16 16 c 0
 16 20 18 24 21 28 c 0
 26 32 30 35 55 35 c 0
 86 37 97 41 101 52 c 0
 104 57 106 95 106 341 c 0
 106 588 104 626 101 632 c 0
 97 641 86 646 55 648 c 0
 30 648 26 650 21 655 c 0
 18 658 17 661 17 665 c 0
237 635 m 1
 244 648 l 1
 133 648 l 1
 137 639 l 2
 139 632 141 610 141 341 c 0
 141 72 139 50 137 43 c 2
 133 35 l 1
 241 35 l 1
 237 43 l 2
 235 50 233 75 233 337 c 2
 233 621 l 1
 237 635 l 1
457 496 m 0
 457 574 438 626 377 643 c 0
 370 643 353 646 339 648 c 0
 308 648 297 646 281 635 c 0
 268 626 268 628 268 481 c 2
 268 346 l 1
 284 346 l 2
 306 346 359 350 375 352 c 0
 441 370 457 401 457 496 c 0
477 630 m 0
 468 635 457 637 457 637 c 2
 455 637 459 632 461 626 c 0
 473 612 481 586 488 561 c 0
 490 549 492 523 492 496 c 0
 492 469 490 442 488 428 c 0
 486 408 475 379 468 370 c 0
 466 368 464 363 464 361 c 2
 464 361 464 360 465 360 c 0
 469 360 480 364 497 370 c 0
 561 390 593 427 593 495 c 0
 593 557 553 605 477 630 c 0
464 243 m 0
 433 286 413 317 410 317 c 0
 408 317 404 317 401 315 c 0
 397 315 384 315 370 312 c 2
 346 312 l 1
 526 35 l 1
 619 35 l 1
 606 50 l 2
 564 97 526 150 464 243 c 0
EndSplineSet
Validated: 1
EndChar

StartChar: u1D54A
Encoding: 83 120138 19
Width: 556
GlyphClass: 2
Flags: MW
HStem: -10 33<243.5 278.5 242.5 335.5> 15 35<110 118> 639 36<404 408 400 415 404 404> 666 33<212 263.5>
VStem: 28 36<484 520> 37 35<60.5 80 60.5 112 60.5 162> 113 35<562.5 574> 393 34<120.5 137> 446 35<500 502.5 592 619 619 627> 490 38<169 204.5>
LayerCount: 2
Fore
SplineSet
528 191 m 0x1bc0
 528 61 405 -10 266 -10 c 0x9bc0
 221 -10 215 -10 172 4 c 0
 152 12 126 15 110 15 c 0
 97 12 84 8 70 -3 c 0
 64 -9 58 -12 53 -12 c 0
 49 -12 45 -11 41 -8 c 2
 37 -1 l 1
 37 112 l 2
 37 212 37 226 41 230 c 0
 46 237 52 239 61 237 c 0
 68 235 72 226 72 212 c 0x47c0
 72 188 86 152 106 121 c 0
 115 106 148 72 166 59 c 0
 195 40 221 23 264 23 c 0
 293 23 328 30 348 41 c 0
 364 48 377 66 384 79 c 0
 390 94 393 112 393 129 c 0
 393 145 390 160 386 172 c 0
 368 221 319 257 221 299 c 0
 86 357 28 417 28 501 c 0
 28 539 39 581 55 610 c 0
 84 659 137 688 212 699 c 0x9bc0
 219 699 241 701 261 701 c 0
 297 699 312 697 348 684 c 0
 366 677 392 675 408 675 c 0x2bc0
 421 677 435 681 448 692 c 0
 454 699 460 702 465 702 c 0
 469 702 473 700 477 697 c 2
 481 690 l 1
 481 497 l 1
 477 490 l 1
 468 484 459 484 450 490 c 0
 448 495 446 499 446 501 c 0
 446 504 444 512 441 524 c 0
 421 586 346 652 281 664 c 0
 274 665 267 666 260 666 c 0
 200 666 148 629 148 565 c 0
 148 560 149 555 150 550 c 0
 159 508 206 472 319 428 c 0
 406 391 467 356 506 284 c 0
 521 253 528 221 528 191 c 0x1bc0
446 619 m 2
 446 635 446 648 444 648 c 2
 444 648 439 646 435 644 c 0
 428 644 419 641 415 639 c 2
 404 639 l 1x23c0
 417 624 l 2
 426 615 435 606 439 601 c 2
 446 592 l 1
 446 619 l 2
124 619 m 0
 128 628 128 635 128 635 c 1
 126 635 117 626 108 617 c 0
 78 589 64 555 64 502 c 0x0bc0
 64 466 75 441 104 412 c 0
 132 384 168 361 228 335 c 0
 346 286 397 246 419 184 c 0
 425 168 427 148 427 128 c 0
 427 108 425 89 419 75 c 2
 415 61 l 1
 417 61 435 75 448 88 c 0
 479 117 490 148 490 190 c 0
 490 219 488 237 475 264 c 0
 464 284 450 304 430 321 c 0
 399 352 372 368 306 395 c 0
 255 415 228 428 204 441 c 0
 159 468 132 495 119 526 c 0
 115 538 113 551 113 565 c 0
 113 583 116 602 124 619 c 0
84 90 m 0
 79 95 75 101 74 101 c 0
 72 101 72 88 72 72 c 0
 72 49 72 43 75 43 c 0
 76 43 76 43 77 44 c 0
 86 46 104 50 110 50 c 2
 119 50 l 1x47c0
 106 64 l 2
 99 72 90 84 84 90 c 0
EndSplineSet
Validated: 1
EndChar

StartChar: u1D54B
Encoding: 84 120139 20
Width: 667
GlyphClass: 2
Flags: MW
HStem: -1 36<182 195 280 389 473 486.5 166 195> 648 35<69 126 69 69 253 253 289 289 289 380 415 415 542 542 542 600>
VStem: 33 36<492.5 507 597 648> 253 36<355 648> 380 35<350 355 355 648> 600 35<493.5 507 597 648 648 648>
LayerCount: 2
Fore
SplineSet
37 679 m 1
 44 683 l 1
 624 683 l 1
 631 679 l 1
 635 672 l 1
 635 490 l 1
 631 483 l 2
 626 481 622 479 617 479 c 0
 609 479 600 488 600 499 c 0
 600 515 593 537 584 552 c 0
 575 572 544 606 524 617 c 0
 500 630 462 643 426 646 c 2
 415 648 l 1
 415 355 l 2
 415 66 417 59 422 52 c 0
 426 39 435 37 473 35 c 0
 500 35 504 32 509 28 c 0
 515 21 515 12 509 3 c 1
 502 -1 l 1
 166 -1 l 1
 160 3 l 2
 153 12 153 21 160 28 c 0
 164 32 169 35 195 35 c 0
 233 37 242 39 249 52 c 0
 251 59 253 66 253 355 c 2
 253 648 l 1
 242 646 l 2
 206 643 169 630 144 617 c 0
 124 606 93 572 84 552 c 0
 75 537 69 515 69 499 c 0
 69 486 60 478 50 478 c 0
 46 478 41 480 37 483 c 2
 33 490 l 1
 33 672 l 1
 37 679 l 1
113 639 m 2
 126 648 l 1
 69 648 l 1
 69 597 l 1
 84 612 l 2
 91 621 104 632 113 639 c 2
380 350 m 2
 380 648 l 1
 289 648 l 1
 289 350 l 2
 289 77 286 52 284 43 c 2
 280 35 l 1
 389 35 l 1
 384 43 l 2
 382 52 380 77 380 350 c 2
600 597 m 1
 600 648 l 1
 542 648 l 1
 555 639 l 2
 564 632 577 621 584 612 c 2
 600 597 l 1
EndSplineSet
Validated: 1
EndChar

StartChar: u1D54C
Encoding: 85 120140 21
Width: 722
GlyphClass: 2
Flags: MW
HStem: -19 44 648 35<41.5 53 128 128 128 233 315 327 500.5 523.5 577 577 577 619 678 695.5>
VStem: 99 36<399 488> 226 35<308 505.5> 575 44
LayerCount: 2
Fore
SplineSet
697 683 m 1
 703 679 709 675 709 667 c 0
 709 657 701 648 690 648 c 0
 666 648 646 630 633 597 c 0
 621 565 621 568 619 377 c 0
 617 205 617 194 613 174 c 0
 601 117 579 77 544 41 c 0
 499 1 434 -19 355 -19 c 2
 344 -19 l 1
 261 -15 201 8 159 52 c 0
 133 79 115 110 106 154 c 0
 101 172 101 179 99 399 c 0
 99 577 97 625 95 632 c 0
 90 641 81 645 53 648 c 0
 30 648 26 650 21 654 c 0
 18 658 16 662 16 666 c 0
 16 670 18 675 21 679 c 2
 28 683 l 1
 341 683 l 1
 348 679 l 1
 355 670 355 661 348 654 c 0
 344 650 339 648 315 648 c 0
 281 645 270 643 266 632 c 0
 261 625 261 623 261 399 c 0
 261 159 261 157 270 117 c 0
 281 70 304 43 339 30 c 0
 355 25 359 25 393 25 c 0
 433 25 450 28 481 43 c 0
 497 50 504 57 519 72 c 0
 535 88 541 94 550 114 c 0
 561 139 570 170 575 205 c 0
 576 219 576 299 576 379 c 0
 576 459 576 538 575 550 c 0
 566 612 541 648 506 648 c 0
 495 648 487 658 487 667 c 0
 487 675 493 679 499 683 c 1
 697 683 l 1
228 639 m 2
 233 648 l 1
 128 648 l 1
 128 645 130 641 133 632 c 0
 135 621 135 590 135 412 c 0
 135 283 135 197 137 185 c 0
 144 139 157 105 181 79 c 0
 199 61 217 48 235 41 c 0
 246 34 275 25 277 25 c 1
 277 25 273 32 266 41 c 0
 248 65 235 101 228 145 c 0
 226 161 226 217 226 399 c 0
 226 612 226 632 228 639 c 2
604 621 m 2
 611 636 614 639 619 648 c 1
 577 648 l 1
 586 634 l 2
 588 628 595 619 595 614 c 2
 597 608 l 1
 604 621 l 2
EndSplineSet
Validated: 1
EndChar

StartChar: u1D54D
Encoding: 86 120141 22
Width: 722
GlyphClass: 2
Flags: MW
HStem: 648 35<164 224 302 309 510 516 593.5 600 600 607 607 624>
VStem: 216 33<608 613.5 608 627.5>
LayerCount: 2
Fore
SplineSet
547 590 m 0
 547 627 542 642 516 648 c 0
 504 648 500 650 498 654 c 0
 491 661 493 672 498 679 c 2
 504 683 l 1
 607 683 l 2
 713 683 711 683 718 672 c 0
 719 670 719 669 719 667 c 0
 719 658 711 648 700 648 c 0
 684 648 671 641 658 628 c 2
 642 614 l 1
 513 301 l 2
 440 128 382 -12 380 -15 c 0
 376 -18 372 -20 368 -20 c 0
 364 -20 360 -18 358 -15 c 0
 349 -9 92 573 67 610 c 0
 53 634 33 648 18 648 c 0
 8 648 0 657 0 666 c 0
 0 671 2 675 7 679 c 0
 11 683 13 683 164 683 c 2
 316 683 l 1
 322 679 l 2
 326 674 327 670 327 666 c 0
 327 655 316 648 302 648 c 0
 287 645 269 639 258 628 c 0
 249 621 249 619 249 608 c 0
 256 568 304 439 384 263 c 0
 404 222 411 200 420 185 c 0
 422 185 444 241 473 317 c 0
 509 405 531 477 542 534 c 0
 546 551 547 572 547 590 c 0
216 614 m 0
 216 641 217 636 224 648 c 1
 84 648 l 1
 96 632 l 2
 102 621 153 514 236 330 c 2
 367 43 l 1
 387 88 l 1
 404 132 l 1
 380 185 l 2
 293 374 240 503 222 568 c 0
 216 590 216 597 216 614 c 0
576 645 m 0
 582 634 584 625 584 597 c 2
 587 568 l 1
 598 597 l 2
 604 612 613 630 618 637 c 2
 624 648 l 1
 600 648 l 2
 587 648 576 648 576 645 c 0
EndSplineSet
Validated: 1
EndChar

StartChar: u1D54E
Encoding: 87 120142 23
Width: 1000
GlyphClass: 2
Flags: MW
HStem: 648 35<82 146 146 199 82 82 394 408 512.5 530 530 593 666 677 797.5 817.5 868 868 868 893>
VStem: 194 36<613.5 623.5 610 629> 585 37<610 625 610 627> 847 37<572 572 572 602>
LayerCount: 2
Fore
SplineSet
802 648 m 0
 793 648 785 658 785 666 c 0
 785 672 790 677 795 683 c 1
 982 683 l 1
 988 679 l 2
 992 674 994 669 994 665 c 0
 994 656 987 649 975 648 c 0
 962 645 948 634 939 619 c 1
 931 591 718 -7 710 -15 c 0
 708 -17 704 -19 699 -19 c 0
 695 -19 690 -17 688 -15 c 0
 675 5 516 437 513 437 c 1
 513 439 466 337 413 212 c 0
 353 74 313 -15 310 -17 c 0
 308 -19 305 -19 302 -19 c 0
 297 -19 292 -17 288 -15 c 0
 282 -6 57 619 57 619 c 2
 48 637 37 645 24 648 c 0
 12 649 5 656 5 665 c 0
 5 669 6 674 10 679 c 2
 17 683 l 1
 146 683 l 2
 282 683 277 683 284 672 c 0
 285 670 285 668 285 666 c 0
 285 657 277 648 268 648 c 0
 259 648 248 643 239 634 c 0
 230 630 230 628 230 619 c 0
 230 601 244 550 264 481 c 0
 284 419 362 192 362 192 c 1
 364 194 493 490 493 492 c 0
 493 497 453 594 446 608 c 0
 433 634 417 648 399 648 c 0
 389 648 382 657 382 667 c 0
 382 676 387 679 393 683 c 1
 679 683 l 1
 683 679 690 670 690 665 c 0
 690 660 681 648 673 648 c 0
 659 648 644 641 633 632 c 2
 622 625 l 1
 622 610 l 1
 626 572 659 463 715 310 c 0
 733 265 746 218 751 218 c 0
 754 218 759 232 779 294 c 0
 828 437 847 524 847 581 c 0
 847 623 833 648 802 648 c 0
194 623 m 0
 194 635 197 640 199 648 c 1
 82 648 l 1
 90 632 l 2
 95 623 144 488 199 332 c 2
 302 50 l 2
 304 50 342 139 342 141 c 0
 342 143 330 177 315 217 c 0
 268 352 226 477 210 537 c 0
 199 574 194 604 194 623 c 0
585 620 m 0
 585 634 588 640 593 648 c 1
 530 648 l 2
 495 648 466 648 466 645 c 2
 466 645 468 643 470 639 c 0
 479 625 495 588 595 323 c 2
 699 54 l 1
 702 57 735 150 735 154 c 2
 702 245 l 2
 620 467 585 572 585 620 c 0
915 645 m 0
 915 648 904 648 893 648 c 2
 868 648 l 1
 875 634 l 2
 877 625 879 612 882 597 c 0
 884 583 884 572 884 572 c 2
 886 572 888 583 893 597 c 0
 902 614 908 634 915 645 c 0
EndSplineSet
Validated: 33
EndChar

StartChar: u1D54F
Encoding: 88 120143 24
Width: 722
GlyphClass: 2
Flags: MW
HStem: -1 36<28 44 29.5 44 113 175 228.5 244.5 495 539 539 559 559 586 679 693.5> 648 35<147 335 184 237 315 324 504 504 504 566>
VStem: 164 35<70 83 83 83> 237 36<636 648 636 648> 459 37<46 52.5 41.5 56> 478 37<603 613.5>
LayerCount: 2
Fore
SplineSet
28 -1 m 1xf8
 22 3 16 6 16 15 c 0
 16 25 24 35 35 35 c 0
 53 35 79 52 117 88 c 0
 135 108 257 241 304 297 c 0
 306 301 304 308 255 377 c 0
 166 512 101 603 79 626 c 0
 68 639 50 648 39 648 c 0
 29 648 22 657 22 666 c 0
 22 671 24 675 28 679 c 0
 33 683 35 683 184 683 c 2
 335 683 l 1
 341 679 l 2
 348 670 348 661 341 655 c 0
 337 650 333 648 315 648 c 0
 297 646 277 641 273 637 c 0
 273 635 290 597 313 561 c 0
 333 528 384 448 386 448 c 0
 393 457 466 555 468 563 c 0
 475 575 478 589 478 601 c 0xf4
 478 626 465 648 444 648 c 0
 433 648 428 655 428 666 c 0
 428 672 428 677 433 679 c 0
 437 683 444 683 559 683 c 0
 675 683 681 683 686 679 c 0
 690 677 690 672 690 666 c 0
 690 655 686 648 673 648 c 0
 659 648 637 643 619 637 c 0
 588 623 550 590 517 550 c 0
 481 506 410 412 410 408 c 0
 415 399 573 166 617 106 c 0
 659 46 670 35 688 35 c 0
 699 35 705 26 705 16 c 0
 705 7 701 3 695 -1 c 1
 539 -1 l 2
 386 -1 384 -1 379 3 c 0
 375 8 373 10 373 17 c 0
 373 30 379 35 408 35 c 0
 428 37 459 43 459 49 c 0
 459 63 388 182 335 259 c 0
 334 260 333 260 332 260 c 0
 328 260 319 250 273 197 c 0
 237 157 210 126 208 117 c 0
 202 108 199 94 199 82 c 0
 199 55 218 35 239 35 c 0
 250 35 257 25 257 15 c 0
 257 11 255 7 253 3 c 2
 246 -1 l 1
 28 -1 l 1xf8
237 639 m 2
 237 648 l 1
 173 648 l 2
 121 648 110 648 113 646 c 0
 113 643 124 628 137 612 c 0
 199 528 404 223 453 139 c 0
 480 92 496 62 496 43 c 0xf8
 496 40 496 37 495 35 c 1
 559 35 l 2
 613 35 622 35 622 37 c 2
 622 37 622 38 621 39 c 0
 619 41 608 57 595 75 c 0
 541 148 346 439 297 519 c 0
 255 586 237 623 237 639 c 2
553 637 m 2
 566 648 l 1
 504 648 l 1
 508 637 l 2
 510 630 513 621 515 615 c 2
 515 603 l 1xf4
 528 615 l 2
 535 621 546 632 553 637 c 2
170 46 m 0
 168 52 166 63 164 70 c 2
 164 83 l 1
 137 59 l 1
 113 35 l 1
 175 35 l 1
 175 37 173 41 170 46 c 0
EndSplineSet
Validated: 33
EndChar

StartChar: u1D550
Encoding: 89 120144 25
Width: 722
GlyphClass: 2
Flags: MW
HStem: -1 36<205 231.5 301 415 485 511.5 195 231.5> 648 35<30.5 47 101 101 101 219 275 290.5 498.5 504 575 575 575 624>
VStem: 219 36<640 641 640 648 640 648> 277 36<166 261 261 261> 404 35<183 290 290 290>
LayerCount: 2
Fore
SplineSet
693 683 m 1
 699 679 704 675 704 667 c 0
 704 658 696 649 684 648 c 0
 675 646 670 643 653 623 c 0
 626 597 617 583 517 426 c 2
 439 301 l 1
 439 183 l 2
 441 99 441 63 444 59 c 0
 448 41 466 35 504 35 c 0
 519 35 521 35 528 30 c 0
 535 21 535 12 528 3 c 1
 521 -1 l 1
 195 -1 l 1
 188 3 l 1
 181 12 181 21 188 30 c 0
 195 35 197 35 213 35 c 0
 250 35 268 41 273 59 c 0
 275 63 275 97 277 163 c 2
 277 261 l 1
 75 621 l 2
 61 643 57 648 37 648 c 0
 24 648 16 657 16 667 c 0
 16 671 18 675 21 679 c 2
 28 683 l 1
 295 683 l 1
 301 679 l 2
 304 675 306 670 306 666 c 0
 306 655 297 648 284 648 c 0
 266 648 257 646 255 641 c 0
 255 639 255 635 257 630 c 0
 258 629 413 339 421 339 c 0
 424 339 556 554 557 557 c 0
 559 563 560 572 560 582 c 0
 560 592 559 602 557 608 c 0
 546 630 528 643 504 648 c 0
 493 648 488 650 486 655 c 0
 479 661 481 672 486 679 c 2
 493 683 l 1
 693 683 l 1
219 637 m 2
 219 648 l 1
 101 648 l 1
 110 635 l 1
 313 270 l 1
 313 166 l 2
 310 63 310 59 306 48 c 2
 301 35 l 1
 415 35 l 1
 410 48 l 2
 406 59 404 63 404 175 c 2
 404 290 l 1
 317 443 l 2
 270 528 228 606 226 612 c 0
 221 621 219 632 219 637 c 2
608 630 m 1
 624 648 l 1
 575 648 l 1
 579 640 585 634 588 623 c 2
 595 610 l 1
 608 630 l 1
EndSplineSet
Validated: 1
EndChar

StartChar: uni2124
Encoding: 90 8484 26
Width: 667
GlyphClass: 2
Flags: MW
HStem: -1 36<128 179 279 317> 648 35<341 364 364 410 479.5 518>
VStem: 29 48<9 37> 81 31<632 675> 597 38
LayerCount: 2
Fore
SplineSet
39 -1 m 2
 36 2 29 6 29 12 c 0
 29 28 61 80 219 337 c 2
 410 648 l 1
 364 648 l 2
 292 648 248 643 210 628 c 0
 152 606 110 566 99 517 c 0
 94 492 93 489 81 489 c 0
 70 489 67 495 61 503 c 1
 70 588 l 2
 75 632 81 672 81 675 c 0
 84 677 86 679 88 681 c 0
 90 683 177 683 341 683 c 2
 592 683 l 1
 597 679 604 673 604 666 c 0
 604 661 530 541 412 348 c 2
 221 37 l 2
 221 35 257 35 301 35 c 0
 392 35 412 37 446 48 c 0
 524 75 579 135 597 212 c 0
 601 232 606 239 617 239 c 0
 626 239 635 230 635 223 c 0
 635 212 606 12 604 8 c 0
 601 6 599 3 597 1 c 0
 595 -1 501 -1 317 -1 c 2
 39 -1 l 2
148 637 m 2
 166 648 l 1
 112 648 l 1
 112 632 l 2
 110 626 110 615 108 612 c 0
 108 606 108 606 119 615 c 0
 126 621 137 630 148 637 c 2
552 646 m 2
 552 648 532 648 504 648 c 0
 455 648 452 648 450 643 c 0
 448 639 86 50 77 37 c 0
 77 35 99 35 128 35 c 2
 179 35 l 1
 366 339 l 1
 552 646 l 2
572 35 m 1
 572 36 581 94 581 97 c 1
 561 77 l 2
 552 68 537 55 526 48 c 2
 508 37 l 1
 539 35 l 1
 572 35 l 1
EndSplineSet
Validated: 1
EndChar

StartChar: u1D55C
Encoding: 107 120156 27
Width: 556
GlyphClass: 2
Flags: MW
HStem: -1 36<30.5 40.5 114.5 151 224.5 235.5 28 40.5 310.5 317 370 417 417 435 513.5 522.5> 426 35<316 326.5 385 398.5 497 503> 648 35<29.5 40.5 111 126 126 163 163 166>
VStem: 61 29 63 36<275 407> 166 35<461 648 648 648> 176 25 340 37<396 410>
LayerCount: 2
Fore
SplineSet
519 443 m 0xe5
 519 432 509 426 497 426 c 0
 470 423 428 395 361 335 c 0
 339 317 319 299 315 295 c 0
 308 290 308 288 310 286 c 0
 326 266 446 112 466 88 c 0
 501 43 510 35 517 35 c 0
 528 35 534 26 534 16 c 0
 534 7 530 3 524 -1 c 1
 304 -1 l 1
 297 3 l 1
 293 10 290 21 297 28 c 0
 299 32 304 35 317 35 c 0
 324 37 333 37 333 39 c 1
 335 39 333 43 330 50 c 0
 326 61 219 197 215 199 c 0
 213 201 210 201 206 199 c 0
 201 195 201 192 201 137 c 0
 201 103 201 77 204 70 c 0
 208 48 219 35 230 35 c 0
 241 35 248 25 248 15 c 0
 248 11 247 7 244 3 c 2
 237 -1 l 1
 28 -1 l 1
 21 3 l 2
 19 8 17 12 17 17 c 0
 17 26 26 35 35 35 c 0
 46 35 57 48 61 70 c 0xf5
 63 78 63 209 63 341 c 0xe9
 63 473 63 604 61 612 c 0
 57 635 46 648 35 648 c 0
 24 648 17 658 17 668 c 0
 17 676 22 680 28 683 c 2
 108 683 l 1
 163 683 l 2
 193 683 190 682 201 675 c 1xf3
 201 461 l 1
 204 246 l 1
 244 281 l 2
 330 361 335 363 339 386 c 0
 340 390 340 394 340 398 c 0
 340 414 332 426 321 426 c 0
 311 426 304 435 304 445 c 0
 304 454 309 457 315 461 c 1
 508 461 l 1
 514 455 519 450 519 443 c 0xe5
166 359 m 2
 166 648 l 1
 126 648 l 2
 96 648 89 648 89 645 c 0
 89 644 90 644 90 643 c 0xf5
 90 641 93 635 95 626 c 0
 99 612 99 595 99 341 c 0xe9
 99 88 99 70 95 57 c 0
 93 48 90 41 90 39 c 0
 90 38 89 37 89 37 c 2
 89 35 96 35 133 35 c 0
 169 35 176 35 176 37 c 2xf3
 176 37 175 38 175 39 c 0
 175 41 173 48 170 57 c 0
 166 70 166 90 166 359 c 2
410 423 m 0
 413 426 404 426 393 426 c 0
 377 426 373 426 373 423 c 0
 375 421 375 415 377 410 c 0
 377 403 377 399 379 399 c 2
 379 399 406 419 410 423 c 0
460 37 m 0
 460 41 417 92 368 152 c 2
 281 263 l 2
 279 263 270 255 259 246 c 2
 239 228 l 1
 271 190 332 111 355 79 c 0
 364 68 370 50 370 41 c 2
 370 35 l 1
 417 35 l 2
 453 35 460 35 460 37 c 0
EndSplineSet
Validated: 1
EndChar

StartChar: yen
Encoding: 165 165 28
Width: 750
GlyphClass: 2
Flags: MW
HStem: 0 46<224 235 224 257 515 525 515 515> 213 29<202 327 202 327 422 547 547 603.5> 407 29<91 183.5 119 183.5 119 247 403 416 576 589> 637 46<11 20 11 31 11 20 288 298 508 516 731 738>
VStem: 327 95<137 139 139 213 103.5 213 242 273>
LayerCount: 2
Fore
SplineSet
515 0 m 2
 499 3 403 3 374 3 c 0
 345 3 251 3 235 0 c 2
 224 0 l 1
 224 46 l 1
 257 46 l 2
 308 47 317 49 324 58 c 0
 326 61 327 62 327 137 c 2
 327 213 l 1
 133 213 l 2
 63 213 70 214 67 220 c 0
 63 227 66 237 73 240 c 0
 76 242 89 242 202 242 c 2
 327 242 l 1
 327 273 l 1
 247 407 l 1
 115 407 l 2
 67 407 70 408 67 414 c 0
 63 421 66 431 73 434 c 0
 76 436 85 436 153 436 c 0
 214 436 228 436 228 437 c 0
 226 442 118 619 115 623 c 0
 110 628 102 632 93 634 c 0
 84 635 56 637 31 637 c 2
 11 637 l 1
 11 683 l 1
 20 683 l 2
 43 682 99 681 153 681 c 2
 211 681 l 2
 245 681 279 681 288 683 c 2
 298 683 l 1
 298 637 l 1
 280 637 l 2
 252 636 239 633 233 626 c 0
 231 624 230 622 230 621 c 0
 230 619 239 603 250 584 c 0
 262 566 286 525 305 494 c 2
 340 437 l 1
 403 436 l 1
 467 436 l 1
 513 514 l 2
 539 556 561 593 562 596 c 0
 563 599 564 602 564 605 c 0
 564 625 539 635 517 637 c 2
 508 637 l 1
 508 683 l 1
 516 683 l 2
 528 681 611 680 633 680 c 0
 654 680 719 680 731 683 c 2
 738 683 l 1
 738 637 l 1
 723 637 l 2
 671 634 635 620 617 595 c 0
 612 589 521 438 521 437 c 0
 521 436 555 436 597 436 c 0
 664 436 673 436 676 434 c 0
 683 431 686 421 682 414 c 0
 678 407 685 408 589 407 c 2
 503 407 l 1
 422 273 l 1
 422 242 l 1
 547 242 l 2
 660 242 673 242 676 240 c 0
 683 237 686 227 682 220 c 0
 679 214 686 213 616 213 c 2
 422 213 l 1
 422 139 l 2
 422 68 422 64 424 60 c 0
 426 55 433 51 441 49 c 0
 451 47 479 46 503 46 c 2
 525 46 l 1
 525 0 l 1
 515 0 l 2
449 406 m 0
 449 407 429 407 403 407 c 0
 377 407 358 407 358 406 c 0
 359 405 403 331 404 331 c 2
 404 331 447 404 449 406 c 0
EndSplineSet
Validated: 1
EndChar

StartChar: registered
Encoding: 174 174 29
Width: 947
GlyphClass: 2
Flags: MW
HStem: -175 40<466 482 466 586.5> -14 37<673 683.5> 0 40<204 212 204 218 424 432 424 424> 239 37<360 413 360 416> 474 40<204 218 204 335> 669 40<452 465 448 474>
VStem: 32 40<266 285 252 287 252 297.5> 276 84<148 239 148 276 276 366> 561 100<371 388 371 409.5> 720 40 875 40<266 285 285 287 247.5 295>
LayerCount: 2
Fore
SplineSet
397 703 m 0x9fe0
 418 708 440 709 464 709 c 0
 484 709 513 709 522 708 c 0
 684 688 807 589 870 464 c 0
 890 424 903 385 910 342 c 0
 914 320 915 308 915 287 c 2
 915 266 l 2
 915 229 915 220 909 190 c 0
 875 -9 699 -175 474 -175 c 0
 364 -175 258 -135 175 -60 c 0
 104 4 54 95 38 190 c 0
 32 220 32 229 32 266 c 2
 32 287 l 2
 32 308 33 320 37 342 c 0
 50 415 81 486 129 545 c 0
 195 628 293 686 397 703 c 0x9fe0
519 668 m 0
 510 669 483 669 465 669 c 2
 448 669 l 1
 390 664 346 653 299 630 c 0
 182 574 98 463 77 336 c 0
 73 317 72 305 72 285 c 2
 72 266 l 2
 72 238 72 231 74 217 c 0
 97 33 243 -111 428 -133 c 0
 440 -135 458 -135 474 -135 c 0
 490 -135 507 -135 519 -133 c 0
 596 -124 664 -96 727 -46 c 0
 741 -34 770 -5 784 11 c 0
 833 71 863 138 873 217 c 0
 875 231 875 238 875 266 c 2
 875 285 l 2
 875 305 874 317 870 336 c 0
 859 403 831 465 788 518 c 0
 721 603 627 655 519 668 c 0
424 0 m 2xbfe0
 413 3 339 3 318 3 c 0
 296 3 223 3 212 0 c 2
 204 0 l 1
 204 40 l 1
 218 40 l 2xbfe0
 226 40 237 40 243 41 c 0
 267 43 269 46 276 58 c 1
 276 457 l 1
 268 468 267 471 243 473 c 0
 237 474 226 474 218 474 c 2
 204 474 l 1
 204 514 l 1
 335 514 l 2
 464 514 477 514 499 510 c 0
 560 502 615 472 642 434 c 0
 654 417 661 401 661 375 c 0
 661 367 661 359 659 353 c 0
 648 310 602 274 556 257 c 0
 551 255 547 253 547 253 c 1
 547 253 552 249 559 245 c 0
 604 215 612 187 626 124 c 0
 636 76 643 23 683 23 c 0
 703 23 717 40 720 68 c 0
 721 82 724 84 740 84 c 0
 756 84 760 82 760 70 c 0
 760 36 741 5 715 -7 c 0
 702 -13 694 -14 673 -14 c 0xdfe0
 663 -13 652 -13 647 -12 c 0
 584 -4 546 22 534 67 c 0
 529 83 533 158 528 180 c 0
 521 207 501 227 472 236 c 0
 466 238 464 238 413 239 c 2
 360 239 l 1
 360 148 l 1
 361 58 l 1
 366 45 370 43 393 41 c 0
 399 40 410 40 418 40 c 2
 432 40 l 1
 432 0 l 1
 424 0 l 2xbfe0
561 375 m 0
 561 444 537 461 482 472 c 0
 475 473 463 473 427 474 c 0
 401 474 378 473 376 473 c 0
 367 471 363 468 361 460 c 0
 360 458 360 417 360 366 c 2
 360 276 l 1
 416 276 l 2
 475 277 480 277 500 282 c 0
 516 286 532 295 542 305 c 0
 555 318 561 339 561 375 c 0
EndSplineSet
Validated: 1
EndChar

StartChar: eth
Encoding: 240 240 30
Width: 556
GlyphClass: 2
Flags: MW
HStem: -21 60<256.5 290.5> 419 55<254 273> 615 134<448.5 451.5 443.5 461> 657 60<117.5 124>
VStem: 42 120<211.5 218 218 241.5> 75 56<506 611.5 588 593.5> 388 121<206 358.5> 422 56<661 681>
LayerCount: 2
Fore
SplineSet
478 621 m 1xe5
 472 617 466 615 456 615 c 0
 441 615 432 618 424 624 c 1
 422 661 l 1
 422 699 l 1xe5
 382 675 l 2
 362 659 344 648 344 648 c 1
 344 648 353 639 366 630 c 0
 393 608 431 570 449 544 c 0
 475 504 495 459 504 413 c 0
 509 393 509 384 509 333 c 0
 509 290 509 266 506 246 c 0
 486 99 429 15 329 -16 c 0
 311 -21 306 -21 275 -21 c 0
 238 -21 226 -21 195 -10 c 0
 135 13 75 77 53 141 c 0
 46 165 42 196 42 227 c 0xea
 42 256 46 285 53 310 c 0
 69 368 111 424 160 453 c 0
 185 467 215 474 245 474 c 0
 302 474 353 446 380 415 c 0
 384 408 389 406 389 408 c 0
 389 415 382 457 378 475 c 0
 366 510 351 541 326 570 c 0
 313 586 284 608 282 606 c 0
 280 606 244 581 204 555 c 0
 162 528 124 504 120 501 c 0
 116 500 109 500 102 500 c 0
 95 500 88 500 82 501 c 2
 75 506 l 1
 75 566 l 2
 75 621 75 628 80 630 c 0
 82 633 89 635 102 635 c 0
 131 635 131 635 131 588 c 2
 133 550 l 1
 191 588 l 1
 249 628 l 1
 231 635 l 2
 200 646 164 655 124 657 c 0
 111 657 98 659 95 659 c 0
 94 661 94 674 94 687 c 0
 94 700 94 713 95 715 c 0
 97 716 104 717 113 717 c 0xd4
 172 717 234 701 282 679 c 2
 309 668 l 1
 331 681 l 2
 342 690 369 708 391 721 c 0
 413 737 433 748 435 748 c 0
 437 749 441 749 446 749 c 0
 457 749 472 747 473 746 c 0
 478 744 478 735 478 681 c 2
 478 621 l 1xe5
388 225 m 0xca
 388 316 366 386 309 410 c 0
 298 417 291 417 273 419 c 0
 235 419 211 413 191 390 c 0
 169 366 164 350 162 255 c 2
 162 218 l 2
 162 136 168 103 184 79 c 0
 202 53 233 39 273 39 c 0
 326 39 371 75 380 121 c 0
 385 145 388 187 388 225 c 0xca
EndSplineSet
Validated: 33
EndChar

StartChar: hbar
Encoding: 295 295 31
Width: 540
GlyphClass: 2
Flags: MW
HStem: -13 57<395 431.5> 386 55<337.5 360> 535 57<138 138 138 146.5 324.5 399> 619 69 675 20G<284 292>
VStem: 42 96 166 67 318 94<53 86> 386 99<318.5 341 313.5 352.5>
LayerCount: 2
Fore
SplineSet
42 26 m 0xee80
 42 36 166 530 166 530 c 2
 166 535 164 535 129 535 c 0
 95 535 91 535 86 539 c 0
 78 545 74 553 74 562 c 0
 74 567 75 572 78 577 c 0
 86 590 89 590 138 592 c 2
 182 595 l 1
 182 599 l 2
 182 610 180 615 164 617 c 0
 155 619 142 619 133 619 c 0
 113 619 109 621 109 630 c 0
 109 639 120 677 122 681 c 0
 124 684 146 686 202 688 c 0xf680
 242 692 282 695 286 695 c 0
 298 695 304 690 304 684 c 0
 304 681 286 608 282 597 c 0
 282 592 289 592 360 592 c 0
 438 592 440 590 446 586 c 0
 455 580 460 572 460 563 c 0
 460 556 457 548 451 541 c 2
 442 535 l 1
 266 535 l 1
 251 468 l 2
 242 432 233 401 233 399 c 0
 233 395 235 397 244 404 c 0
 277 428 316 441 357 441 c 0
 418 441 463 414 478 375 c 0
 482 362 485 349 485 333 c 0xee80
 485 294 470 240 435 141 c 0
 418 94 412 70 412 58 c 0
 412 48 417 44 426 44 c 0
 437 44 453 52 466 68 c 0
 482 84 491 104 500 130 c 2
 509 152 l 1
 531 152 l 1
 550 152 l 2
 559 152 562 151 562 144 c 0
 562 138 559 127 551 108 c 0
 526 46 486 4 438 -10 c 0
 430 -12 423 -13 415 -13 c 0
 375 -13 335 10 322 44 c 0
 318 52 318 59 318 77 c 0xef
 318 95 318 97 335 148 c 0
 369 240 386 300 386 337 c 0
 386 368 374 386 346 386 c 0
 329 386 306 380 286 370 c 0
 262 359 226 324 211 292 c 0
 206 286 193 237 173 157 c 0
 155 88 140 28 138 21 c 0
 135 17 129 8 122 4 c 0
 110 -7 96 -12 83 -12 c 0
 61 -12 42 2 42 26 c 0xee80
EndSplineSet
Validated: 1
EndChar

StartChar: circumflex
Encoding: 710 710 32
Width: 2333
GlyphClass: 2
Flags: MW
HStem: 561 69<2329.5 2340.5> 561 76 748 97<1165 1166 1163 1168>
LayerCount: 2
Fore
SplineSet
2338 630 m 2xa0
 2343 630 2346 624 2346 618 c 0
 2346 614 2345 610 2343 599 c 0
 2338 570 2336 563 2332 561 c 0xa0
 2327 561 2067 603 1749 654 c 0
 1432 705 1169 748 1167 748 c 0
 1163 748 901 705 583 654 c 0
 265 603 5 561 1 561 c 0
 -4 563 -6 570 -11 599 c 0
 -13 607 -14 614 -14 618 c 0
 -14 630 -4 630 36 637 c 0x60
 61 641 325 690 621 745 c 0
 916 801 1161 845 1165 845 c 0
 1167 845 1432 797 1752 739 c 2
 2338 630 l 2xa0
EndSplineSet
Validated: 1
EndChar

StartChar: tilde
Encoding: 732 732 33
Width: 2333
GlyphClass: 2
Flags: MW
HStem: 629 110<1472 1612> 788 110<719 848>
LayerCount: 2
Fore
SplineSet
784 897 m 0
 792 898 808 898 826 898 c 0
 870 898 929 896 947 895 c 0
 1031 884 1078 868 1187 819 c 0
 1313 764 1369 748 1478 741 c 0
 1494 740 1510 739 1527 739 c 0
 1697 739 1950 789 2267 886 c 0
 2291 892 2311 899 2313 899 c 0
 2316 899 2320 897 2320 895 c 0
 2324 888 2331 830 2329 824 c 0
 2329 817 2309 804 2296 795 c 0
 2282 790 2173 757 2089 732 c 0
 1893 679 1736 648 1598 632 c 0
 1574 630 1532 629 1492 629 c 0
 1452 629 1414 630 1396 632 c 0
 1304 644 1256 657 1144 708 c 0
 1018 764 962 779 853 786 c 0
 837 787 821 788 804 788 c 0
 634 788 381 738 64 641 c 0
 40 635 20 628 18 628 c 0
 16 628 11 630 11 632 c 0
 7 639 0 697 2 704 c 0
 2 710 22 724 36 732 c 0
 49 737 158 770 242 795 c 0
 462 855 636 888 784 897 c 0
EndSplineSet
Validated: 33
EndChar

StartChar: uni0302
Encoding: 770 770 34
Width: 0
GlyphClass: 2
Flags: MW
HStem: 561 69<-3.5 7.5> 561 76 748 97<-1168 -1167 -1170 -1165>
LayerCount: 2
Fore
SplineSet
5 630 m 2xa0
 10 630 13 624 13 618 c 0
 13 614 12 610 10 599 c 0
 5 570 3 563 -1 561 c 0xa0
 -6 561 -266 603 -584 654 c 0
 -901 705 -1164 748 -1166 748 c 0
 -1170 748 -1432 705 -1750 654 c 0
 -2068 603 -2328 561 -2332 561 c 0
 -2337 563 -2339 570 -2344 599 c 0
 -2346 607 -2347 614 -2347 618 c 0
 -2347 630 -2337 630 -2297 637 c 0x60
 -2272 641 -2008 690 -1712 745 c 0
 -1417 801 -1172 845 -1168 845 c 0
 -1166 845 -901 797 -581 739 c 2
 5 630 l 2xa0
EndSplineSet
Validated: 1
EndChar

StartChar: tildecomb
Encoding: 771 771 35
Width: 0
GlyphClass: 2
Flags: MW
HStem: 629 110<-861 -721> 788 110<-1614 -1485>
LayerCount: 2
Fore
SplineSet
-1549 897 m 0
 -1541 898 -1525 898 -1507 898 c 0
 -1463 898 -1404 896 -1386 895 c 0
 -1302 884 -1255 868 -1146 819 c 0
 -1020 764 -964 748 -855 741 c 0
 -839 740 -823 739 -806 739 c 0
 -636 739 -383 789 -66 886 c 0
 -42 892 -22 899 -20 899 c 0
 -17 899 -13 897 -13 895 c 0
 -9 888 -2 830 -4 824 c 0
 -4 817 -24 804 -37 795 c 0
 -51 790 -160 757 -244 732 c 0
 -440 679 -597 648 -735 632 c 0
 -759 630 -801 629 -841 629 c 0
 -881 629 -919 630 -937 632 c 0
 -1029 644 -1077 657 -1189 708 c 0
 -1315 764 -1371 779 -1480 786 c 0
 -1496 787 -1512 788 -1529 788 c 0
 -1699 788 -1952 738 -2269 641 c 0
 -2293 635 -2313 628 -2315 628 c 0
 -2317 628 -2322 630 -2322 632 c 0
 -2326 639 -2333 697 -2331 704 c 0
 -2331 710 -2311 724 -2297 732 c 0
 -2284 737 -2175 770 -2091 795 c 0
 -1871 855 -1697 888 -1549 897 c 0
EndSplineSet
Validated: 33
EndChar

StartChar: uni03DD
Encoding: 989 989 36
Width: 778
GlyphClass: 2
Flags: MW
HStem: 250 20<321 348> 585 20<415 477 415 513>
LayerCount: 2
Fore
SplineSet
351 270 m 0
 463 270 455 268 477 261 c 0
 477 258 473 256 468 254 c 0
 462 252 448 250 348 250 c 2
 235 250 l 1
 155 -77 l 1
 146 -82 l 2
 140 -84 125 -85 109 -85 c 0
 83 -85 55 -83 55 -77 c 2
 139 261 l 2
 206 525 224 596 226 598 c 0
 228 601 235 603 239 603 c 0
 246 603 353 605 477 605 c 0
 713 603 719 603 719 596 c 0
 719 587 711 587 513 585 c 2
 319 585 l 1
 282 427 l 2
 259 343 242 272 242 272 c 2
 242 270 291 270 351 270 c 0
EndSplineSet
Validated: 1
EndChar

StartChar: uni03F0
Encoding: 1008 1008 37
Width: 667
GlyphClass: 2
Flags: MW
HStem: 3 102<505 506 505 536> 325 100<233.5 240.5>
LayerCount: 2
Fore
SplineSet
691 434 m 0
 711 434 734 426 734 406 c 0
 734 398 729 390 719 381 c 0
 715 376 681 354 644 330 c 2
 575 287 l 1
 566 267 l 1
 550 243 537 212 526 176 c 0
 513 141 504 105 506 105 c 1
 506 103 517 103 533 103 c 0
 566 103 606 107 617 114 c 0
 621 118 628 118 641 118 c 0
 661 118 670 115 670 107 c 0
 670 102 667 95 661 85 c 0
 637 38 568 3 504 3 c 0
 475 3 461 12 450 36 c 0
 444 46 441 59 441 73 c 0
 441 81 442 88 444 96 c 0
 448 121 466 172 484 205 c 0
 490 223 497 236 497 236 c 1
 324 125 l 2
 228 65 144 12 135 10 c 0
 117 1 90 -6 77 -6 c 0
 55 -6 37 7 37 21 c 0
 37 41 39 43 124 96 c 2
 195 141 l 1
 204 156 l 2
 210 165 219 183 224 196 c 0
 241 236 268 318 264 323 c 0
 264 325 253 325 228 325 c 0
 186 323 164 321 153 314 c 0
 149 310 137 309 127 309 c 0
 117 309 107 310 104 314 c 0
 97 321 97 321 108 341 c 0
 130 387 199 425 268 425 c 0
 297 425 309 415 319 396 c 0
 326 381 328 378 328 358 c 0
 328 341 328 332 324 314 c 0
 315 283 304 256 286 221 c 0
 277 201 274 194 274 192 c 1
 275 192 l 1
 366 252 628 416 639 421 c 0
 656 428 670 434 691 434 c 0
EndSplineSet
Validated: 33
EndChar

StartChar: uni2035
Encoding: 8245 8245 38
Width: 275
GlyphClass: 2
Flags: MW
VStem: 190 54
LayerCount: 2
Fore
SplineSet
63 558 m 0
 68 559 72 560 77 560 c 0
 99 560 119 548 128 528 c 0
 136 513 244 69 244 61 c 0
 244 57 239 55 218 48 c 0
 205 44 199 43 195 43 c 0
 193 43 192 43 190 45 c 0
 188 47 16 476 14 486 c 0
 13 491 12 496 12 501 c 0
 12 523 25 542 46 552 c 0
 51 555 59 558 63 558 c 0
EndSplineSet
Validated: 1
EndChar

StartChar: uni210F
Encoding: 8463 8463 39
Width: 540
GlyphClass: 2
Flags: MW
HStem: -13 57<395 431.5> 386 55<337.5 360> 457 69 586 49 617 71 675 20G<284 292>
VStem: 42 96 318 94<53 86> 386 99<318.5 341 313.5 352.5>
LayerCount: 2
Fore
SplineSet
150 475 m 2xf680
 143 475 88 457 82 457 c 0
 70 457 54 473 54 487 c 0
 54 489 54 490 55 492 c 0
 58 497 60 504 64 506 c 0
 66 510 86 517 118 526 c 0
 144 535 166 544 169 546 c 2
 169 546 173 559 175 575 c 0
 179 589 181 598 181 604 c 0
 181 612 177 614 166 617 c 0
 160 617 146 619 135 619 c 0
 113 619 109 621 109 630 c 0
 109 639 120 677 122 681 c 0
 124 684 146 686 202 688 c 0xea80
 242 692 282 695 286 695 c 0
 298 695 304 690 304 684 c 0
 304 681 298 657 291 628 c 2
 278 577 l 1
 314 588 350 600 386 612 c 0
 442 628 465 635 476 635 c 0
 490 635 499 621 499 607 c 0
 499 599 496 591 489 586 c 0
 486 584 433 566 373 546 c 2
 262 512 l 2
 262 510 233 399 233 397 c 0
 233 395 238 399 244 404 c 0
 277 428 316 441 357 441 c 0
 418 441 463 414 478 375 c 0
 482 362 485 349 485 333 c 0xf680
 485 294 470 240 435 141 c 0
 418 94 412 70 412 58 c 0
 412 48 417 44 426 44 c 0
 437 44 453 52 466 68 c 0
 482 84 491 104 500 130 c 2
 509 152 l 1
 531 152 l 1
 550 152 l 2
 559 152 562 151 562 144 c 0
 562 138 559 127 551 108 c 0
 526 46 486 4 438 -10 c 0
 430 -12 423 -13 415 -13 c 0
 375 -13 335 10 322 44 c 0
 318 52 318 59 318 77 c 0xf7
 318 95 318 97 335 148 c 0
 369 240 386 300 386 337 c 0
 386 368 374 386 346 386 c 0
 329 386 306 380 286 370 c 0
 262 359 226 324 211 292 c 0
 206 286 193 237 173 157 c 0
 155 88 140 28 138 21 c 0
 135 17 129 8 122 4 c 0
 110 -7 96 -12 83 -12 c 0
 61 -12 42 2 42 26 c 0
 42 32 62 121 98 257 c 2
 151 475 l 1
 150 475 l 2xf680
EndSplineSet
Validated: 1
EndChar

StartChar: uni2127
Encoding: 8487 8487 40
Width: 722
GlyphClass: 2
Flags: MW
HStem: -22 55<347.5 372.5> 588 96<168 206 168 168 513 551 513 513>
VStem: 56 130<218.5 238> 533 130<221 240.5 221 264>
LayerCount: 2
Fore
SplineSet
360 33 m 0
 475 33 533 115 533 231 c 0
 533 297 522 336 488 444 c 0
 457 548 446 597 442 648 c 0
 442 673 442 675 446 679 c 0
 448 684 453 684 542 684 c 0
 620 684 635 684 637 681 c 0
 642 677 675 510 675 501 c 0
 675 493 668 490 646 490 c 0
 635 490 624 490 622 493 c 0
 620 493 615 510 611 528 c 0
 602 573 597 584 593 584 c 0
 588 586 571 586 551 588 c 2
 513 588 l 1
 515 584 l 1
 522 559 542 519 582 453 c 0
 631 368 651 321 660 277 c 0
 662 265 663 249 663 232 c 0
 663 210 661 188 657 177 c 0
 653 155 637 124 624 104 c 0
 585 44 504 -4 424 -19 c 0
 410 -21 385 -22 360 -22 c 0
 335 -22 311 -21 297 -19 c 0
 213 -3 135 44 95 104 c 0
 82 124 66 155 62 177 c 0
 58 188 56 208 56 229 c 0
 56 247 58 265 60 277 c 0
 68 321 88 368 137 453 c 0
 177 519 197 559 204 584 c 1
 206 588 l 1
 168 588 l 2
 148 586 131 586 126 584 c 0
 122 584 117 573 108 528 c 0
 104 510 100 493 97 493 c 0
 95 490 84 490 73 490 c 0
 51 490 44 493 44 501 c 0
 44 504 51 544 62 590 c 0
 71 646 80 677 82 679 c 0
 84 684 93 684 177 684 c 0
 262 684 271 684 275 679 c 0
 277 677 277 673 277 648 c 0
 273 597 264 548 231 444 c 0
 198 336 186 297 186 231 c 0
 186 115 245 33 360 33 c 0
EndSplineSet
Validated: 1
EndChar

StartChar: uni2132
Encoding: 8498 8498 41
Width: 556
GlyphClass: 2
Flags: MW
HStem: -1 40<68 457 68 484 68 457> 328 40<217 457 217 457 215 457> 675 20G<473.5 481>
VStem: 457 40<39 328 328 328 368 681 12 681>
LayerCount: 2
Fore
SplineSet
457 681 m 1
 462 686 470 695 477 695 c 0
 485 695 492 687 497 681 c 1
 497 12 l 1
 484 -1 l 1
 68 -1 l 1
 64 4 55 12 55 19 c 0
 55 26 64 34 68 39 c 1
 457 39 l 1
 457 328 l 1
 215 328 l 1
 211 335 l 2
 202 343 202 350 211 359 c 2
 217 368 l 1
 457 368 l 1
 457 681 l 1
EndSplineSet
Validated: 1
EndChar

StartChar: uni2136
Encoding: 8502 8502 42
Width: 667
GlyphClass: 2
Flags: MW
HStem: -21 158<-9 569 107 558> 563 152<340 340 340 545 329 340>
VStem: 569 40<137 339 339 422.5>
LayerCount: 2
Fore
SplineSet
-9 -21 m 1
 -14 -15 -22 -10 -22 -1 c 0
 -22 6 -18 10 42 72 c 2
 107 137 l 1
 569 137 l 1
 569 339 l 2
 569 506 569 541 567 546 c 0
 565 548 558 555 554 557 c 2
 545 563 l 1
 329 563 l 2
 80 566 100 563 78 586 c 0
 61 603 54 620 54 661 c 0
 54 673 55 688 56 706 c 0
 56 748 56 750 62 757 c 0
 67 761 69 763 76 763 c 0
 85 763 89 759 98 741 c 0
 105 730 107 726 116 721 c 2
 127 717 l 1
 340 715 l 2
 585 712 565 715 587 692 c 0
 598 681 600 677 605 663 c 2
 609 650 l 1
 609 137 l 1
 676 137 l 1
 681 131 687 125 687 115 c 0
 687 108 682 103 622 43 c 2
 558 -21 l 1
 -9 -21 l 1
EndSplineSet
Validated: 1
EndChar

StartChar: uni2137
Encoding: 8503 8503 43
Width: 444
GlyphClass: 2
Flags: MW
HStem: -21 158<107 222 -9 311> 67 70<107 315.5> 564 151<201 211 211 283.5 201 311>
VStem: 56 365<630 750 630 750> 311 40<557 561.5 557 564 557 564> 311 91<97 564>
LayerCount: 2
Fore
SplineSet
56 750 m 1x70
 61 756 67 764 76 764 c 0
 84 764 93 757 96 746 c 0
 100 733 111 721 125 717 c 0
 131 715 162 715 240 715 c 0
 327 715 349 715 358 713 c 0
 394 701 421 681 421 640 c 0x70
 421 620 413 601 398 588 c 0
 387 579 371 568 358 566 c 0
 351 566 351 566 351 557 c 0x68
 354 553 354 539 356 526 c 0
 356 495 365 430 376 361 c 0
 400 215 402 175 402 97 c 0x64
 400 33 398 17 385 -12 c 0
 376 -27 360 -43 351 -43 c 0
 340 -43 334 -36 329 -10 c 0
 322 17 316 53 316 64 c 0
 316 66 316 67 315 67 c 0x68
 313 67 303 58 269 26 c 2
 222 -21 l 1
 -9 -21 l 1
 -14 -15 -22 -10 -22 -1 c 0
 -22 6 -18 10 42 73 c 2
 107 137 l 1xa8
 311 137 l 1x64
 311 564 l 1x68
 211 564 l 2
 114 564 111 566 100 570 c 0
 80 577 67 595 60 615 c 0
 56 630 56 635 56 690 c 2
 56 750 l 1x70
EndSplineSet
Validated: 1
EndChar

StartChar: uni2138
Encoding: 8504 8504 44
Width: 667
GlyphClass: 2
Flags: MW
HStem: 564 151<322 349 349 443 129 533 322 322>
VStem: 533 40<553 564 564 564> 533 91
LayerCount: 2
Fore
SplineSet
62 757 m 0xc0
 66 761 69 764 75 764 c 0
 84 764 89 759 97 741 c 0
 104 728 106 726 117 721 c 2
 129 715 l 1
 349 715 l 2
 537 715 569 715 580 710 c 0
 606 704 624 690 635 670 c 0
 640 661 640 657 640 639 c 0
 640 615 637 606 622 590 c 0
 615 581 593 568 580 566 c 2
 573 566 l 1
 573 553 l 2xc0
 575 546 575 533 577 521 c 0
 580 488 584 446 600 353 c 0
 622 212 624 193 624 104 c 0xa0
 624 26 615 -7 591 -32 c 0
 584 -40 579 -43 573 -43 c 0xc0
 569 -43 566 -41 562 -39 c 0
 555 -34 546 -5 540 44 c 0
 535 73 535 81 533 319 c 2xa0
 533 564 l 1
 322 564 l 2
 80 566 100 564 77 586 c 0
 60 603 54 620 54 663 c 0
 54 675 54 689 55 706 c 0
 55 748 55 750 62 757 c 0xc0
EndSplineSet
Validated: 1
EndChar

StartChar: uni2141
Encoding: 8513 8513 45
Width: 639
GlyphClass: 2
Flags: MW
HStem: -23 40<206 234 206 237> 270 40<77 235 77 77> 617 42<66 66> 665 40<239.5 247.5>
VStem: 37 40<67 103 103 270> 538 39<330 354>
LayerCount: 2
Fore
SplineSet
247 290 m 0
 247 283 239 275 235 270 c 1
 77 270 l 1
 77 103 l 2
 77 31 78 38 95 30 c 0
 113 24 146 19 206 17 c 0
 268 17 295 19 330 30 c 0
 433 64 508 155 533 275 c 0
 536 293 538 318 538 342 c 0
 538 366 536 390 533 408 c 0
 506 546 410 644 288 661 c 0
 272 664 256 665 239 665 c 0
 186 665 132 651 86 626 c 0
 77 621 68 617 66 617 c 0
 57 617 46 628 46 637 c 0
 46 646 50 653 66 659 c 0
 101 679 153 697 197 701 c 0
 213 704 231 705 248 705 c 0
 277 705 307 701 335 693 c 0
 364 686 408 661 435 644 c 0
 506 590 553 513 573 417 c 0
 577 393 577 384 577 341 c 0
 577 299 577 290 573 266 c 0
 546 148 479 57 384 10 c 0
 333 -16 301 -23 234 -23 c 2
 206 -23 l 2
 168 -21 137 -21 124 -19 c 0
 79 -10 55 1 44 24 c 2
 37 35 l 1
 37 297 l 1
 50 310 l 1
 235 310 l 1
 241 304 247 298 247 290 c 0
EndSplineSet
Validated: 1
EndChar

StartChar: arrowleft
Encoding: 8592 8592 46
Width: 500
GlyphClass: 2
Flags: MW
HStem: 225 50<211 306 211 306>
VStem: 205 87<83 83 417 417>
LayerCount: 2
Fore
SplineSet
205 417 m 0
 214 436 216 437 238 437 c 2
 252 437 l 2
 275 437 278 436 281 435 c 0
 288 431 292 425 292 418 c 0
 292 413 291 407 287 400 c 0
 273 364 248 321 223 291 c 0
 218 285 214 279 213 277 c 2
 211 275 l 1
 306 275 l 2
 413 275 407 275 415 268 c 0
 419 263 422 256 422 250 c 0
 422 244 419 237 415 232 c 0
 407 225 413 225 306 225 c 2
 211 225 l 1
 213 223 l 2
 214 221 218 215 223 209 c 0
 248 179 273 136 287 100 c 0
 291 93 292 87 292 82 c 0
 292 75 288 69 281 65 c 0
 278 64 275 64 250 64 c 0
 223 64 221 64 218 66 c 0
 212 69 210 70 205 83 c 0
 179 144 134 199 78 230 c 0
 66 237 64 240 64 250 c 0
 64 260 66 263 78 270 c 0
 134 301 179 356 205 417 c 0
EndSplineSet
Validated: 1
EndChar

StartChar: arrowright
Encoding: 8594 8594 47
Width: 500
GlyphClass: 2
Flags: MW
HStem: 225 50<120.5 269 174 269>
VStem: 188 87<82 82 417 417>
LayerCount: 2
Fore
SplineSet
204 436 m 0
 205 437 218 437 233 437 c 0
 257 437 259 436 263 434 c 0
 268 431 270 430 275 417 c 0
 301 356 346 301 402 270 c 0
 414 263 417 260 417 250 c 0
 417 240 414 237 402 230 c 0
 346 199 301 144 275 83 c 0
 270 70 268 69 263 66 c 0
 259 64 257 64 231 64 c 0
 205 64 202 64 199 65 c 0
 192 69 188 75 188 82 c 0
 188 87 189 93 193 100 c 0
 207 136 232 179 257 209 c 0
 262 215 266 221 267 223 c 2
 269 225 l 1
 174 225 l 2
 67 225 73 225 65 232 c 0
 61 237 58 244 58 250 c 0
 58 256 61 263 65 268 c 0
 73 275 67 275 174 275 c 2
 269 275 l 1
 267 277 l 2
 266 279 262 285 257 291 c 0
 238 313 219 345 205 374 c 0
 194 396 188 411 188 417 c 0
 188 427 194 434 204 436 c 0
EndSplineSet
Validated: 1
EndChar

StartChar: uni219A
Encoding: 8602 8602 48
Width: 1000
GlyphClass: 2
Flags: MW
HStem: 230 40<331 393 331 462 735 928>
LayerCount: 2
Fore
SplineSet
942 250 m 0
 942 242 933 235 928 230 c 1
 511 230 l 1
 457 148 l 2
 426 103 402 65 399 63 c 0
 396 61 392 60 389 60 c 0
 378 60 368 69 368 81 c 0
 368 88 375 99 415 159 c 2
 462 230 l 1
 175 230 l 1
 188 214 l 2
 217 179 259 108 264 85 c 0
 264 72 262 72 231 72 c 2
 206 74 l 1
 191 103 l 2
 182 119 171 139 164 150 c 0
 139 183 115 205 64 239 c 0
 58 243 56 247 56 250 c 0
 56 253 58 257 64 261 c 0
 133 305 162 337 191 397 c 2
 206 428 l 1
 231 428 l 2
 262 428 264 428 264 414 c 0
 259 392 217 321 188 288 c 2
 175 272 l 1
 331 270 l 2
 455 270 488 270 491 272 c 0
 491 276 593 430 597 432 c 0
 600 435 605 437 609 437 c 0
 619 437 628 429 628 417 c 0
 628 410 622 399 582 341 c 2
 537 272 l 1
 735 270 l 1
 931 270 l 1
 935 265 942 258 942 250 c 0
EndSplineSet
Validated: 1
EndChar

StartChar: uni219B
Encoding: 8603 8603 49
Width: 1000
GlyphClass: 2
Flags: MW
HStem: 230 40<264 277 66 462 264 264 608 751>
LayerCount: 2
Fore
SplineSet
54 250 m 0
 54 259 61 265 66 270 c 1
 277 270 l 1
 488 272 l 1
 542 350 l 2
 571 394 595 430 597 432 c 0
 600 435 605 437 609 437 c 0
 619 437 628 429 628 417 c 0
 628 410 622 399 582 341 c 2
 537 272 l 1
 608 270 l 1
 751 270 l 1
 822 272 l 1
 808 288 l 2
 779 321 737 392 733 414 c 0
 733 428 735 428 766 428 c 2
 793 428 l 1
 806 397 l 2
 824 363 842 339 864 314 c 0
 882 297 911 274 928 263 c 0
 937 259 942 254 942 250 c 0
 942 246 937 241 928 237 c 0
 911 225 882 203 864 185 c 0
 842 161 824 137 806 103 c 2
 793 74 l 1
 766 72 l 2
 735 72 733 72 733 85 c 0
 735 105 775 174 802 205 c 0
 808 212 815 221 817 225 c 2
 822 230 l 1
 511 230 l 1
 457 148 l 2
 426 103 402 65 399 63 c 0
 396 61 392 60 389 60 c 0
 378 60 368 69 368 81 c 0
 368 88 375 99 415 159 c 2
 462 230 l 1
 264 230 l 1
 66 232 l 2
 60 236 54 241 54 250 c 0
EndSplineSet
Validated: 1
EndChar

StartChar: uni219E
Encoding: 8606 8606 50
Width: 1000
GlyphClass: 2
Flags: MW
HStem: 230 40<151 276 151 276 340 634>
VStem: 388 46<83 84>
LayerCount: 2
Fore
SplineSet
196 411 m 1
 199 417 l 1
 221 417 l 2
 238 417 244 417 244 416 c 0
 244 414 234 392 228 379 c 0
 210 343 188 311 158 278 c 2
 151 270 l 1
 276 270 l 1
 285 277 l 2
 329 311 370 363 388 417 c 1
 434 417 l 1
 434 415 421 386 415 375 c 0
 398 341 373 305 349 279 c 2
 340 270 l 1
 634 270 l 2
 954 270 932 270 938 265 c 0
 942 261 944 256 944 250 c 0
 944 244 942 239 938 235 c 0
 932 230 954 230 634 230 c 2
 340 230 l 1
 349 221 l 2
 373 195 398 159 415 125 c 0
 421 114 434 85 434 83 c 1
 388 83 l 1
 370 137 329 189 285 223 c 2
 276 230 l 1
 151 230 l 1
 158 222 l 2
 188 189 210 157 228 121 c 0
 234 108 244 86 244 84 c 0
 244 83 238 83 221 83 c 2
 199 83 l 1
 196 89 l 1
 178 138 139 189 98 221 c 0
 86 231 66 243 56 250 c 1
 56 250 58 252 60 253 c 0
 117 289 172 345 196 411 c 1
EndSplineSet
Validated: 1
EndChar

StartChar: uni21A0
Encoding: 8608 8608 51
Width: 1000
GlyphClass: 2
Flags: MW
HStem: 230 40<205 659 365 659 723 848>
VStem: 565 46<83 84> 755 46<83 85>
LayerCount: 2
Fore
SplineSet
565 417 m 1
 611 417 l 1
 629 363 670 311 714 277 c 2
 723 270 l 1
 848 270 l 1
 841 278 l 2
 811 311 789 343 771 379 c 0
 765 392 755 414 755 416 c 0
 755 417 761 417 778 417 c 2
 801 417 l 1
 819 364 858 313 901 279 c 0
 913 269 933 257 943 250 c 1
 943 250 941 248 939 247 c 0
 880 210 824 153 801 83 c 1
 778 83 l 2
 761 83 755 83 755 84 c 0
 755 86 765 108 771 121 c 0
 789 157 811 189 841 222 c 2
 848 230 l 1
 723 230 l 1
 714 223 l 2
 670 189 629 137 611 83 c 1
 565 83 l 1
 565 85 578 114 584 125 c 0
 601 159 626 195 650 221 c 2
 659 230 l 1
 365 230 l 2
 45 230 67 230 61 235 c 0
 57 239 55 244 55 250 c 0
 55 256 57 261 61 265 c 0
 67 270 45 270 365 270 c 2
 659 270 l 1
 650 279 l 2
 626 305 601 341 584 375 c 0
 578 386 565 415 565 417 c 1
EndSplineSet
Validated: 1
EndChar

StartChar: uni21A2
Encoding: 8610 8610 52
Width: 1111
GlyphClass: 2
Flags: MW
HStem: 230 40<151 873 151 873>
VStem: 985 46<83 84>
LayerCount: 2
Fore
SplineSet
196 411 m 1
 199 417 l 1
 221 417 l 2
 238 417 244 417 244 416 c 0
 244 414 234 392 228 379 c 0
 210 343 188 311 158 278 c 2
 151 270 l 1
 873 270 l 1
 882 277 l 2
 926 311 967 363 985 417 c 1
 1031 417 l 1
 1031 415 1018 386 1012 375 c 0
 995 341 970 305 946 279 c 2
 937 270 l 1
 937 230 l 1
 946 221 l 2
 970 195 995 159 1012 125 c 0
 1018 114 1031 85 1031 83 c 1
 985 83 l 1
 967 137 926 189 882 223 c 2
 873 230 l 1
 151 230 l 1
 158 222 l 2
 188 189 210 157 228 121 c 0
 234 108 244 86 244 84 c 0
 244 83 238 83 221 83 c 2
 199 83 l 1
 196 89 l 1
 178 138 139 189 98 221 c 0
 86 231 66 243 56 250 c 1
 56 250 58 252 60 253 c 0
 117 289 172 345 196 411 c 1
EndSplineSet
Validated: 1
EndChar

StartChar: uni21A3
Encoding: 8611 8611 53
Width: 1111
GlyphClass: 2
Flags: MW
HStem: 230 40<173 173 237 959>
VStem: 79 46<83 84> 866 46<83 85>
LayerCount: 2
Fore
SplineSet
79 417 m 1
 125 417 l 1
 143 363 184 311 228 277 c 2
 237 270 l 1
 959 270 l 1
 952 278 l 2
 922 311 900 343 882 379 c 0
 876 392 866 414 866 416 c 0
 866 417 872 417 889 417 c 2
 912 417 l 1
 930 364 969 313 1012 279 c 0
 1024 269 1044 257 1054 250 c 1
 1054 250 1052 248 1050 247 c 0
 991 210 935 153 912 83 c 1
 889 83 l 2
 872 83 866 83 866 84 c 0
 866 86 876 108 882 121 c 0
 900 157 922 189 952 222 c 2
 959 230 l 1
 237 230 l 1
 228 223 l 2
 184 189 143 137 125 83 c 1
 79 83 l 1
 79 85 92 114 98 125 c 0
 115 159 140 195 164 221 c 2
 173 230 l 1
 173 270 l 1
 164 279 l 2
 140 305 115 341 98 375 c 0
 92 386 79 415 79 417 c 1
EndSplineSet
Validated: 1
EndChar

StartChar: uni21AB
Encoding: 8619 8619 54
Width: 1000
GlyphClass: 2
Flags: MW
HStem: 230 40<151 622 151 622 662 699 699 713> 536 39<751 840>
VStem: 622 40<-27 230 -27 230 270 305 305 319> 924 40<385.5 449.5>
LayerCount: 2
Fore
SplineSet
642 -41 m 0
 631 -41 626 -35 622 -27 c 1
 622 230 l 1
 151 230 l 1
 158 222 l 2
 188 189 210 157 228 121 c 0
 234 108 244 86 244 84 c 0
 244 83 238 83 221 83 c 2
 199 83 l 1
 196 89 l 1
 178 138 139 189 98 221 c 0
 86 231 66 243 56 250 c 1
 56 250 58 252 60 253 c 0
 117 289 172 345 196 411 c 1
 199 417 l 1
 221 417 l 2
 238 417 244 417 244 416 c 0
 244 414 234 392 228 379 c 0
 210 343 188 311 158 278 c 2
 151 270 l 1
 622 270 l 1
 622 305 l 2
 622 408 629 461 649 500 c 0
 673 548 717 575 785 575 c 0
 906 575 964 525 964 405 c 0
 964 304 921 254 825 238 c 0
 794 232 774 231 713 230 c 2
 662 230 l 1
 662 -27 l 1
 658 -35 653 -41 642 -41 c 0
924 403 m 0
 924 496 886 536 794 536 c 0
 706 536 676 496 667 415 c 0
 664 388 663 370 662 319 c 2
 662 270 l 1
 699 270 l 2
 825 270 875 282 903 320 c 0
 917 338 924 368 924 403 c 0
EndSplineSet
Validated: 1
EndChar

StartChar: uni21AC
Encoding: 8620 8620 55
Width: 1000
GlyphClass: 2
Flags: MW
HStem: 230 40<300 337 300 337 286 337 377 848> 535 40<153.5 204.5>
VStem: 35 40<368.5 448.5 368.5 459> 337 40<-25 230 -27 230 270 305> 755 46<83 85>
LayerCount: 2
Fore
SplineSet
35 405 m 0
 35 513 86 575 195 575 c 0
 309 575 355 531 370 429 c 0
 375 397 377 361 377 305 c 2
 377 270 l 1
 848 270 l 1
 841 278 l 2
 811 311 789 343 771 379 c 0
 765 392 755 414 755 416 c 0
 755 417 761 417 778 417 c 2
 801 417 l 1
 819 364 859 314 901 279 c 0
 913 269 933 257 943 250 c 1
 943 250 941 248 939 247 c 0
 931 242 911 229 901 221 c 0
 860 186 819 137 801 83 c 1
 778 83 l 2
 761 83 755 83 755 84 c 0
 755 86 765 108 771 121 c 0
 789 157 811 189 841 222 c 2
 848 230 l 1
 377 230 l 1
 377 -27 l 1
 373 -35 368 -41 357 -41 c 0
 345 -41 340 -35 337 -25 c 2
 337 230 l 1
 286 230 l 2
 132 233 35 255 35 405 c 0
197 535 m 0
 110 535 75 491 75 406 c 0
 75 331 100 295 167 280 c 0
 198 273 236 270 300 270 c 2
 337 270 l 1
 337 319 l 2
 336 398 332 433 321 465 c 0
 308 505 284 525 240 534 c 0
 232 535 212 535 197 535 c 0
EndSplineSet
Validated: 1
EndChar

StartChar: uni21AD
Encoding: 8621 8621 56
Width: 1389
GlyphClass: 2
Flags: MW
HStem: 230 40<152 220 152 276 1138 1168 1168 1236>
LayerCount: 2
Fore
SplineSet
57 250 m 1
 118 288 170 341 198 413 c 1
 200 417 l 1
 246 417 l 1
 242 407 l 2
 223 360 195 318 159 278 c 2
 152 270 l 1
 276 270 l 1
 315 310 l 2
 338 333 356 350 358 351 c 0
 363 354 370 354 376 351 c 0
 378 350 402 326 455 273 c 2
 530 196 l 1
 606 273 l 2
 665 332 683 350 686 351 c 0
 691 353 698 353 703 351 c 0
 705 350 728 327 782 273 c 2
 858 196 l 1
 933 273 l 2
 986 326 1010 350 1012 351 c 0
 1018 354 1025 354 1030 351 c 0
 1032 350 1050 333 1073 310 c 2
 1112 270 l 1
 1236 270 l 1
 1229 278 l 2
 1193 318 1165 360 1146 407 c 2
 1142 417 l 1
 1188 417 l 1
 1199 395 1209 372 1222 352 c 0
 1250 310 1288 275 1331 250 c 1
 1306 234 1282 218 1260 194 c 0
 1229 163 1207 128 1190 87 c 2
 1188 83 l 1
 1142 83 l 1
 1146 93 l 2
 1165 140 1192 181 1229 222 c 2
 1236 230 l 1
 1168 230 l 2
 1108 230 1099 230 1095 232 c 0
 1092 233 1082 242 1056 269 c 2
 1021 304 l 2
 1020 304 877 156 867 149 c 0
 861 146 854 146 848 150 c 0
 841 152 697 304 694 304 c 0
 692 304 546 152 540 150 c 0
 534 146 527 146 521 149 c 0
 511 156 368 304 367 304 c 2
 332 269 l 2
 306 242 296 233 293 232 c 0
 289 230 280 230 220 230 c 2
 152 230 l 1
 159 222 l 2
 195 182 223 140 242 93 c 2
 246 83 l 1
 223 83 l 1
 200 84 l 1
 195 96 l 2
 165 161 116 213 57 250 c 1
EndSplineSet
Validated: 1
EndChar

StartChar: uni21AE
Encoding: 8622 8622 57
Width: 1000
GlyphClass: 2
Flags: MW
HStem: 230 42<175 462 175 175>
LayerCount: 2
Fore
SplineSet
491 272 m 0
 491 276 593 430 597 432 c 0
 600 435 605 437 609 437 c 0
 619 437 628 429 628 417 c 0
 628 410 622 399 582 341 c 2
 537 272 l 1
 608 270 l 1
 751 270 l 1
 822 272 l 1
 808 288 l 2
 779 321 737 392 733 414 c 0
 733 428 735 428 766 428 c 2
 793 428 l 1
 806 397 l 2
 824 363 842 339 864 314 c 0
 882 297 911 274 928 263 c 0
 937 259 942 254 942 250 c 0
 942 246 937 241 928 237 c 0
 911 225 882 203 864 185 c 0
 842 161 824 137 806 103 c 2
 793 74 l 1
 766 72 l 2
 735 72 733 72 733 85 c 0
 735 105 775 174 802 205 c 0
 808 212 815 221 817 225 c 2
 822 230 l 1
 511 230 l 1
 457 148 l 2
 426 103 402 65 399 63 c 0
 396 61 392 60 389 60 c 0
 378 60 368 69 368 81 c 0
 368 88 375 99 415 159 c 2
 462 230 l 1
 175 230 l 1
 188 214 l 2
 217 179 259 108 264 85 c 0
 264 72 262 72 231 72 c 2
 206 74 l 1
 191 103 l 2
 182 119 171 139 164 150 c 0
 139 183 115 205 64 239 c 0
 58 243 56 247 56 250 c 0
 56 253 58 257 64 261 c 0
 133 305 162 337 191 397 c 2
 206 428 l 1
 231 428 l 2
 262 428 264 428 264 414 c 0
 259 392 217 321 188 288 c 2
 175 272 l 1
 331 270 l 2
 455 270 488 270 491 272 c 0
EndSplineSet
Validated: 1
EndChar

StartChar: uni21B0
Encoding: 8624 8624 58
Width: 500
GlyphClass: 2
Flags: MW
HStem: 0 21G<420.5 427.5> 535 41<151 404 151 151>
VStem: 198 46<389 390> 404 40<275 435 156 535>
LayerCount: 2
Fore
SplineSet
65 561 m 0
 125 598 173 656 198 722 c 1
 221 722 l 2
 234 722 244 722 244 721 c 0
 244 720 234 697 228 684 c 0
 210 649 187 615 161 587 c 2
 151 576 l 1
 291 575 l 2
 444 574 433 575 439 569 c 0
 444 563 444 583 444 287 c 0
 444 25 444 15 442 12 c 0
 438 4 431 0 424 0 c 0
 417 0 410 4 406 12 c 0
 404 15 404 25 404 275 c 2
 404 535 l 1
 151 535 l 1
 162 523 l 2
 188 494 211 460 227 428 c 0
 231 419 244 391 244 389 c 1
 198 389 l 1
 193 402 l 2
 174 447 142 489 106 519 c 0
 90 532 71 545 56 555 c 1
 56 555 60 558 65 561 c 0
EndSplineSet
Validated: 1
EndChar

StartChar: uni21B1
Encoding: 8625 8625 59
Width: 500
GlyphClass: 2
Flags: MW
HStem: 0 21G<71.5 78.5> 535 40<208 208 208 348>
VStem: 55 40<156 275 275 435> 255 46<389 390>
LayerCount: 2
Fore
SplineSet
301 722 m 1
 329 647 381 592 443 555 c 1
 429 545 409 532 393 519 c 0
 357 489 325 447 306 402 c 2
 301 389 l 1
 255 389 l 1
 255 391 268 419 272 428 c 0
 288 460 311 494 337 523 c 2
 348 535 l 1
 95 535 l 1
 95 275 l 2
 95 25 95 15 93 12 c 0
 89 4 82 0 75 0 c 0
 68 0 61 4 57 12 c 0
 55 15 55 25 55 287 c 0
 55 583 55 563 60 569 c 0
 66 575 55 574 208 575 c 2
 348 576 l 1
 338 587 l 2
 312 615 289 649 271 684 c 0
 265 697 255 720 255 721 c 0
 255 722 265 722 278 722 c 2
 301 722 l 1
EndSplineSet
Validated: 1
EndChar

StartChar: uni21B6
Encoding: 8630 8630 60
Width: 1000
GlyphClass: 2
Flags: MW
HStem: -1 21G<193.5 197> 139 71 421 40<543 565.5 543 581>
VStem: 175 41<122.5 123.5 122.5 126 122.5 126> 910 40<29 43>
LayerCount: 2
Fore
SplineSet
510 459 m 0
 521 460 535 461 551 461 c 0
 580 461 612 459 633 455 c 0
 688 443 737 419 784 386 c 0
 806 368 846 326 861 301 c 0
 917 226 950 121 950 32 c 0
 950 15 950 15 944 8 c 0
 935 -1 926 -1 917 8 c 0
 910 12 910 15 910 43 c 0
 901 206 810 348 677 399 c 0
 640 414 601 421 561 421 c 0
 492 421 421 400 359 359 c 0
 281 306 228 221 217 126 c 0
 217 125 216 124 216 123 c 0
 216 122 216 122 217 122 c 0
 222 122 252 157 301 181 c 0
 319 192 357 210 361 210 c 0
 364 210 366 208 368 206 c 0
 373 201 373 199 373 177 c 0
 373 163 373 152 370 150 c 2
 370 150 359 143 348 139 c 0
 290 112 239 66 210 17 c 0
 206 10 201 3 201 1 c 0
 199 0 198 -1 196 -1 c 0
 191 -1 187 3 184 8 c 0
 150 66 97 115 41 139 c 0
 30 143 21 148 19 150 c 0
 17 152 17 161 17 179 c 0
 17 201 17 203 21 208 c 0
 28 210 28 210 39 206 c 0
 77 190 126 161 157 135 c 2
 175 119 l 1
 175 126 l 2
 177 128 179 141 179 155 c 0
 181 166 188 188 193 201 c 0
 239 339 359 437 510 459 c 0
EndSplineSet
Validated: 1
EndChar

StartChar: uni21B7
Encoding: 8631 8631 61
Width: 1000
GlyphClass: 2
Flags: MW
HStem: -1 21G<802 805.5> 139 71 421 39<418 440 418 451.5>
VStem: 46 40<22.5 59 21.5 63.5>
LayerCount: 2
Fore
SplineSet
386 459 m 0
 396 460 410 460 426 460 c 0
 454 460 486 459 504 455 c 0
 548 448 597 430 637 408 c 0
 699 372 755 312 786 250 c 0
 804 215 822 157 822 132 c 0
 822 126 823 123 825 123 c 0
 828 123 833 127 842 135 c 0
 873 161 922 190 959 206 c 0
 970 210 970 210 977 208 c 0
 982 203 982 201 982 179 c 0
 982 161 982 152 979 150 c 0
 977 148 968 143 957 139 c 0
 902 115 848 66 815 8 c 0
 811 3 808 -1 803 -1 c 0
 801 -1 799 0 797 1 c 0
 797 3 793 10 788 17 c 0
 759 66 708 112 650 139 c 0
 639 143 628 150 628 150 c 2
 626 152 626 163 626 177 c 0
 626 199 626 201 630 206 c 0
 633 208 635 210 637 210 c 0
 642 210 679 192 697 181 c 0
 724 168 739 157 764 137 c 2
 784 119 l 1
 782 132 l 2
 762 275 646 390 499 417 c 0
 480 420 461 421 442 421 c 0
 311 421 196 349 130 219 c 0
 104 161 86 90 86 28 c 0
 86 15 86 15 79 8 c 0
 75 3 70 1 66 1 c 0
 62 1 57 3 53 8 c 0
 46 15 46 15 46 30 c 0
 46 97 64 172 97 237 c 0
 122 288 148 323 186 361 c 0
 244 415 310 448 386 459 c 0
EndSplineSet
Validated: 1
EndChar

StartChar: uni21BA
Encoding: 8634 8634 62
Width: 778
GlyphClass: 2
Flags: MW
HStem: -83 41<370.5 413> 543 40<388.5 399>
VStem: 56 39<207.5 257> 682 40<243 266>
LayerCount: 2
Fore
SplineSet
369 563 m 0
 369 577 379 583 397 583 c 0
 408 583 424 581 440 579 c 2
 454 577 l 1
 464 581 l 2
 495 593 526 613 552 639 c 0
 558 645 564 650 565 650 c 1
 565 649 607 637 607 637 c 1
 607 637 579 600 523 568 c 2
 510 560 l 1
 519 556 l 2
 558 541 594 516 626 485 c 0
 679 428 722 352 722 250 c 0
 722 236 721 221 720 214 c 0
 710 134 674 65 626 15 c 0
 599 -11 573 -30 540 -47 c 0
 492 -71 439 -83 387 -83 c 0
 354 -83 321 -78 289 -68 c 0
 235 -51 191 -24 151 15 c 0
 98 72 56 148 56 250 c 0
 56 264 56 279 57 286 c 0
 72 406 143 499 235 545 c 0
 246 551 249 552 255 550 c 0
 264 547 270 539 270 531 c 0
 270 528 269 524 267 521 c 0
 265 517 263 516 246 506 c 0
 213 487 183 463 159 433 c 0
 117 380 95 316 95 250 c 0
 95 165 130 96 177 47 c 0
 229 -9 297 -42 388 -42 c 0
 551 -42 682 86 682 250 c 0
 682 282 676 314 666 345 c 0
 642 416 589 477 522 511 c 0
 511 517 489 526 488 526 c 1
 488 525 486 518 485 515 c 2
 490 506 l 2
 506 479 521 444 528 413 c 0
 531 402 535 385 535 384 c 1
 534 384 525 387 513 390 c 2
 491 397 l 1
 488 408 l 2
 478 454 451 509 417 538 c 2
 413 542 l 1
 399 543 l 2
 378 543 369 548 369 563 c 0
EndSplineSet
Validated: 1
EndChar

StartChar: uni21BB
Encoding: 8635 8635 63
Width: 778
GlyphClass: 2
Flags: MW
HStem: -83 41<381.5 469.5 381.5 473.5> 543 40<378 388.5>
VStem: 56 39<243 257> 682 39<237 262>
LayerCount: 2
Fore
SplineSet
170 637 m 1
 213 650 l 1
 213 650 219 645 225 639 c 0
 252 613 282 593 313 581 c 2
 323 577 l 1
 337 579 l 2
 353 581 369 583 380 583 c 0
 398 583 408 578 408 563 c 0
 408 548 399 543 378 543 c 2
 364 542 l 1
 355 533 341 518 332 506 c 0
 311 477 296 441 289 408 c 2
 286 397 l 1
 264 390 l 2
 252 387 243 384 242 384 c 1
 242 385 246 402 249 413 c 0
 256 444 271 479 287 506 c 2
 292 515 l 2
 291 518 289 525 289 526 c 1
 288 526 266 517 255 511 c 0
 188 477 135 416 111 345 c 0
 100 314 95 281 95 249 c 0
 95 93 213 -25 355 -41 c 0
 362 -42 375 -42 388 -42 c 0
 551 -42 682 86 682 250 c 0
 682 274 679 298 673 322 c 0
 654 399 599 470 532 506 c 0
 514 516 512 517 510 521 c 0
 508 524 507 528 507 531 c 0
 507 539 513 547 522 550 c 0
 528 552 531 551 542 545 c 0
 629 503 700 413 717 308 c 0
 721 286 721 276 721 250 c 0
 721 224 721 214 717 192 c 0
 692 41 559 -83 388 -83 c 0
 371 -83 354 -82 337 -79 c 0
 190 -55 76 57 57 214 c 0
 56 221 56 236 56 250 c 0
 56 264 56 279 57 286 c 0
 67 366 103 435 151 485 c 0
 183 516 219 541 258 556 c 2
 267 560 l 1
 254 568 l 2
 224 585 194 611 170 637 c 1
EndSplineSet
Validated: 1
EndChar

StartChar: uni21BE
Encoding: 8638 8638 64
Width: 417
GlyphClass: 2
Flags: MW
HStem: 674 20G<188 208 208 208>
VStem: 188 40<258 587>
LayerCount: 2
Fore
SplineSet
188 258 m 2
 188 694 l 1
 208 694 l 1
 215 682 l 2
 242 634 283 594 332 569 c 0
 346 561 364 554 375 551 c 1
 375 528 l 2
 375 509 375 505 374 505 c 0
 371 505 349 512 339 515 c 0
 302 529 266 551 237 578 c 2
 228 587 l 1
 228 205 l 2
 228 -139 228 -178 226 -182 c 0
 223 -189 216 -194 208 -194 c 0
 199 -194 193 -189 190 -182 c 0
 188 -178 188 -133 188 258 c 2
EndSplineSet
Validated: 1
EndChar

StartChar: uni21BF
Encoding: 8639 8639 65
Width: 417
GlyphClass: 2
Flags: MW
HStem: 505 46<41 43.5> 674 20G<208 228 228 228>
VStem: 188 40<205 258 258 587 587 587>
LayerCount: 2
Fore
SplineSet
201 682 m 2
 208 694 l 1
 228 694 l 1
 228 258 l 2
 228 -133 228 -178 226 -182 c 0
 223 -189 216 -194 208 -194 c 0
 199 -194 193 -189 190 -182 c 0
 188 -178 188 -139 188 205 c 2
 188 587 l 1
 179 578 l 2
 150 551 114 529 77 515 c 0
 67 512 45 505 42 505 c 0
 41 505 41 509 41 528 c 2
 41 551 l 1
 61 556 89 570 110 584 c 0
 149 610 179 642 201 682 c 2
EndSplineSet
Validated: 1
EndChar

StartChar: uni21C2
Encoding: 8642 8642 66
Width: 417
GlyphClass: 2
Flags: MW
HStem: -51 46<372.5 375> 674 20G<203.5 212>
VStem: 188 40<-87 242 242 296 -87 437.5>
LayerCount: 2
Fore
SplineSet
190 682 m 0
 193 689 199 694 208 694 c 0
 216 694 223 690 226 683 c 0
 228 679 228 666 228 296 c 2
 228 -87 l 1
 237 -78 l 2
 266 -51 302 -29 339 -15 c 0
 349 -12 371 -5 374 -5 c 0
 375 -5 375 -9 375 -28 c 2
 375 -51 l 1
 355 -56 327 -70 306 -84 c 0
 267 -110 237 -142 215 -182 c 2
 208 -194 l 1
 188 -194 l 1
 188 242 l 2
 188 633 188 678 190 682 c 0
EndSplineSet
Validated: 1
EndChar

StartChar: uni21C3
Encoding: 8643 8643 67
Width: 417
GlyphClass: 2
Flags: MW
HStem: 674 20G<203.5 212>
VStem: 188 40<-87 242 -194 295>
LayerCount: 2
Fore
SplineSet
190 682 m 0
 193 689 199 694 208 694 c 0
 216 694 223 690 226 683 c 0
 228 679 228 664 228 242 c 2
 228 -194 l 1
 208 -194 l 1
 201 -182 l 2
 174 -134 133 -94 84 -69 c 0
 70 -61 52 -54 41 -51 c 1
 41 -28 l 2
 41 -9 41 -5 42 -5 c 0
 45 -5 67 -12 77 -15 c 0
 114 -29 150 -51 179 -78 c 2
 188 -87 l 1
 188 295 l 2
 188 639 188 678 190 682 c 0
EndSplineSet
Validated: 1
EndChar

StartChar: uni21C4
Encoding: 8644 8644 68
Width: 1000
GlyphClass: 2
Flags: MW
HStem: 0 21G<199 221 199 199> 147 40<151 539 539 541 151 539> 480 40<271 848 459 848>
VStem: 199 45<0 2> 755 46<333 335>
LayerCount: 2
Fore
SplineSet
755 666 m 0
 755 667 761 667 778 667 c 2
 801 667 l 1
 819 614 859 564 901 529 c 0
 913 519 933 507 943 500 c 1
 943 500 941 498 939 497 c 0
 880 460 824 403 801 333 c 1
 778 333 l 2
 761 333 755 333 755 334 c 0
 755 336 765 358 771 371 c 0
 789 407 811 439 841 472 c 2
 848 480 l 1
 459 480 l 2
 83 480 70 480 67 482 c 0
 59 486 55 493 55 500 c 0
 55 507 59 514 67 518 c 0
 70 520 83 520 459 520 c 2
 848 520 l 1
 841 528 l 2
 811 561 789 593 771 629 c 0
 765 642 755 664 755 666 c 0
65 173 m 0
 122 208 172 267 198 333 c 1
 221 333 l 2
 234 333 244 333 244 332 c 0
 244 331 233 307 228 296 c 0
 210 259 189 229 161 198 c 2
 151 187 l 1
 539 187 l 2
 802 187 928 187 930 186 c 0
 938 184 944 176 944 167 c 0
 944 159 939 152 934 149 c 0
 932 148 835 147 541 147 c 2
 151 147 l 1
 160 137 l 2
 189 105 212 70 230 34 c 0
 236 20 244 3 244 1 c 0
 244 0 234 0 221 0 c 2
 199 0 l 1
 171 69 123 126 63 162 c 0
 59 164 56 167 56 167 c 1
 56 167 60 170 65 173 c 0
EndSplineSet
Validated: 1
EndChar

StartChar: uni21C6
Encoding: 8646 8646 69
Width: 1000
GlyphClass: 2
Flags: MW
HStem: 0 21G<770.5 778 778 801> 147 40<311 848 460 848 460 848> 480 40<151 539 151 539>
VStem: 755 46<0 2>
LayerCount: 2
Fore
SplineSet
196 661 m 1
 199 667 l 1
 221 667 l 2
 238 667 244 667 244 666 c 0
 244 664 234 642 228 629 c 0
 210 593 188 561 158 528 c 2
 151 520 l 1
 539 520 l 2
 888 520 928 520 932 518 c 0
 939 515 944 508 944 500 c 0
 944 491 939 485 932 482 c 0
 928 480 888 480 539 480 c 2
 151 480 l 1
 158 472 l 2
 188 439 210 407 228 371 c 0
 234 358 244 336 244 334 c 0
 244 333 238 333 221 333 c 2
 199 333 l 1
 196 339 l 1
 178 388 139 439 98 471 c 0
 86 481 66 493 56 500 c 1
 56 500 58 502 60 503 c 0
 117 539 172 595 196 661 c 1
755 332 m 0
 755 333 765 333 778 333 c 2
 801 333 l 1
 822 281 855 233 896 200 c 0
 908 191 930 176 943 167 c 1
 943 167 940 164 936 162 c 0
 878 128 824 69 801 0 c 1
 778 0 l 2
 763 0 755 0 755 1 c 0
 755 3 767 29 771 39 c 0
 789 73 812 107 839 137 c 2
 848 147 l 1
 458 147 l 2
 164 147 67 148 66 149 c 0
 60 152 55 159 55 167 c 0
 55 176 61 184 69 186 c 0
 71 187 197 187 460 187 c 2
 848 187 l 1
 838 198 l 2
 810 229 789 259 771 296 c 0
 766 307 755 331 755 332 c 0
EndSplineSet
Validated: 1
EndChar

StartChar: uni21C7
Encoding: 8647 8647 70
Width: 1000
GlyphClass: 2
Flags: MW
HStem: 63 40<151 540 151 151> 397 40<151 540 150 930>
LayerCount: 2
Fore
SplineSet
930 437 m 1
 937 432 944 426 944 416 c 0
 944 409 940 403 934 399 c 0
 930 397 927 397 540 397 c 2
 150 397 l 1
 159 387 l 2
 189 356 217 314 235 273 c 0
 239 264 242 256 243 254 c 0
 245 249 245 249 235 227 c 0
 217 186 189 144 159 113 c 2
 150 103 l 1
 540 103 l 2
 927 103 930 103 934 101 c 0
 940 97 944 91 944 84 c 0
 944 74 938 68 930 64 c 2
 540 63 l 1
 151 63 l 1
 174 40 194 13 213 -18 c 0
 224 -35 238 -72 244 -83 c 1
 198 -83 l 1
 173 -16 123 43 66 77 c 2
 55 83 l 1
 65 89 l 2
 122 124 170 180 197 246 c 0
 199 251 198 252 190 269 c 0
 164 328 119 378 65 411 c 2
 55 417 l 1
 66 423 l 2
 123 457 173 516 198 583 c 1
 244 583 l 1
 238 572 224 536 213 518 c 0
 194 487 174 460 151 437 c 1
 930 437 l 1
EndSplineSet
Validated: 1
EndChar

StartChar: uni21C8
Encoding: 8648 8648 71
Width: 833
GlyphClass: 2
Flags: MW
HStem: 505 46<83 85> 674 20G<250 250 582 582>
VStem: 230 40<-179 598 -179 599 -179 599> 562 40<209 598 598 598>
LayerCount: 2
Fore
SplineSet
247 -193 m 2
 238 -193 234 -187 230 -181 c 1
 230 599 l 1
 220 590 l 2
 192 563 156 539 120 521 c 0
 104 513 86 505 84 505 c 0
 83 505 83 515 83 528 c 2
 83 551 l 1
 156 575 212 631 250 694 c 1
 250 694 252 689 256 684 c 0
 285 635 328 595 380 567 c 0
 391 561 413 551 416 551 c 0
 419 551 441 561 452 567 c 0
 504 595 547 635 577 684 c 1
 582 694 l 1
 587 686 l 2
 619 633 667 589 722 563 c 0
 734 557 740 554 749 551 c 1
 749 528 l 2
 749 515 749 505 748 505 c 0
 746 505 728 513 713 521 c 0
 676 539 640 563 612 590 c 2
 602 599 l 1
 602 -181 l 1
 598 -187 594 -193 585 -193 c 2
 582 -193 l 2
 570 -193 567 -187 563 -179 c 2
 562 209 l 1
 562 598 l 1
 552 589 l 2
 520 559 478 531 438 514 c 0
 417 504 417 504 412 506 c 0
 410 507 402 510 394 514 c 0
 354 531 312 559 280 589 c 2
 270 598 l 1
 270 -179 l 1
 265 -186 262 -193 250 -193 c 2
 247 -193 l 2
EndSplineSet
Validated: 1
EndChar

StartChar: uni21C9
Encoding: 8649 8649 72
Width: 1000
GlyphClass: 2
Flags: MW
HStem: 63 40<459 848 459 849> 397 40<265.5 459 459 848 70 849>
LayerCount: 2
Fore
SplineSet
55 416 m 0
 55 427 62 432 70 437 c 1
 848 437 l 1
 825 460 805 487 786 518 c 0
 775 535 761 572 755 583 c 1
 801 583 l 1
 826 516 876 457 933 423 c 2
 944 417 l 1
 934 411 l 2
 877 375 829 321 802 254 c 0
 800 249 801 248 809 231 c 0
 835 172 880 122 934 89 c 2
 944 83 l 1
 933 77 l 2
 876 43 826 -16 801 -83 c 1
 755 -83 l 1
 761 -72 775 -36 786 -18 c 0
 805 13 825 40 848 63 c 1
 459 63 l 1
 70 64 l 2
 61 68 55 74 55 84 c 0
 55 91 59 97 65 101 c 0
 69 103 72 103 459 103 c 2
 849 103 l 1
 840 113 l 2
 810 144 782 186 764 227 c 0
 754 249 754 249 756 254 c 0
 757 256 760 264 764 273 c 0
 782 314 810 356 840 387 c 2
 849 397 l 1
 459 397 l 2
 72 397 69 397 65 399 c 0
 59 403 55 409 55 416 c 0
EndSplineSet
Validated: 1
EndChar

StartChar: uni21CA
Encoding: 8650 8650 73
Width: 833
GlyphClass: 2
Flags: MW
HStem: -51 46<83 85> 674 20G<244.5 251>
VStem: 230 40<-98 680 -98 681 -98 681> 562 40<-98 291 291 291>
LayerCount: 2
Fore
SplineSet
250 -194 m 1
 210 -131 156 -75 83 -51 c 1
 83 -28 l 2
 83 -15 83 -5 84 -5 c 0
 86 -5 104 -13 120 -21 c 0
 156 -39 192 -63 220 -90 c 2
 230 -99 l 1
 230 681 l 1
 235 687 238 694 251 694 c 0
 262 693 265 686 270 680 c 1
 270 -98 l 1
 280 -89 l 2
 312 -59 354 -31 394 -14 c 0
 402 -10 410 -7 412 -6 c 0
 417 -4 417 -4 438 -14 c 0
 478 -31 520 -59 552 -89 c 2
 562 -98 l 1
 562 291 l 1
 563 680 l 2
 567 687 571 693 582 693 c 0
 593 694 597 688 602 681 c 1
 602 -99 l 1
 612 -90 l 2
 640 -63 676 -39 713 -21 c 0
 728 -13 746 -5 748 -5 c 0
 749 -5 749 -15 749 -28 c 2
 749 -51 l 1
 740 -54 734 -57 722 -63 c 0
 667 -89 619 -133 587 -186 c 2
 582 -194 l 1
 577 -184 l 1
 547 -135 504 -95 452 -67 c 0
 441 -61 419 -51 416 -51 c 0
 413 -51 391 -61 380 -67 c 0
 328 -95 285 -135 255 -184 c 1
 250 -194 l 1
EndSplineSet
Validated: 1
EndChar

StartChar: uni21CB
Encoding: 8651 8651 74
Width: 1000
GlyphClass: 2
Flags: MW
HStem: 133 40<507 837> 327 40<162 492>
VStem: 198 46<510.5 514> 755 46<-14 -10.5>
LayerCount: 2
Fore
SplineSet
195 504 m 2
 198 514 l 1
 221 514 l 2
 243 514 244 514 244 512 c 0
 244 509 237 488 233 476 c 0
 219 439 197 404 171 376 c 2
 162 367 l 1
 545 367 l 2
 888 367 928 367 932 365 c 0
 939 362 944 355 944 347 c 0
 944 338 939 332 932 329 c 0
 928 327 883 327 492 327 c 2
 55 327 l 1
 55 347 l 1
 67 354 l 2
 123 385 172 439 195 504 c 2
67 171 m 0
 70 173 85 173 507 173 c 2
 944 173 l 1
 944 153 l 1
 932 146 l 2
 875 115 827 62 804 -4 c 2
 801 -14 l 1
 778 -14 l 2
 756 -14 755 -14 755 -12 c 0
 755 -9 762 12 766 25 c 0
 780 61 802 96 828 124 c 2
 837 133 l 1
 454 133 l 2
 111 133 71 133 67 135 c 0
 59 138 55 146 55 153 c 0
 55 160 59 167 67 171 c 0
EndSplineSet
Validated: 1
EndChar

StartChar: uni21CC
Encoding: 8652 8652 75
Width: 1000
GlyphClass: 2
Flags: MW
HStem: 133 40<162 492 492 545 162 162> 327 40<454 507 507 837 454 944>
VStem: 198 46<-14 -10.5> 755 46<510.5 514>
LayerCount: 2
Fore
SplineSet
755 512 m 0
 755 514 756 514 778 514 c 2
 801 514 l 1
 804 503 l 2
 807 497 812 484 817 475 c 0
 842 423 882 382 932 354 c 2
 944 347 l 1
 944 327 l 1
 507 327 l 2
 85 327 70 327 67 329 c 0
 59 333 55 340 55 347 c 0
 55 354 59 361 67 365 c 0
 70 367 83 367 454 367 c 2
 837 367 l 1
 828 376 l 2
 802 404 780 439 766 476 c 0
 762 488 755 509 755 512 c 0
55 153 m 1
 55 173 l 1
 492 173 l 2
 883 173 928 173 932 171 c 0
 939 168 944 162 944 153 c 0
 944 145 939 138 932 135 c 0
 928 133 888 133 545 133 c 2
 162 133 l 1
 171 124 l 2
 197 96 219 61 233 25 c 0
 237 12 244 -9 244 -12 c 0
 244 -14 243 -14 221 -14 c 2
 198 -14 l 1
 195 -4 l 2
 172 61 124 115 67 146 c 2
 55 153 l 1
EndSplineSet
Validated: 1
EndChar

StartChar: uni21CD
Encoding: 8653 8653 76
Width: 1000
GlyphClass: 2
Flags: MW
HStem: 132 40<319 526 319 319 757 928 275 568> 327 40<319 439 736.5 791 791 928>
VStem: 466 71<-20.5 54> 606 45<325 326>
LayerCount: 2
Fore
SplineSet
941 151 m 0
 941 144 933 137 928 132 c 1
 568 132 l 1
 537 54 l 2
 502 -28 499 -35 486 -35 c 0
 477 -35 466 -24 466 -17 c 0
 466 -13 479 21 495 61 c 2
 526 132 l 1
 319 132 l 1
 331 118 l 2
 364 81 388 45 408 7 c 0
 416 -8 418 -13 418 -17 c 0
 418 -27 412 -26 397 -26 c 2
 384 -24 l 1
 377 -13 l 1
 313 109 215 192 86 232 c 0
 64 238 57 243 55 245 c 0
 53 256 57 258 86 267 c 0
 215 307 313 389 377 512 c 2
 384 525 l 1
 397 525 l 2
 412 525 418 526 418 516 c 0
 418 512 416 507 408 492 c 0
 388 454 364 421 331 381 c 2
 319 367 l 1
 473 367 l 1
 624 369 l 1
 657 445 l 2
 675 489 693 525 695 527 c 0
 699 532 704 534 709 534 c 0
 716 534 728 526 728 516 c 0
 728 509 721 494 695 434 c 0
 682 398 668 369 668 367 c 1
 928 367 l 1
 934 362 942 355 942 347 c 0
 942 340 933 332 928 327 c 1
 791 327 l 2
 682 327 651 327 651 325 c 0
 649 324 587 175 586 174 c 0
 586 172 622 172 757 172 c 2
 928 172 l 1
 934 166 941 159 941 151 c 0
606 325 m 2
 606 327 531 327 439 327 c 2
 275 327 l 1
 254 309 211 284 179 265 c 0
 162 258 148 249 148 249 c 1
 148 249 162 241 177 234 c 0
 208 218 239 198 262 181 c 2
 275 172 l 1
 544 172 l 1
 575 247 l 2
 593 289 606 325 606 325 c 2
EndSplineSet
Validated: 33
EndChar

StartChar: uni21CE
Encoding: 8654 8654 77
Width: 1000
GlyphClass: 2
Flags: MW
HStem: 132 40<255 335 217 440 255 255> 327 40<217 515 384 544 557 651>
VStem: 395 65 569 33
LayerCount: 2
Fore
SplineSet
602 516 m 0
 602 514 557 367 557 367 c 1
 651 367 l 1
 742 370 l 1
 731 383 l 2
 704 416 671 474 657 505 c 0
 655 516 655 516 660 521 c 0
 662 525 664 525 677 525 c 0
 691 525 693 523 695 519 c 0
 695 516 702 501 709 487 c 0
 755 390 849 303 949 263 c 0
 962 259 966 254 964 245 c 0
 962 243 957 239 949 236 c 0
 849 196 755 110 709 12 c 0
 702 -1 695 -17 695 -19 c 0
 693 -24 691 -26 677 -26 c 0
 664 -26 662 -26 660 -21 c 0
 655 -17 655 -17 657 -6 c 0
 666 12 689 56 702 76 c 0
 707 84 740 113 740 130 c 0
 740 132 712 132 613 132 c 2
 482 132 l 1
 460 54 l 2
 433 -33 429 -37 415 -37 c 0
 406 -37 395 -26 395 -19 c 0
 395 -17 406 19 417 59 c 0
 431 96 440 130 440 132 c 1
 255 132 l 1
 266 116 l 2
 293 83 326 25 340 -6 c 0
 342 -17 342 -17 337 -21 c 0
 335 -26 333 -26 320 -26 c 0
 306 -26 304 -24 302 -19 c 0
 302 -17 295 -1 289 12 c 0
 242 110 149 196 49 236 c 0
 35 241 31 245 33 254 c 0
 35 256 40 261 49 263 c 0
 149 303 242 390 289 487 c 0
 295 501 302 516 302 519 c 0
 304 523 306 525 320 525 c 0
 333 525 335 525 337 521 c 0
 342 516 342 516 340 505 c 0
 326 474 293 416 266 383 c 2
 255 370 l 1
 384 367 l 1
 515 367 l 1
 515 367 561 522 569 530 c 0
 573 533 576 534 580 534 c 0
 588 534 602 524 602 516 c 0
502 325 m 2
 502 327 437 327 360 327 c 2
 217 327 l 1
 195 310 l 2
 175 292 137 267 120 256 c 0
 115 254 111 250 111 250 c 1
 111 250 115 245 120 243 c 0
 137 234 175 207 195 190 c 2
 217 172 l 1
 335 172 l 1
 453 174 l 1
 502 325 l 2
886 250 m 1
 865 264 827 288 802 310 c 2
 780 327 l 1
 544 327 l 1
 535 299 l 2
 531 283 520 250 511 223 c 2
 495 174 l 1
 637 172 l 1
 780 172 l 1
 802 190 l 2
 822 207 860 234 877 243 c 0
 882 245 886 250 886 250 c 1
EndSplineSet
Validated: 1
EndChar

StartChar: uni21CF
Encoding: 8655 8655 78
Width: 1000
GlyphClass: 2
Flags: MW
HStem: 132 40<68 206 206 260.5 68 206 557 677> 327 40<68 239 68 428 68 455 471 677>
VStem: 346 45<173 174> 578 41<-22 -13>
LayerCount: 2
Fore
SplineSet
56 348 m 0
 56 355 63 362 68 367 c 1
 428 367 l 1
 459 445 l 2
 482 498 495 525 499 529 c 0
 502 532 506 534 510 534 c 0
 517 534 531 523 531 516 c 0
 531 512 517 478 502 438 c 2
 471 367 l 1
 677 367 l 1
 666 381 l 2
 633 418 608 454 588 492 c 0
 580 507 578 512 578 516 c 0
 578 526 586 525 599 525 c 2
 615 525 l 1
 619 512 l 1
 684 389 782 307 911 267 c 0
 933 261 939 256 942 254 c 0
 944 243 939 241 911 232 c 0
 782 192 684 109 619 -13 c 1
 615 -24 l 1
 599 -26 l 2
 586 -26 578 -27 578 -17 c 0
 578 -13 580 -8 588 7 c 0
 608 45 633 78 666 118 c 2
 677 132 l 1
 373 132 l 1
 339 54 l 2
 322 9 304 -26 302 -28 c 0
 298 -33 293 -35 288 -35 c 0
 280 -35 269 -27 269 -17 c 0
 269 -10 328 125 328 132 c 1
 68 132 l 1
 63 137 55 144 55 152 c 0
 55 159 63 167 68 172 c 1
 206 172 l 2
 315 172 346 172 346 174 c 0
 348 176 362 209 377 249 c 0
 395 289 408 323 411 325 c 0
 411 327 375 327 239 327 c 2
 68 327 l 1
 63 333 56 340 56 348 c 0
735 318 m 2
 722 327 l 1
 455 327 l 1
 422 252 l 2
 404 209 391 174 391 174 c 2
 391 172 466 172 557 172 c 2
 722 172 l 1
 735 181 l 2
 757 198 788 218 819 234 c 0
 835 241 848 249 848 249 c 1
 848 249 835 258 819 265 c 0
 788 281 757 301 735 318 c 2
EndSplineSet
Validated: 33
EndChar

StartChar: uni21DA
Encoding: 8666 8666 79
Width: 1000
GlyphClass: 2
Flags: MW
HStem: 36 40<372 928 344 929 372 372> 230 40<191 560 191 560> 424 40<372 928 344 929>
CounterMasks: 1 e0
LayerCount: 2
Fore
SplineSet
944 54 m 0
 943 46 937 40 929 36 c 1
 372 36 l 1
 372 35 376 29 381 20 c 0
 398 -8 409 -29 422 -58 c 0
 429 -76 442 -108 442 -110 c 0
 442 -111 431 -111 408 -111 c 2
 374 -111 l 1
 370 -100 l 2
 312 49 214 165 87 243 c 2
 76 250 l 1
 87 257 l 2
 214 334 314 454 370 600 c 2
 374 611 l 1
 408 611 l 2
 431 611 442 611 442 610 c 0
 442 608 429 576 422 558 c 0
 409 529 398 508 381 480 c 0
 376 471 372 465 372 464 c 1
 929 464 l 1
 937 460 943 454 944 446 c 0
 944 433 936 429 928 424 c 1
 344 424 l 1
 336 414 l 2
 301 367 248 313 200 277 c 2
 191 270 l 1
 560 270 l 2
 916 270 929 270 933 268 c 0
 940 264 944 257 944 249 c 0
 944 242 940 235 933 232 c 0
 929 230 916 230 560 230 c 2
 191 230 l 1
 200 223 l 2
 249 185 299 135 336 86 c 2
 344 76 l 1
 928 76 l 1
 936 71 944 67 944 54 c 0
EndSplineSet
Validated: 1
EndChar

StartChar: uni21DB
Encoding: 8667 8667 80
Width: 1000
GlyphClass: 2
Flags: MW
HStem: 36 40<215.5 655 363 627> 230 40<438 808 438 438> 424 40<349 363 363 627 349 655>
VStem: 557 69<-111 -109>
CounterMasks: 1 e0
LayerCount: 2
Fore
SplineSet
56 250 m 0
 56 261 62 265 68 270 c 1
 808 270 l 1
 799 277 l 2
 750 315 700 365 663 414 c 2
 655 424 l 1
 363 424 l 2
 82 424 71 424 68 426 c 0
 61 429 55 435 55 444 c 0
 55 453 61 459 68 462 c 0
 71 464 82 464 349 464 c 2
 627 464 l 1
 627 465 623 471 618 480 c 0
 601 508 590 529 577 558 c 0
 570 576 557 608 557 610 c 0
 557 611 568 611 591 611 c 2
 626 611 l 1
 629 600 l 1
 687 451 785 335 912 257 c 2
 923 250 l 1
 912 243 l 2
 785 166 685 46 629 -100 c 1
 626 -111 l 1
 591 -111 l 2
 568 -111 557 -111 557 -110 c 0
 557 -108 570 -76 577 -58 c 0
 590 -29 601 -8 618 20 c 0
 623 29 627 35 627 36 c 1
 349 36 l 2
 82 36 71 36 68 38 c 0
 61 41 55 47 55 56 c 0
 55 65 61 71 68 74 c 0
 71 76 82 76 363 76 c 2
 655 76 l 1
 663 86 l 2
 698 133 751 187 799 223 c 2
 808 230 l 1
 438 230 l 1
 68 231 l 2
 61 235 56 240 56 250 c 0
EndSplineSet
Validated: 1
EndChar

StartChar: uni21DD
Encoding: 8669 8669 81
Width: 1000
GlyphClass: 2
Flags: MW
HStem: 230 40<685.5 737 737 848>
VStem: 755 46<83 85>
LayerCount: 2
Fore
SplineSet
755 416 m 0
 755 417 761 417 778 417 c 2
 801 417 l 1
 819 364 858 313 901 279 c 0
 913 269 933 257 943 250 c 1
 943 250 941 248 939 247 c 0
 880 210 824 153 801 83 c 1
 778 83 l 2
 761 83 755 83 755 84 c 0
 755 86 765 108 771 121 c 0
 789 157 811 189 841 222 c 2
 848 230 l 1
 737 230 l 2
 634 230 625 230 622 232 c 2
 537 306 l 1
 537 304 364 150 362 149 c 0
 356 147 350 147 345 149 c 0
 340 151 169 304 169 306 c 1
 168 306 150 290 129 270 c 0
 107 251 87 233 85 232 c 0
 82 231 80 230 77 230 c 0
 66 230 56 240 56 250 c 0
 56 252 57 255 58 258 c 0
 62 266 158 350 159 351 c 0
 164 354 172 354 177 351 c 0
 179 350 197 334 218 316 c 2
 303 239 l 2
 330 214 353 195 353 195 c 1
 353 195 376 214 403 239 c 2
 488 316 l 2
 509 334 527 350 529 351 c 0
 534 354 541 354 546 351 c 0
 549 350 570 331 594 310 c 2
 638 270 l 1
 848 270 l 1
 841 278 l 2
 811 311 789 343 771 379 c 0
 765 392 755 414 755 416 c 0
EndSplineSet
Validated: 1
EndChar

StartChar: uni21E0
Encoding: 8672 8672 82
Width: 1334
GlyphClass: 2
Flags: MW
HStem: 230 40<515 819 515 819 932 1236>
VStem: 205 87<83 83 417 417>
LayerCount: 2
Fore
SplineSet
205 417 m 0
 214 436 216 437 238 437 c 2
 252 437 l 2
 275 437 278 436 281 435 c 0
 288 431 292 425 292 418 c 0
 292 413 291 407 287 400 c 0
 273 364 248 321 223 291 c 0
 218 285 214 279 213 277 c 2
 211 275 l 1
 306 275 l 2
 413 275 407 275 415 268 c 0
 419 263 422 256 422 250 c 0
 422 244 419 237 415 232 c 0
 407 225 413 225 306 225 c 2
 211 225 l 1
 213 223 l 2
 214 221 218 215 223 209 c 0
 248 179 273 136 287 100 c 0
 291 93 292 87 292 82 c 0
 292 75 288 69 281 65 c 0
 278 64 275 64 250 64 c 0
 223 64 221 64 218 66 c 0
 212 69 210 70 205 83 c 0
 179 144 134 199 78 230 c 0
 66 237 64 240 64 250 c 0
 64 260 66 263 78 270 c 0
 134 301 179 356 205 417 c 0
501 250 m 0
 501 261 507 266 515 270 c 1
 819 270 l 1
 827 266 834 261 834 250 c 0
 834 239 827 234 819 230 c 1
 515 230 l 1
 507 234 501 239 501 250 c 0
918 250 m 0
 918 261 924 266 932 270 c 1
 1236 270 l 1
 1244 266 1251 261 1251 250 c 0
 1251 239 1244 234 1236 230 c 1
 932 230 l 1
 924 234 918 239 918 250 c 0
EndSplineSet
Validated: 1
EndChar

StartChar: uni21E2
Encoding: 8674 8674 83
Width: 1334
GlyphClass: 2
Flags: MW
HStem: 230 40<98 402 98 402 515 819>
VStem: 1022 87<82 82 417 417>
LayerCount: 2
Fore
SplineSet
84 250 m 0
 84 261 90 266 98 270 c 1
 402 270 l 1
 410 266 417 261 417 250 c 0
 417 239 410 234 402 230 c 1
 98 230 l 1
 90 234 84 239 84 250 c 0
501 250 m 0
 501 261 507 266 515 270 c 1
 819 270 l 1
 827 266 834 261 834 250 c 0
 834 239 827 234 819 230 c 1
 515 230 l 1
 507 234 501 239 501 250 c 0
1038 436 m 0
 1039 437 1052 437 1067 437 c 0
 1091 437 1093 436 1097 434 c 0
 1102 431 1104 430 1109 417 c 0
 1135 356 1180 301 1236 270 c 0
 1248 263 1251 260 1251 250 c 0
 1251 240 1248 237 1236 230 c 0
 1180 199 1135 144 1109 83 c 0
 1104 70 1102 69 1097 66 c 0
 1093 64 1091 64 1065 64 c 0
 1039 64 1036 64 1033 65 c 0
 1026 69 1022 75 1022 82 c 0
 1022 87 1023 93 1027 100 c 0
 1041 136 1066 179 1091 209 c 0
 1096 215 1100 221 1101 223 c 2
 1103 225 l 1
 1008 225 l 2
 901 225 907 225 899 232 c 0
 895 237 892 244 892 250 c 0
 892 256 895 263 899 268 c 0
 907 275 901 275 1008 275 c 2
 1103 275 l 1
 1101 277 l 2
 1100 279 1096 285 1091 291 c 0
 1072 313 1053 345 1039 374 c 0
 1028 396 1022 411 1022 417 c 0
 1022 427 1028 434 1038 436 c 0
EndSplineSet
Validated: 1
EndChar

StartChar: uni2201
Encoding: 8705 8705 84
Width: 500
GlyphClass: 2
Flags: MW
HStem: -21 79<225.5 276 225.5 302> 766 80<229 243 243 251 229 271.5>
VStem: 58 79 364 80<143.5 172 143.5 172 172 203.5>
LayerCount: 2
Fore
SplineSet
137 107 m 1
 148 75 200 58 251 58 c 0
 301 58 347 75 361 101 c 2
 364 107 l 1
 364 172 l 2
 364 235 365 237 367 242 c 0
 373 259 388 269 404 269 c 0
 424 269 434 255 444 240 c 1
 444 172 l 2
 444 115 444 103 443 96 c 0
 429 25 354 -21 250 -21 c 0
 146 -21 71 24 58 96 c 0
 56 103 56 140 56 413 c 0
 56 685 56 722 58 729 c 0
 68 786 117 827 192 841 c 0
 203 844 218 846 229 846 c 2
 243 846 l 2
 259 846 282 846 290 845 c 0
 366 833 428 799 443 729 c 0
 444 722 444 710 444 653 c 2
 444 586 l 1
 436 571 427 556 404 556 c 0
 388 556 373 566 367 583 c 0
 365 588 364 590 364 654 c 2
 364 719 l 2
 361 723 358 730 355 733 c 0
 336 755 293 766 250 766 c 0
 204 766 151 753 137 719 c 1
 137 107 l 1
EndSplineSet
Validated: 1
EndChar

StartChar: uni2204
Encoding: 8708 8708 85
Width: 556
GlyphClass: 2
Flags: MW
HStem: -1 40<68 122 68 68 344 353> 328 40<82 166 79 262 343 375 375 457> 654 40<68 199 66 324 68 68 431 457>
VStem: 146 33 251 42<325 326.5 325 326.5> 324 42<652 653 652 654 652 654> 457 40<39 328 328 328 368 654 654 654>
LayerCount: 2
Fore
SplineSet
55 676 m 0
 55 684 61 690 66 694 c 1
 199 694 l 1
 333 696 l 1
 351 772 l 2
 368 848 371 854 382 859 c 0
 383 860 385 860 386 860 c 0
 395 860 406 850 406 841 c 0
 406 839 399 803 391 765 c 2
 375 696 l 2
 375 694 399 694 431 694 c 2
 484 694 l 1
 491 688 l 1
 497 681 l 1
 497 12 l 1
 493 5 l 1
 486 1 l 1
 353 -1 l 1
 219 -1 l 1
 202 -79 l 2
 186 -146 184 -157 179 -161 c 0
 175 -165 170 -166 165 -166 c 0
 155 -166 146 -159 146 -148 c 0
 146 -134 177 -18 177 -4 c 0
 177 -1 153 -1 122 -1 c 2
 68 -1 l 1
 63 4 55 12 55 20 c 0
 55 28 61 34 66 39 c 1
 126 39 l 1
 186 41 l 1
 219 181 l 2
 235 259 251 323 251 325 c 0
 251 328 233 328 166 328 c 2
 79 328 l 1
 74 334 69 340 69 347 c 0
 69 351 70 354 75 359 c 2
 82 368 l 1
 262 368 l 1
 291 505 l 2
 308 583 324 648 324 650 c 2
 324 654 l 1
 68 654 l 1
 63 660 55 668 55 676 c 0
457 368 m 1
 457 654 l 1
 411 654 l 2
 377 654 366 654 366 652 c 0
 364 650 351 588 333 514 c 0
 317 439 304 374 302 372 c 2
 302 368 l 1
 457 368 l 1
457 39 m 1
 457 328 l 1
 375 328 l 2
 311 328 293 328 293 325 c 0
 291 321 228 43 228 41 c 0
 228 39 279 39 344 39 c 2
 457 39 l 1
EndSplineSet
Validated: 1
EndChar

StartChar: emptyset
Encoding: 8709 8709 86
Width: 778
GlyphClass: 2
Flags: MW
HStem: -1 38 546 41<368 388.5>
VStem: 94 39<281.5 298 279 300.5> 642 41<283 319>
LayerCount: 2
Fore
SplineSet
699 587 m 0
 709 587 720 579 720 568 c 0
 720 562 717 557 713 553 c 0
 711 549 617 470 624 470 c 1
 624 468 631 459 635 450 c 0
 664 405 683 360 683 291 c 0
 683 272 681 253 679 241 c 0
 668 181 642 130 599 86 c 0
 553 39 499 10 437 -1 c 0
 425 -2 406 -2 387 -2 c 0
 368 -2 349 -2 337 -1 c 0
 284 10 228 35 193 70 c 1
 179 81 l 1
 131 39 l 2
 86 -1 84 -3 75 -3 c 0
 64 -3 55 4 55 17 c 0
 55 26 53 24 111 73 c 0
 137 97 153 113 151 113 c 1
 151 115 144 124 139 133 c 0
 119 164 102 204 95 241 c 0
 94 253 94 272 94 291 c 0
 94 310 94 329 95 341 c 0
 106 399 133 453 173 495 c 0
 230 552 300 587 385 587 c 0
 404 587 419 585 437 581 c 0
 488 575 546 548 582 513 c 2
 595 501 l 1
 642 541 l 2
 668 566 691 586 695 586 c 0
 696 586 698 587 699 587 c 0
448 539 m 0
 434 544 402 546 375 546 c 0
 361 546 348 545 339 544 c 0
 248 526 173 457 144 370 c 0
 135 339 133 317 133 279 c 0
 135 244 137 226 151 195 c 0
 159 175 179 141 184 141 c 0
 186 141 564 473 564 477 c 0
 562 479 537 499 519 510 c 0
 502 521 473 533 448 539 c 0
642 290 m 0
 642 348 627 390 606 424 c 0
 599 435 593 441 593 444 c 1
 588 444 213 110 213 108 c 0
 213 104 235 86 255 73 c 0
 273 61 302 50 326 44 c 0
 340 39 368 37 392 37 c 0
 405 37 417 38 426 39 c 0
 535 55 624 144 639 253 c 0
 641 263 642 276 642 290 c 0
EndSplineSet
Validated: 33
EndChar

StartChar: uni220D
Encoding: 8717 8717 87
Width: 429
GlyphClass: 2
Flags: MW
HStem: -1 58 157 64<207.5 244 244 256 167 329> 385 55<241.5 262.5 231.5 282.5>
VStem: 352 104<230 292.5>
LayerCount: 2
Fore
SplineSet
154 -1 m 0
 117 -1 102 -1 102 26 c 0
 102 37 108 50 118 57 c 0
 127 61 129 63 178 63 c 0
 213 66 231 66 240 68 c 0
 280 79 309 106 324 146 c 2
 329 157 l 1
 244 157 l 2
 171 157 158 157 153 161 c 0
 147 163 140 175 140 183 c 0
 140 195 149 208 158 215 c 2
 167 221 l 1
 256 221 l 1
 344 223 l 1
 349 237 l 2
 351 254 352 272 352 287 c 0
 352 298 352 308 351 315 c 0
 340 356 309 385 256 385 c 0
 227 385 199 375 164 355 c 0
 157 349 153 346 149 346 c 0
 142 346 132 376 132 388 c 0
 132 395 136 399 147 406 c 0
 174 425 211 440 252 440 c 0
 273 440 302 438 318 435 c 0
 388 414 431 371 451 301 c 0
 456 288 456 279 456 248 c 0
 456 212 456 206 451 188 c 0
 425 92 337 26 240 3 c 0
 226 1 185 -1 154 -1 c 0
EndSplineSet
Validated: 1
EndChar

StartChar: minus
Encoding: 8722 8722 88
Width: 500
GlyphClass: 2
Flags: MW
HStem: 230 40<98 402 98 402>
LayerCount: 2
Fore
SplineSet
84 250 m 0
 84 261 90 266 98 270 c 1
 402 270 l 1
 410 266 417 261 417 250 c 0
 417 239 410 234 402 230 c 1
 98 230 l 1
 90 234 84 239 84 250 c 0
EndSplineSet
Validated: 1
EndChar

StartChar: uni2214
Encoding: 8724 8724 89
Width: 778
GlyphClass: 2
Flags: MW
HStem: 230 40<71 369 71 369 409 707> 666 100<376 401.5 374.5 403>
VStem: 339 100<703 729.5 703 730.5> 369 40<-79 230 -79 230 270 425 425 425>
LayerCount: 2
Fore
SplineSet
339 717 m 0xe0
 339 744 361 766 388 766 c 0
 415 766 439 743 439 716 c 0
 439 690 416 666 390 666 c 0
 362 666 339 688 339 717 c 0xe0
57 250 m 0
 57 261 63 266 71 270 c 1
 369 270 l 1
 369 425 l 1
 370 581 l 2
 374 586 379 594 389 594 c 0
 399 594 405 587 409 579 c 1
 409 270 l 1
 707 270 l 1
 715 266 722 261 722 250 c 0
 722 239 715 234 707 230 c 1
 409 230 l 1
 409 -79 l 1
 405 -87 400 -93 389 -93 c 0
 378 -93 373 -87 369 -79 c 1
 369 230 l 1xd0
 71 230 l 1
 63 234 57 239 57 250 c 0
EndSplineSet
Validated: 1
EndChar

StartChar: uni2216
Encoding: 8726 8726 90
Width: 778
GlyphClass: 2
Flags: W
LayerCount: 2
Fore
SplineSet
91 410 m 0
 91 419 102 430 111 430 c 0
 115 430 171 390 395 224 c 0
 547 110 675 15 678 10 c 0
 682 6 685 1 685 -3 c 0
 685 -12 673 -23 664 -23 c 0
 655 -23 101 391 98 397 c 0
 94 401 91 406 91 410 c 0
EndSplineSet
Validated: 1
EndChar

StartChar: proportional
Encoding: 8733 8733 91
Width: 778
GlyphClass: 2
Flags: MW
HStem: 28 40<272 309.5> 431 41<227.5 279>
VStem: 56 40<232.5 268> 459 61<200.5 262.5>
LayerCount: 2
Fore
SplineSet
722 48 m 0
 722 35 711 28 698 28 c 0
 629 28 566 65 531 107 c 0
 516 125 500 153 493 174 c 2
 490 184 l 1
 479 159 465 129 448 107 c 0
 412 62 342 28 277 28 c 0
 227 28 177 45 136 79 c 0
 111 100 92 124 77 154 c 0
 63 186 56 215 56 250 c 0
 56 286 63 315 78 348 c 0
 112 413 179 472 276 472 c 0
 348 472 411 435 448 393 c 0
 463 375 479 347 486 326 c 2
 489 316 l 1
 500 341 514 371 531 393 c 0
 566 435 629 472 698 472 c 0
 711 472 722 465 722 452 c 0
 722 437 711 433 693 432 c 0
 646 429 603 410 571 377 c 0
 537 341 520 299 520 250 c 0
 520 145 598 74 693 68 c 0
 711 67 722 63 722 48 c 0
278 68 m 0
 383 68 459 151 459 250 c 0
 459 275 455 296 447 317 c 0
 423 376 371 419 308 430 c 0
 302 431 285 431 273 431 c 0
 173 431 96 347 96 250 c 0
 96 193 116 156 147 123 c 0
 174 95 208 78 248 70 c 0
 254 69 266 68 278 68 c 0
EndSplineSet
Validated: 1
EndChar

StartChar: angle
Encoding: 8736 8736 92
Width: 722
GlyphClass: 2
Flags: MW
HStem: 0 40<386 651> 674 20G<645.5 652>
LayerCount: 2
Fore
SplineSet
71 0 m 1
 64 4 55 9 55 20 c 0
 55 23 56 25 57 28 c 0
 59 31 153 141 346 361 c 0
 603 656 633 690 638 692 c 0
 641 693 644 694 647 694 c 0
 657 694 666 686 666 674 c 0
 666 670 665 666 663 663 c 0
 661 661 539 520 390 350 c 2
 120 41 l 1
 386 40 l 1
 653 40 l 1
 660 35 666 29 666 20 c 0
 666 10 660 4 651 0 c 1
 71 0 l 1
EndSplineSet
Validated: 1
EndChar

StartChar: uni2221
Encoding: 8737 8737 93
Width: 722
GlyphClass: 2
Flags: MW
HStem: 0 40<256 394 256 396 436 436 436 651>
VStem: 396 40<-4 0 0 0>
LayerCount: 2
Fore
SplineSet
71 0 m 1
 64 4 55 9 55 20 c 0
 55 23 56 25 57 28 c 0
 62 35 629 708 638 712 c 0
 641 713 643 714 646 714 c 0
 655 714 666 706 666 694 c 0
 666 690 665 686 663 683 c 0
 658 678 329 294 329 288 c 0
 329 280 412 209 433 54 c 1
 434 40 l 1
 651 40 l 1
 659 36 666 31 666 20 c 0
 666 9 659 4 651 0 c 1
 436 0 l 1
 433 -11 429 -20 416 -20 c 0
 407 -20 398 -12 396 -4 c 2
 396 0 l 1
 71 0 l 1
319 234 m 2
 302 256 l 1
 119 41 l 1
 256 40 l 1
 394 40 l 1
 394 41 390 69 387 83 c 0
 374 139 351 193 319 234 c 2
EndSplineSet
Validated: 1
EndChar

StartChar: uni2222
Encoding: 8738 8738 94
Width: 722
GlyphClass: 2
Flags: MW
HStem: -51 36<642.5 657> 515 36<644.5 657>
VStem: 55 66<249.5 250.5 249.5 251> 526 40<222 283.5>
LayerCount: 2
Fore
SplineSet
666 -32 m 0
 666 -43 657 -51 646 -51 c 0
 639 -51 580 -21 365 85 c 2
 75 228 l 2
 61 235 60 236 58 241 c 0
 56 244 55 248 55 250 c 0
 55 252 56 256 58 259 c 0
 60 264 61 265 72 270 c 2
 611 536 l 2
 634 547 642 551 647 551 c 0
 657 551 666 542 666 532 c 0
 666 525 663 519 657 515 c 2
 525 449 l 2
 525 448 528 441 531 432 c 0
 555 372 566 323 566 250 c 0
 566 176 555 128 531 68 c 0
 528 59 525 52 525 51 c 2
 657 -15 l 2
 663 -19 666 -25 666 -32 c 0
526 250 m 0
 526 317 515 361 495 416 c 0
 492 424 489 431 488 431 c 0
 487 431 121 251 121 250 c 0
 121 249 487 69 488 69 c 0
 489 69 500 97 504 111 c 0
 519 156 526 194 526 250 c 0
EndSplineSet
Validated: 1
EndChar

StartChar: uni2223
Encoding: 8739 8739 95
Width: 222
GlyphClass: 2
Flags: MW
VStem: 91 40<-10 417 -10 417>
LayerCount: 2
Fore
SplineSet
91 417 m 1
 96 422 103 430 111 430 c 0
 119 430 126 422 131 417 c 1
 131 -10 l 1
 126 -14 118 -23 111 -23 c 0
 104 -23 96 -14 91 -10 c 1
 91 417 l 1
EndSplineSet
Validated: 1
EndChar

StartChar: uni2224
Encoding: 8740 8740 96
Width: 278
GlyphClass: 2
Flags: MW
VStem: 118 40<44 328 328 328 579 737 737 737>
LayerCount: 2
Fore
SplineSet
118 737 m 1
 123 743 129 750 138 750 c 2
 151 746 l 1
 158 739 l 1
 158 579 l 1
 160 421 l 1
 213 470 l 2
 264 515 269 519 276 519 c 0
 287 519 296 510 296 499 c 0
 296 490 300 495 213 417 c 2
 158 368 l 1
 158 -239 l 1
 152 -244 144 -252 136 -252 c 2
 124 -248 l 1
 120 -241 l 1
 118 44 l 1
 118 328 l 1
 62 279 l 2
 11 235 7 230 0 230 c 0
 -11 230 -20 239 -20 250 c 0
 -20 259 -24 255 62 332 c 2
 118 384 l 1
 118 737 l 1
EndSplineSet
Validated: 33
EndChar

StartChar: uni2225
Encoding: 8741 8741 97
Width: 389
GlyphClass: 2
Flags: MW
VStem: 55 40<-10 417 417 417> 293 38<-10 -10 -10 417>
LayerCount: 2
Fore
SplineSet
55 417 m 1
 60 422 68 431 76 431 c 0
 84 431 90 424 95 419 c 1
 95 -12 l 1
 90 -17 84 -23 76 -23 c 0
 68 -23 61 -15 55 -10 c 1
 55 417 l 1
331 -10 m 1
 325 -15 317 -23 309 -23 c 2
 297 -19 l 1
 293 -12 l 1
 293 419 l 1
 297 426 l 2
 301 429 306 431 310 431 c 2
 324 424 l 1
 331 417 l 1
 331 -10 l 1
EndSplineSet
Validated: 1
EndChar

StartChar: uni2226
Encoding: 8742 8742 98
Width: 500
GlyphClass: 2
Flags: MW
VStem: 131 40<-237 101 101 101 199 737> 327 40<-237 301 301 301 397 737>
LayerCount: 2
Fore
SplineSet
131 737 m 1
 136 742 144 750 151 750 c 0
 159 750 166 742 171 737 c 1
 171 199 l 1
 327 357 l 1
 327 737 l 1
 332 742 339 750 347 750 c 0
 354 750 362 742 367 737 c 1
 367 397 l 1
 429 457 l 2
 487 514 491 519 498 519 c 0
 506 519 518 507 518 500 c 0
 518 490 502 474 442 417 c 2
 367 339 l 1
 367 -237 l 1
 362 -242 353 -250 346 -250 c 2
 333 -243 l 1
 327 -237 l 1
 327 301 l 1
 171 143 l 1
 171 -237 l 1
 166 -241 158 -250 151 -250 c 0
 144 -250 136 -242 131 -237 c 1
 131 101 l 1
 69 41 l 2
 11 -17 7 -21 0 -21 c 0
 -9 -21 -20 -9 -20 -2 c 0
 -20 8 -3 24 56 81 c 2
 131 159 l 1
 131 737 l 1
EndSplineSet
Validated: 1
EndChar

StartChar: therefore
Encoding: 8756 8756 99
Width: 667
GlyphClass: 2
Flags: MW
HStem: -82 120<66.5 100.5 566.5 600.5> 351 120<316.5 350 316.5 350>
VStem: 24 119<-39.5 -4.5> 273 120<394 427.5 394 428> 524 119<-39.5 -5 -39.5 -4.5>
LayerCount: 2
Fore
SplineSet
273 411 m 0
 273 445 299 471 334 471 c 0
 366 471 393 444 393 411 c 0
 393 377 367 351 333 351 c 0
 299 351 273 377 273 411 c 0
143 -22 m 0
 143 -57 118 -82 83 -82 c 0
 48 -82 24 -57 24 -22 c 0
 24 13 49 38 84 38 c 0
 118 38 143 13 143 -22 c 0
583 -82 m 0
 548 -82 524 -57 524 -22 c 0
 524 13 549 38 584 38 c 0
 618 38 643 12 643 -22 c 0
 643 -57 618 -82 583 -82 c 0
EndSplineSet
Validated: 1
EndChar

StartChar: uni2235
Encoding: 8757 8757 100
Width: 667
GlyphClass: 2
Flags: MW
HStem: -82 120<316.5 350.5> 351 120<66.5 100 66.5 100 566.5 600>
VStem: 23 120<394 427.5 394 428> 274 118<-39.5 -5 -39.5 -4.5> 523 120<394 427.5 394 428>
CounterMasks: 1 38
LayerCount: 2
Fore
SplineSet
23 411 m 0
 23 445 49 471 84 471 c 0
 116 471 143 444 143 411 c 0
 143 377 117 351 83 351 c 0
 49 351 23 377 23 411 c 0
523 411 m 0
 523 445 549 471 584 471 c 0
 616 471 643 444 643 411 c 0
 643 377 617 351 583 351 c 0
 549 351 523 377 523 411 c 0
333 -82 m 0
 298 -82 274 -57 274 -22 c 0
 274 13 299 38 334 38 c 0
 368 38 392 12 392 -22 c 0
 392 -57 368 -82 333 -82 c 0
EndSplineSet
Validated: 1
EndChar

StartChar: similar
Encoding: 8764 8764 101
Width: 778
GlyphClass: 2
Flags: MW
HStem: 132 76<549.5 572 549.5 599.5> 290 74<208.5 221 208.5 223 208.5 231>
VStem: 55 31<162.5 179.5 158.5 194> 688 31
LayerCount: 2
Fore
SplineSet
73 132 m 0
 58 132 55 153 55 172 c 0
 55 216 64 239 79 272 c 0
 91 294 93 299 111 319 c 0
 137 343 162 356 195 363 c 0
 199 364 205 364 212 364 c 0
 230 364 253 362 266 359 c 0
 302 350 333 330 408 272 c 0
 457 234 488 219 522 212 c 0
 533 209 544 208 555 208 c 0
 589 208 621 221 646 243 c 0
 673 270 684 294 688 330 c 0
 691 352 695 361 702 365 c 1
 719 365 719 343 719 314 c 0
 713 217 650 132 549 132 c 0
 540 132 532 132 524 134 c 0
 484 143 455 159 402 199 c 0
 306 272 279 285 231 290 c 1
 223 290 l 2
 184 290 151 277 124 248 c 0
 99 221 86 194 86 165 c 0
 86 152 79 134 73 132 c 0
EndSplineSet
Validated: 1
EndChar

StartChar: uni223D
Encoding: 8765 8765 102
Width: 778
GlyphClass: 2
Flags: MW
HStem: 133 56<210.5 236> 311 56<550 577.5>
VStem: 56 21<291.5 341> 694 28<162 171 162 176.5>
LayerCount: 2
Fore
SplineSet
550 367 m 0
 659 367 717 273 722 171 c 0
 722 153 721 145 716 139 c 0
 714 135 711 133 708 133 c 0
 701 133 694 145 694 162 c 0
 694 191 684 223 668 248 c 0
 641 289 600 311 555 311 c 0
 534 311 512 306 491 296 c 0
 465 284 443 267 396 225 c 0
 346 181 325 165 297 151 c 0
 271 139 250 133 222 133 c 0
 199 133 178 138 157 149 c 0
 101 178 56 248 56 335 c 0
 56 347 60 363 66 365 c 0
 70 368 73 367 77 364 c 0
 85 353 85 313 90 298 c 0
 105 241 152 189 223 189 c 0
 250 189 278 197 306 214 c 0
 326 227 344 241 383 275 c 0
 432 319 453 335 482 349 c 0
 505 360 526 366 550 367 c 0
EndSplineSet
Validated: 1
EndChar

StartChar: uni2241
Encoding: 8769 8769 103
Width: 778
GlyphClass: 2
Flags: MW
HStem: 132 77<542.5 555 555 562> 210 78<382 391.5> 289 77<213 220 220 232.5>
VStem: 55 31<162.5 180 159 194> 688 31
CounterMasks: 1 e0
LayerCount: 2
Fore
SplineSet
73 132 m 0
 58 132 55 153 55 172 c 0
 55 216 64 239 79 272 c 0
 91 294 93 299 111 319 c 0
 142 348 173 361 213 366 c 1
 220 366 l 2
 264 366 307 348 366 303 c 0
 383 292 388 288 391 288 c 0
 392 288 394 289 395 290 c 0
 397 292 428 328 464 370 c 0
 533 454 542 463 548 466 c 0
 550 467 551 467 553 467 c 0
 563 467 573 457 573 448 c 0
 573 441 564 428 499 350 c 0
 457 303 424 263 424 261 c 0
 424 259 464 232 482 226 c 0
 506 214 531 209 554 209 c 0
 589 209 621 221 646 243 c 0
 673 270 684 294 688 330 c 0
 691 352 695 361 702 366 c 1
 719 366 719 343 719 314 c 0
 717 279 713 259 695 226 c 0
 684 203 682 199 664 179 c 0
 633 150 602 137 562 132 c 1
 555 132 l 2
 511 132 468 150 408 194 c 0
 392 206 386 210 383 210 c 0
 381 210 381 209 379 208 c 0
 363 192 249 53 233 37 c 0
 229 33 225 32 220 32 c 0
 211 32 201 39 201 48 c 0
 201 58 217 77 275 148 c 0
 317 194 351 234 351 237 c 0
 351 239 311 266 293 272 c 0
 269 283 244 289 221 289 c 0
 199 289 177 284 157 274 c 0
 144 268 137 261 124 248 c 0
 99 221 86 194 86 166 c 0
 86 152 79 134 73 132 c 0
EndSplineSet
Validated: 1
EndChar

StartChar: uni2242
Encoding: 8770 8770 104
Width: 778
GlyphClass: 2
Flags: MW
HStem: 34 56<545.5 592 489.5 598.5> 201 56<203 234> 423 40<68 706 68 706>
VStem: 56 28 691 26
LayerCount: 2
Fore
SplineSet
55 443 m 0
 55 450 63 458 68 463 c 1
 706 463 l 1
 711 458 720 451 720 443 c 0
 720 435 711 428 706 423 c 1
 68 423 l 1
 63 428 55 435 55 443 c 0
717 221 m 0
 717 119 643 34 554 34 c 0
 537 34 520 37 502 43 c 0
 468 54 442 70 397 107 c 0
 333 161 319 170 293 183 c 0
 268 194 246 201 222 201 c 0
 184 201 153 187 126 161 c 0
 99 134 88 107 84 67 c 0
 82 43 77 34 71 34 c 0
 60 36 56 50 56 72 c 0
 56 79 56 88 57 96 c 0
 66 145 82 178 113 212 c 1
 146 242 175 257 224 257 c 0
 353 257 426 90 553 90 c 0
 631 90 683 152 691 223 c 0
 692 245 697 257 704 257 c 0
 707 257 710 256 713 252 c 0
 717 245 717 243 717 221 c 0
EndSplineSet
Validated: 1
EndChar

StartChar: uni2246
Encoding: 8774 8774 105
Width: 778
GlyphClass: 2
Flags: MW
HStem: 1 40<144 222 144 144 499 706 66 268> 196 40<68 202 68 68 557 706> 384 56<549 565.5> 523 55<207.5 228.5>
VStem: 55 29 691 27
LayerCount: 2
Fore
SplineSet
70 383 m 0
 58 383 55 402 55 417 c 0
 55 485 98 536 146 561 c 0
 173 574 193 578 222 578 c 0
 271 578 308 563 393 507 c 0
 435 478 482 452 484 454 c 2
 537 549 l 2
 566 601 593 645 595 647 c 0
 598 650 602 652 607 652 c 0
 617 652 628 644 628 634 c 0
 628 629 615 603 575 536 c 0
 546 485 524 445 524 443 c 0
 525 442 540 440 555 440 c 0
 630 440 684 490 691 547 c 0
 693 569 697 578 706 578 c 0
 713 578 718 572 718 556 c 0
 718 553 717 549 717 545 c 0
 717 469 668 407 595 387 c 0
 586 385 573 384 558 384 c 0
 540 384 521 386 508 389 c 2
 493 394 l 1
 404 238 l 1
 557 236 l 1
 708 236 l 1
 713 231 720 225 720 217 c 0
 720 209 711 201 706 196 c 1
 379 196 l 1
 291 43 l 1
 499 41 l 1
 708 41 l 1
 713 36 720 29 720 21 c 0
 720 13 712 6 706 1 c 1
 268 1 l 1
 226 -71 l 2
 204 -111 182 -146 179 -148 c 0
 175 -153 170 -155 165 -155 c 0
 155 -155 146 -147 146 -137 c 0
 146 -131 157 -113 184 -64 c 2
 222 1 l 1
 144 1 l 1
 66 3 l 1
 59 7 l 2
 56 11 54 16 54 20 c 0
 54 29 61 36 66 41 c 1
 246 41 l 1
 333 194 l 2
 333 196 282 196 202 196 c 2
 68 196 l 1
 63 202 55 210 55 218 c 0
 55 226 61 231 66 236 c 1
 213 236 l 1
 357 238 l 1
 457 409 l 1
 437 421 l 2
 426 425 399 445 375 461 c 0
 322 494 293 509 262 518 c 0
 249 522 235 523 222 523 c 0
 156 523 88 476 84 414 c 0
 83 394 77 383 70 383 c 0
EndSplineSet
Validated: 33
EndChar

StartChar: approxequal
Encoding: 8776 8776 106
Width: 778
GlyphClass: 2
Flags: MW
HStem: 50 76<528.5 579 528.5 584.5> 168 78<216 226 216 233.5> 286 75<527 576.5 527 599.5> 404 77<206.5 226 173 233.5>
VStem: 55 31<78 89 74.5 129 313.5 324.5> 688 31
LayerCount: 2
Fore
SplineSet
55 326 m 0
 55 414 120 481 226 481 c 0
 275 479 311 466 391 419 c 0
 472 375 499 361 555 361 c 0
 598 361 635 374 662 401 c 0
 679 417 686 428 688 450 c 0
 691 468 695 479 702 479 c 0
 703 479 704 480 705 480 c 0
 716 480 719 457 719 442 c 0
 719 345 645 286 554 286 c 0
 499 286 466 301 384 346 c 0
 346 368 322 381 302 388 c 0
 275 399 247 404 220 404 c 0
 193 404 168 399 144 388 c 0
 131 383 124 377 111 363 c 0
 93 346 86 332 86 317 c 0
 86 304 80 288 71 288 c 0
 62 288 55 301 55 326 c 0
86 81 m 0
 86 68 80 52 71 52 c 0
 62 52 55 66 55 90 c 0
 55 168 102 223 182 241 c 0
 195 246 206 246 226 246 c 0
 275 243 311 230 391 183 c 0
 473 138 499 126 558 126 c 0
 600 126 636 140 662 166 c 0
 679 181 686 192 688 214 c 0
 691 234 695 244 704 244 c 0
 713 244 717 231 719 210 c 0
 719 186 715 159 704 134 c 0
 680 83 617 50 552 50 c 0
 499 50 464 67 384 110 c 0
 346 132 322 146 302 152 c 0
 275 163 247 168 220 168 c 0
 193 168 168 163 144 152 c 0
 131 148 124 141 111 128 c 0
 93 110 86 97 86 81 c 0
EndSplineSet
Validated: 1
EndChar

StartChar: uni224A
Encoding: 8778 8778 107
Width: 778
GlyphClass: 2
Flags: MW
HStem: -39 38<62 387 62 387> 148 55<544 552 544 553> 288 55<213.5 222 222 229 213.5 231> 384 55<544 551 551 562.5> 523 56<212.5 220 220 228 212.5 231>
VStem: 56 28<177 182.5 177 186 412 417.5> 691 28<307.5 312>
LayerCount: 2
Fore
SplineSet
187 575 m 0
 195 577 206 579 219 579 c 0
 237 579 258 576 271 572 c 0
 298 566 338 543 393 508 c 0
 467 459 502 443 544 439 c 1
 551 439 l 2
 594 439 636 457 662 486 c 0
 682 506 689 523 693 557 c 0
 693 568 700 579 707 579 c 0
 715 579 719 566 719 548 c 0
 719 474 676 421 618 397 c 0
 599 388 575 384 550 384 c 0
 534 384 518 386 504 390 c 0
 478 397 438 419 384 455 c 0
 309 503 273 519 231 523 c 1
 220 523 l 2
 164 523 110 489 91 441 c 0
 89 437 84 423 84 412 c 0
 82 392 78 383 69 383 c 0
 61 383 56 395 56 413 c 0
 56 429 59 449 67 470 c 0
 82 521 129 563 187 575 c 0
719 313 m 0
 719 218 644 148 552 148 c 2
 544 148 l 2
 531 150 513 152 504 155 c 0
 478 161 438 183 384 219 c 0
 309 268 273 283 231 288 c 1
 222 288 l 2
 165 288 110 254 91 206 c 0
 89 201 84 188 84 177 c 0
 82 157 78 148 69 148 c 0
 61 148 56 160 56 178 c 0
 56 194 59 214 67 235 c 0
 82 286 129 328 187 339 c 0
 195 342 207 343 220 343 c 0
 238 343 258 341 271 337 c 0
 298 330 338 308 393 272 c 0
 467 223 502 208 544 203 c 1
 553 203 l 2
 610 203 665 238 684 286 c 0
 687 290 691 303 691 312 c 0
 692 332 698 343 705 343 c 0
 717 343 719 326 719 313 c 0
62 -39 m 1
 57 -33 51 -28 51 -19 c 0
 51 -14 52 -9 55 -5 c 2
 62 -1 l 1
 387 -1 l 2
 615 -1 713 -1 715 -3 c 0
 719 -6 725 -13 725 -20 c 0
 725 -25 722 -30 718 -34 c 0
 713 -39 709 -39 387 -39 c 2
 62 -39 l 1
EndSplineSet
Validated: 1
EndChar

StartChar: uni224E
Encoding: 8782 8782 108
Width: 778
GlyphClass: 2
Flags: MW
HStem: 8 41<378.5 400.5> 133 40<72 245 70 268 532 608 608 657.5 532 532> 327 40<72 245 70 268 72 72 532 608> 451 41<368.5 399>
LayerCount: 2
Fore
SplineSet
56 347 m 0
 56 358 62 363 70 367 c 1
 245 367 l 1
 254 440 310 492 392 492 c 0
 467 492 524 434 532 367 c 1
 707 367 l 1
 715 363 722 358 722 347 c 0
 722 338 718 333 712 330 c 0
 708 328 707 327 608 327 c 2
 509 327 l 1
 499 332 496 335 494 351 c 0
 490 395 466 426 433 443 c 0
 417 450 409 451 389 451 c 0
 348 451 323 436 305 411 c 0
 291 393 285 376 283 351 c 0
 281 335 279 333 268 327 c 1
 72 327 l 2
 62 330 56 335 56 347 c 0
56 153 m 0
 56 165 62 170 72 173 c 2
 268 173 l 1
 278 168 281 165 283 149 c 0
 287 105 311 74 344 57 c 0
 360 50 368 49 389 49 c 0
 429 49 454 65 472 89 c 0
 486 107 492 124 494 149 c 0
 496 165 498 167 509 173 c 1
 608 173 l 2
 707 173 708 172 712 170 c 0
 717 167 722 162 722 153 c 0
 722 142 715 137 707 133 c 1
 532 133 l 1
 525 81 492 41 451 22 c 0
 430 12 412 8 389 8 c 0
 331 8 292 37 267 73 c 0
 255 91 248 112 245 133 c 1
 70 133 l 1
 62 137 56 142 56 153 c 0
EndSplineSet
Validated: 1
EndChar

StartChar: uni224F
Encoding: 8783 8783 109
Width: 778
GlyphClass: 2
Flags: MW
HStem: 133 40<72 707 70 708> 327 40<72 245 70 268 72 72 532 608> 451 41<368.5 399>
LayerCount: 2
Fore
SplineSet
56 347 m 0
 56 358 62 363 70 367 c 1
 245 367 l 1
 254 440 310 492 392 492 c 0
 467 492 524 434 532 367 c 1
 707 367 l 1
 715 363 722 358 722 347 c 0
 722 338 718 333 712 330 c 0
 708 328 707 327 608 327 c 2
 509 327 l 1
 499 332 496 335 494 351 c 0
 490 395 466 426 433 443 c 0
 417 450 409 451 389 451 c 0
 348 451 323 436 305 411 c 0
 291 393 285 376 283 351 c 0
 281 335 279 333 268 327 c 1
 72 327 l 2
 62 330 56 335 56 347 c 0
56 153 m 0
 56 165 62 170 72 173 c 2
 708 173 l 1
 714 168 722 165 722 153 c 0
 722 142 715 137 707 133 c 1
 70 133 l 1
 62 137 56 142 56 153 c 0
EndSplineSet
Validated: 1
EndChar

StartChar: uni2251
Encoding: 8785 8785 110
Width: 778
GlyphClass: 2
Flags: MW
HStem: -108 135<370 391 370 409.5> 133 40<72 707 70 708> 327 40<72 390 72 72> 474 135<370 391 370 409.5>
VStem: 321 135<-62 -20 520 562>
LayerCount: 2
Fore
SplineSet
321 541 m 0
 321 583 349 609 391 609 c 1
 431 605 456 583 456 541 c 0
 456 499 430 474 389 474 c 0
 347 474 321 499 321 541 c 0
56 347 m 0
 56 358 62 363 70 367 c 1
 707 367 l 1
 715 363 722 358 722 347 c 0
 722 336 715 332 708 328 c 2
 390 327 l 1
 72 327 l 2
 62 330 56 335 56 347 c 0
56 153 m 0
 56 165 62 170 72 173 c 2
 708 173 l 1
 714 168 722 165 722 153 c 0
 722 142 715 137 707 133 c 1
 70 133 l 1
 62 137 56 142 56 153 c 0
321 -41 m 0
 321 1 349 27 391 27 c 1
 431 23 456 1 456 -41 c 0
 456 -83 430 -108 389 -108 c 0
 347 -108 321 -83 321 -41 c 0
EndSplineSet
Validated: 1
EndChar

StartChar: uni2252
Encoding: 8786 8786 111
Width: 778
GlyphClass: 2
Flags: MW
HStem: -101 119<685.5 718.5> 133 40<72 707 70 708> 327 40<72 390 72 72> 481 120<58.5 91.5>
VStem: 15 120<524.5 557.5> 642 120<-57.5 -23.5>
LayerCount: 2
Fore
SplineSet
15 541 m 0
 15 574 41 601 75 601 c 0
 108 601 135 574 135 541 c 0
 135 507 108 481 75 481 c 0
 42 481 15 508 15 541 c 0
56 347 m 0
 56 358 62 363 70 367 c 1
 707 367 l 1
 715 363 722 358 722 347 c 0
 722 336 715 332 708 328 c 2
 390 327 l 1
 72 327 l 2
 62 330 56 335 56 347 c 0
56 153 m 0
 56 165 62 170 72 173 c 2
 708 173 l 1
 714 168 722 165 722 153 c 0
 722 142 715 137 707 133 c 1
 70 133 l 1
 62 137 56 142 56 153 c 0
702 -101 m 0
 669 -101 642 -75 642 -41 c 0
 642 -6 668 18 702 18 c 0
 737 18 762 -5 762 -41 c 0
 762 -74 735 -101 702 -101 c 0
EndSplineSet
Validated: 1
EndChar

StartChar: uni2253
Encoding: 8787 8787 112
Width: 778
GlyphClass: 2
Flags: MW
HStem: -102 120<57.5 91 57 92> 133 40<72 707 70 708> 327 40<72 390 72 72> 481 120<685.5 718.5>
VStem: 14 121<-58 -23.5 -58 -23> 642 120<524.5 557 524.5 558>
LayerCount: 2
Fore
SplineSet
642 541 m 0
 642 575 668 601 702 601 c 0
 735 601 762 573 762 541 c 0
 762 508 735 481 702 481 c 0
 669 481 642 507 642 541 c 0
56 347 m 0
 56 358 62 363 70 367 c 1
 707 367 l 1
 715 363 722 358 722 347 c 0
 722 336 715 332 708 328 c 2
 390 327 l 1
 72 327 l 2
 62 330 56 335 56 347 c 0
56 153 m 0
 56 165 62 170 72 173 c 2
 708 173 l 1
 714 168 722 165 722 153 c 0
 722 142 715 137 707 133 c 1
 70 133 l 1
 62 137 56 142 56 153 c 0
14 -41 m 0
 14 -5 40 18 74 18 c 0
 108 18 135 -6 135 -41 c 0
 135 -75 109 -102 75 -102 c 0
 40 -102 14 -76 14 -41 c 0
EndSplineSet
Validated: 1
EndChar

StartChar: uni2256
Encoding: 8790 8790 113
Width: 778
GlyphClass: 2
Flags: MW
HStem: 133 40<72 312 349 428 465 586 586 646.5 70 312> 327 40<72 312 72 72 349 349 349 428 465 586 465 465>
VStem: 281 23<235 265> 473 23<235 265 235 270.5>
LayerCount: 2
Fore
SplineSet
56 347 m 0
 56 358 62 363 70 367 c 1
 707 367 l 1
 715 363 722 358 722 347 c 0
 722 338 718 333 712 330 c 0
 708 328 707 327 586 327 c 2
 465 327 l 1
 472 318 l 2
 487 300 496 280 496 250 c 0
 496 220 487 200 472 182 c 2
 465 173 l 1
 586 173 l 2
 707 173 708 172 712 170 c 0
 717 167 722 162 722 153 c 0
 722 142 715 137 707 133 c 1
 70 133 l 1
 62 137 56 142 56 153 c 0
 56 165 62 170 72 173 c 2
 312 173 l 1
 305 182 l 2
 290 200 281 220 281 250 c 0
 281 280 290 300 305 318 c 2
 312 327 l 1
 72 327 l 2
 62 330 56 335 56 347 c 0
473 250 m 0
 473 291 454 310 428 327 c 1
 349 327 l 1
 323 310 304 291 304 250 c 0
 304 209 323 190 349 173 c 1
 428 173 l 1
 454 190 473 209 473 250 c 0
EndSplineSet
Validated: 1
EndChar

StartChar: uni2257
Encoding: 8791 8791 114
Width: 778
GlyphClass: 2
Flags: MW
HStem: 133 40<72 707 70 708> 327 40<72 390 72 72> 503 40<373.5 415.5 362.5 421> 680 41<365.5 389>
VStem: 279 41<593 616.5 585.5 644> 458 40<587.5 634>
LayerCount: 2
Fore
SplineSet
498 612 m 0
 498 551 453 503 389 503 c 0
 358 503 345 509 327 521 c 0
 301 538 279 574 279 612 c 0
 279 676 329 721 388 721 c 0
 448 721 498 672 498 612 c 0
389 543 m 0
 442 543 458 561 458 614 c 0
 458 654 445 671 415 679 c 0
 409 680 395 680 383 680 c 0
 348 680 328 667 321 639 c 0
 320 633 320 622 320 611 c 0
 320 560 336 543 389 543 c 0
56 347 m 0
 56 358 62 363 70 367 c 1
 707 367 l 1
 715 363 722 358 722 347 c 0
 722 336 715 332 708 328 c 2
 390 327 l 1
 72 327 l 2
 62 330 56 335 56 347 c 0
56 153 m 0
 56 165 62 170 72 173 c 2
 708 173 l 1
 714 168 722 165 722 153 c 0
 722 142 715 137 707 133 c 1
 70 133 l 1
 62 137 56 142 56 153 c 0
EndSplineSet
Validated: 1
EndChar

StartChar: uni225C
Encoding: 8796 8796 115
Width: 778
GlyphClass: 2
Flags: MW
HStem: 133 40<72 708 70 709> 327 40<72 390 72 72> 482 40<345.5 432.5 345.5 587>
VStem: 175 55<495.5 523.5>
LayerCount: 2
Fore
SplineSet
192 482 m 2
 182 485 175 490 175 501 c 0
 175 504 176 508 178 512 c 0
 186 528 373 851 375 853 c 0
 377 855 380 857 383 857 c 0
 387 858 388 859 390 859 c 0
 395 859 400 856 403 853 c 0
 405 851 592 528 600 512 c 0
 602 508 603 504 603 501 c 0
 603 491 596 486 587 482 c 1
 192 482 l 2
548 523 m 2
 389 798 l 2
 388 798 230 524 230 523 c 0
 230 522 302 522 389 522 c 0
 476 522 548 522 548 523 c 2
56 347 m 0
 56 358 62 363 70 367 c 1
 708 367 l 1
 716 363 723 358 723 347 c 0
 723 336 716 332 709 328 c 2
 390 327 l 1
 72 327 l 2
 62 330 56 335 56 347 c 0
56 153 m 0
 56 165 62 170 72 173 c 2
 709 173 l 1
 715 168 723 165 723 153 c 0
 723 142 716 137 708 133 c 1
 70 133 l 1
 62 137 56 142 56 153 c 0
EndSplineSet
Validated: 1
EndChar

StartChar: uni2266
Encoding: 8806 8806 116
Width: 778
GlyphClass: 2
Flags: MW
HStem: -175 40<98 678 99 678 99 679> 19 40<99 678 99 679 98 678> 718 35
LayerCount: 2
Fore
SplineSet
674 753 m 0
 686 753 694 741 694 732 c 0
 694 726 692 722 687 718 c 0
 685 716 564 659 417 589 c 2
 151 463 l 1
 399 345 l 2
 715 196 687 209 691 204 c 0
 693 200 694 197 694 193 c 0
 694 183 687 174 676 173 c 2
 670 173 l 1
 382 309 l 2
 223 384 92 446 90 448 c 0
 86 451 83 458 83 465 c 0
 84 473 87 477 96 482 c 0
 107 487 659 748 665 751 c 0
 669 753 671 753 674 753 c 0
84 39 m 0
 84 49 91 54 99 59 c 1
 678 59 l 1
 687 55 694 50 694 39 c 0
 694 28 687 23 679 19 c 1
 98 19 l 1
 90 23 84 30 84 39 c 0
98 -175 m 1
 90 -171 84 -165 83 -157 c 0
 83 -144 91 -140 99 -135 c 1
 678 -135 l 1
 686 -140 694 -144 694 -155 c 0
 694 -164 687 -171 679 -175 c 1
 98 -175 l 1
EndSplineSet
Validated: 1
EndChar

StartChar: uni2267
Encoding: 8807 8807 117
Width: 778
GlyphClass: 2
Flags: MW
HStem: -175 40<98 678 99 678 99 679> 19 40<99 678 99 679 98 678> 718 35
LayerCount: 2
Fore
SplineSet
83 733 m 0
 83 740 90 753 99 753 c 0
 116 753 686 479 687 478 c 0
 691 475 694 469 694 463 c 0
 694 457 691 451 687 448 c 0
 685 446 554 384 395 309 c 2
 107 173 l 1
 101 173 l 2
 90 174 83 183 83 193 c 0
 83 197 84 200 86 204 c 0
 90 209 62 196 378 345 c 2
 626 463 l 1
 360 589 l 2
 213 659 92 716 90 718 c 0
 87 721 83 727 83 733 c 0
84 39 m 0
 84 49 91 54 99 59 c 1
 678 59 l 1
 687 55 694 50 694 39 c 0
 694 28 687 23 679 19 c 1
 98 19 l 1
 90 23 84 30 84 39 c 0
98 -175 m 1
 90 -171 84 -165 83 -157 c 0
 83 -144 91 -140 99 -135 c 1
 678 -135 l 1
 686 -140 694 -144 694 -155 c 0
 694 -164 687 -171 679 -175 c 1
 98 -175 l 1
EndSplineSet
Validated: 1
EndChar

StartChar: uni2268
Encoding: 8808 8808 118
Width: 778
GlyphClass: 2
Flags: MW
HStem: -182 40<171 249 171 171 513 680 95 304> 14 40<262 433 262 262 604 680 95 489>
LayerCount: 2
Fore
SplineSet
86 472 m 0
 96 480 670 752 673 752 c 0
 682 752 693 741 693 732 c 0
 693 730 691 723 689 721 c 0
 686 716 593 672 418 590 c 2
 151 461 l 1
 418 332 l 2
 593 250 686 205 689 201 c 0
 691 198 693 192 693 190 c 0
 693 181 682 170 675 170 c 0
 666 170 93 443 86 450 c 0
 83 453 82 457 82 461 c 0
 82 465 83 468 86 472 c 0
82 33 m 0
 82 41 90 48 95 54 c 1
 473 54 l 1
 520 105 l 2
 546 132 569 156 571 156 c 0
 573 157 576 157 578 157 c 0
 588 157 598 149 598 136 c 0
 598 130 593 125 562 92 c 2
 526 56 l 1
 604 54 l 1
 682 54 l 1
 687 49 693 43 693 35 c 0
 693 27 685 20 680 14 c 1
 489 14 l 1
 342 -139 l 1
 513 -142 l 1
 682 -142 l 1
 687 -146 693 -152 693 -160 c 0
 693 -168 685 -176 680 -182 c 1
 304 -182 l 1
 258 -230 l 2
 231 -257 209 -282 204 -284 c 0
 202 -285 199 -286 197 -286 c 0
 187 -286 178 -276 178 -264 c 0
 178 -257 182 -253 213 -219 c 2
 249 -182 l 1
 171 -182 l 1
 93 -179 l 1
 86 -175 l 2
 83 -171 82 -167 82 -163 c 0
 82 -155 90 -147 95 -142 c 1
 289 -142 l 1
 360 -64 l 1
 433 14 l 1
 262 14 l 1
 93 16 l 2
 87 20 82 24 82 33 c 0
EndSplineSet
Validated: 1
EndChar

StartChar: uni2269
Encoding: 8809 8809 119
Width: 778
GlyphClass: 2
Flags: MW
HStem: -182 40<171 249 171 171 513 680 95 304> 14 40<262 433 262 262 604 680 95 489>
LayerCount: 2
Fore
SplineSet
89 745 m 0
 93 750 98 752 100 752 c 0
 109 752 682 478 689 472 c 0
 691 470 693 465 693 461 c 0
 693 456 691 452 689 450 c 0
 682 443 109 170 100 170 c 0
 93 170 82 181 82 190 c 0
 82 192 84 198 86 201 c 0
 89 205 182 250 358 332 c 2
 624 461 l 1
 358 590 l 2
 182 672 89 716 86 721 c 0
 83 724 82 727 82 731 c 0
 82 736 84 741 89 745 c 0
82 33 m 0
 82 41 90 48 95 54 c 1
 473 54 l 1
 520 105 l 2
 546 132 569 156 571 156 c 0
 573 157 576 157 578 157 c 0
 588 157 598 149 598 136 c 0
 598 130 593 125 562 92 c 2
 526 56 l 1
 604 54 l 1
 682 54 l 1
 687 49 693 43 693 35 c 0
 693 27 685 20 680 14 c 1
 489 14 l 1
 342 -139 l 1
 513 -142 l 1
 682 -142 l 1
 687 -146 693 -152 693 -160 c 0
 693 -168 685 -176 680 -182 c 1
 304 -182 l 1
 258 -230 l 2
 231 -257 209 -282 204 -284 c 0
 202 -285 199 -286 197 -286 c 0
 187 -286 178 -276 178 -264 c 0
 178 -257 182 -253 213 -219 c 2
 249 -182 l 1
 171 -182 l 1
 93 -179 l 1
 86 -175 l 2
 83 -171 82 -167 82 -163 c 0
 82 -155 90 -147 95 -142 c 1
 289 -142 l 1
 360 -64 l 1
 433 14 l 1
 262 14 l 1
 93 16 l 2
 87 20 82 24 82 33 c 0
EndSplineSet
Validated: 1
EndChar

StartChar: uni226C
Encoding: 8812 8812 120
Width: 500
GlyphClass: 2
Flags: MW
VStem: 75 59<211 215.5 198.5 290> 364 60<211 215.5 285 290>
LayerCount: 2
Fore
SplineSet
104 730 m 0
 104 742 112 749 123 749 c 0
 128 749 133 748 138 745 c 0
 169 727 206 699 237 671 c 2
 250 659 l 1
 261 670 l 2
 286 693 310 712 337 730 c 0
 360 744 368 750 375 750 c 0
 386 750 395 741 395 730 c 0
 395 720 392 717 379 709 c 0
 362 698 338 681 322 668 c 0
 310 658 286 636 283 632 c 0
 279 627 278 629 293 612 c 0
 368 523 415 407 424 290 c 0
 424 280 425 265 425 250 c 0
 425 235 424 220 424 211 c 0
 415 93 368 -23 293 -112 c 0
 278 -129 279 -127 283 -132 c 0
 286 -136 310 -158 322 -168 c 0
 338 -181 362 -198 379 -209 c 0
 392 -217 395 -220 395 -230 c 0
 395 -241 386 -250 375 -250 c 0
 368 -250 360 -245 337 -230 c 0
 310 -212 287 -193 262 -171 c 2
 250 -159 l 1
 238 -170 l 2
 213 -193 189 -212 162 -230 c 0
 139 -244 131 -250 124 -250 c 0
 113 -250 104 -241 104 -230 c 0
 104 -220 107 -217 121 -209 c 0
 137 -198 161 -181 177 -168 c 0
 189 -158 213 -136 216 -132 c 0
 220 -127 221 -129 206 -112 c 0
 131 -23 84 93 75 211 c 0
 75 220 74 235 74 250 c 0
 74 265 75 280 75 290 c 0
 84 407 131 523 206 612 c 0
 221 629 220 627 216 632 c 0
 213 636 189 658 177 668 c 0
 161 681 137 698 121 709 c 0
 107 717 104 720 104 730 c 0
249 -94 m 1
 318 -2 364 104 364 250 c 0
 364 387 323 488 265 574 c 0
 256 584 254 588 249 594 c 1
 242 583 l 1
 182 503 146 408 136 301 c 0
 135 292 134 271 134 250 c 0
 134 147 154 74 192 -1 c 0
 206 -31 222 -57 242 -83 c 2
 249 -94 l 1
EndSplineSet
Validated: 1
EndChar

StartChar: uni226E
Encoding: 8814 8814 121
Width: 778
GlyphClass: 2
Flags: MW
HStem: -209 1
VStem: 82 69<249 251 249 251>
LayerCount: 2
Fore
SplineSet
693 -20 m 0
 693 -27 682 -41 675 -41 c 0
 671 -41 595 -6 506 37 c 2
 344 112 l 2
 342 112 306 41 262 -46 c 0
 187 -190 179 -209 168 -209 c 0
 166 -209 164 -209 162 -208 c 0
 153 -208 146 -199 146 -190 c 0
 146 -186 155 -163 171 -137 c 0
 184 -110 220 -39 251 21 c 2
 306 132 l 1
 198 183 l 2
 129 214 89 234 86 239 c 0
 83 242 82 246 82 249 c 0
 82 253 84 257 86 261 c 0
 91 266 162 301 278 357 c 2
 464 443 l 1
 529 572 l 2
 578 672 595 701 600 706 c 0
 602 707 605 708 607 708 c 0
 617 708 629 698 629 688 c 0
 629 686 606 637 575 579 c 2
 524 474 l 2
 524 472 558 488 598 508 c 0
 635 526 671 541 673 541 c 0
 682 541 693 530 693 521 c 0
 693 519 691 512 689 510 c 0
 686 506 646 486 589 459 c 2
 493 414 l 1
 360 150 l 1
 372 146 435 113 529 70 c 0
 624 23 684 -6 689 -10 c 0
 692 -13 693 -16 693 -20 c 0
380 277 m 1
 433 383 l 2
 431 386 151 252 151 250 c 0
 151 248 322 168 324 170 c 2
 380 277 l 1
EndSplineSet
Validated: 33
EndChar

StartChar: uni226F
Encoding: 8815 8815 122
Width: 778
GlyphClass: 2
Flags: MW
HStem: -209 1 330 38<455 473>
LayerCount: 2
Fore
SplineSet
82 520 m 0
 82 527 93 541 100 541 c 0
 104 541 180 506 271 463 c 0
 360 421 433 386 435 386 c 2
 515 543 l 2
 575 663 595 701 600 706 c 0
 602 707 605 708 607 708 c 0
 617 708 629 698 629 688 c 0
 629 683 598 621 549 526 c 0
 506 439 471 368 473 368 c 2
 473 368 522 343 580 317 c 0
 642 288 684 266 689 261 c 0
 691 259 693 254 693 250 c 0
 693 246 691 241 689 239 c 0
 684 234 615 201 502 146 c 0
 402 99 320 59 315 59 c 0
 313 57 284 1 246 -74 c 0
 186 -192 178 -209 168 -209 c 0
 166 -209 164 -209 162 -208 c 0
 153 -208 146 -199 146 -190 c 0
 146 -188 171 -137 200 -79 c 2
 253 28 l 1
 252 28 114 -41 100 -41 c 0
 93 -41 82 -30 82 -21 c 0
 82 -19 84 -12 86 -10 c 0
 89 -6 129 14 186 41 c 2
 284 88 l 1
 349 217 l 2
 386 290 415 350 413 350 c 1
 413 352 340 386 253 428 c 0
 153 474 91 506 86 510 c 0
 83 513 82 516 82 520 c 0
542 290 m 0
 495 312 458 330 455 330 c 0
 453 332 438 303 398 223 c 2
 342 114 l 1
 624 250 l 1
 624 250 586 270 542 290 c 0
EndSplineSet
Validated: 33
EndChar

StartChar: uni2270
Encoding: 8816 8816 123
Width: 778
GlyphClass: 2
Flags: MW
HStem: -143 40<146 202 146 146 262 464 95 246>
VStem: 82 69<342.5 345 342.5 346> 146 32
LayerCount: 2
Fore
SplineSet
82 -124 m 0xc0
 82 -116 90 -109 95 -103 c 1
 220 -103 l 1
 284 50 l 2
 320 139 346 204 344 206 c 2
 218 268 l 2
 144 301 91 328 86 333 c 0
 83 336 82 340 82 344 c 0xc0
 82 348 83 351 86 355 c 0
 91 359 160 395 291 455 c 0
 400 508 491 550 491 553 c 2
 542 673 l 2
 575 753 593 793 598 797 c 0
 600 799 604 801 609 801 c 0
 618 801 629 790 629 781 c 0
 629 779 611 733 586 677 c 0
 564 624 546 579 546 577 c 1
 609 606 l 2
 640 621 671 635 673 635 c 0
 682 635 693 624 693 615 c 0
 693 613 691 606 689 604 c 0
 686 601 649 581 604 561 c 2
 524 521 l 1
 400 226 l 1
 542 157 l 2
 638 113 686 88 689 84 c 0
 692 80 694 76 694 72 c 0
 694 64 688 54 679 54 c 0
 666 54 635 68 526 121 c 0
 449 157 384 188 384 186 c 1
 382 186 355 119 322 41 c 2
 262 -103 l 1
 680 -103 l 1
 685 -109 693 -116 693 -124 c 0
 693 -132 688 -137 682 -141 c 2
 464 -143 l 1
 246 -143 l 1
 213 -219 l 2
 193 -267 180 -296 178 -299 c 0
 175 -301 169 -303 166 -303 c 0
 158 -303 146 -292 146 -283 c 0
 146 -282 202 -144 202 -143 c 1
 146 -143 l 1xa0
 93 -141 l 2
 87 -137 82 -133 82 -124 c 0xc0
418 370 m 2
 466 495 l 1
 464 495 151 346 151 344 c 0
 151 341 364 241 364 244 c 0
 364 246 389 304 418 370 c 2
EndSplineSet
Validated: 33
EndChar

StartChar: uni2271
Encoding: 8817 8817 124
Width: 778
GlyphClass: 2
Flags: MW
HStem: -143 40<146 202 146 146 262 464 95 246> 186 55<386 406>
VStem: 146 32 598 31
LayerCount: 2
Fore
SplineSet
97 54 m 0
 88 54 82 64 82 72 c 0
 82 76 83 80 86 84 c 0
 91 88 140 113 222 153 c 2
 351 215 l 1
 398 324 l 1
 442 433 l 1
 258 519 l 2
 160 566 91 599 86 604 c 0
 84 606 82 610 82 615 c 0
 82 624 93 635 102 635 c 0
 106 635 206 588 424 484 c 2
 458 468 l 1
 524 630 l 2
 571 739 593 793 598 797 c 0
 600 799 604 801 609 801 c 0
 618 801 629 790 629 781 c 0
 629 779 598 704 562 615 c 2
 493 450 l 1
 589 406 l 2
 651 377 686 359 689 355 c 0
 692 351 694 348 694 344 c 0
 694 340 692 336 689 333 c 0
 684 328 622 297 538 257 c 0
 455 219 389 186 386 186 c 0
 382 184 360 128 322 39 c 2
 262 -103 l 1
 680 -103 l 1
 685 -109 693 -116 693 -124 c 0
 693 -132 688 -137 682 -141 c 2
 464 -143 l 1
 246 -143 l 1
 213 -219 l 2
 193 -267 180 -296 178 -299 c 0
 175 -301 169 -303 166 -303 c 0
 158 -303 146 -292 146 -283 c 0
 146 -282 202 -144 202 -143 c 1
 146 -143 l 1
 93 -141 l 2
 87 -137 82 -133 82 -124 c 0
 82 -116 90 -109 95 -103 c 1
 220 -103 l 1
 273 26 l 2
 302 97 326 155 326 157 c 1
 218 106 l 2
 134 66 109 54 97 54 c 0
553 379 m 2
 513 397 480 413 480 415 c 1
 478 415 404 241 406 241 c 0
 409 239 624 341 624 344 c 2
 553 379 l 2
EndSplineSet
Validated: 33
EndChar

StartChar: uni2272
Encoding: 8818 8818 125
Width: 778
GlyphClass: 2
Flags: MW
HStem: -227 56<536 561.5> -51 57<218 227.5 218 241.5> 697 35
VStem: 56 27 694 28
LayerCount: 2
Fore
SplineSet
674 732 m 0
 686 732 694 720 694 711 c 0
 694 705 692 701 687 697 c 0
 685 695 564 638 417 568 c 2
 151 442 l 1
 399 324 l 2
 715 175 687 188 691 183 c 0
 693 179 694 176 694 172 c 0
 694 162 687 153 676 152 c 2
 670 152 l 1
 382 288 l 2
 223 363 92 425 90 427 c 0
 86 430 83 437 83 444 c 0
 84 452 87 456 96 461 c 0
 107 466 659 727 665 730 c 0
 669 732 671 732 674 732 c 0
69 -228 m 0
 59 -228 56 -215 56 -202 c 2
 56 -194 l 2
 56 -86 122 -9 201 4 c 0
 206 5 214 6 222 6 c 0
 233 6 245 5 253 3 c 0
 309 -9 350 -46 395 -86 c 0
 435 -121 452 -135 473 -147 c 0
 499 -163 517 -171 554 -171 c 0
 572 -171 581 -170 595 -165 c 0
 650 -148 691 -91 694 -29 c 0
 695 -8 698 6 708 6 c 0
 719 6 722 -12 722 -26 c 0
 722 -132 658 -210 581 -226 c 0
 575 -227 566 -227 557 -227 c 0
 515 -227 494 -219 464 -200 c 0
 442 -187 422 -172 382 -136 c 0
 342 -101 325 -87 304 -75 c 0
 278 -59 260 -51 223 -51 c 0
 205 -51 196 -52 182 -57 c 0
 129 -74 87 -126 83 -196 c 0
 82 -214 81 -228 69 -228 c 0
EndSplineSet
Validated: 1
EndChar

StartChar: uni2273
Encoding: 8819 8819 126
Width: 778
GlyphClass: 2
Flags: MW
HStem: -227 56<536 561.5> -51 57<218 227.5 218 241.5> 697 35
VStem: 56 27 694 28
LayerCount: 2
Fore
SplineSet
83 713 m 0
 83 719 89 732 99 732 c 0
 116 732 686 458 687 457 c 0
 691 454 694 448 694 442 c 0
 694 436 691 430 687 427 c 0
 685 425 554 363 395 288 c 2
 107 152 l 1
 101 152 l 2
 90 153 83 162 83 172 c 0
 83 176 84 179 86 183 c 0
 90 188 62 175 378 324 c 2
 626 442 l 1
 360 568 l 2
 213 638 92 695 90 697 c 0
 86 701 83 707 83 713 c 0
69 -228 m 0
 59 -228 56 -215 56 -202 c 2
 56 -194 l 2
 56 -86 122 -9 201 4 c 0
 206 5 214 6 222 6 c 0
 233 6 245 5 253 3 c 0
 309 -9 350 -46 395 -86 c 0
 435 -121 452 -135 473 -147 c 0
 499 -163 517 -171 554 -171 c 0
 572 -171 581 -170 595 -165 c 0
 650 -148 691 -91 694 -29 c 0
 695 -8 698 6 708 6 c 0
 719 6 722 -12 722 -26 c 0
 722 -132 658 -210 581 -226 c 0
 575 -227 566 -227 557 -227 c 0
 515 -227 494 -219 464 -200 c 0
 442 -187 422 -172 382 -136 c 0
 342 -101 325 -87 304 -75 c 0
 278 -59 260 -51 223 -51 c 0
 205 -51 196 -52 182 -57 c 0
 129 -74 87 -126 83 -196 c 0
 82 -214 81 -228 69 -228 c 0
EndSplineSet
Validated: 1
EndChar

StartChar: uni2276
Encoding: 8822 8822 127
Width: 778
GlyphClass: 2
Flags: MW
HStem: -253 37 161 37 230 37 644 37
LayerCount: 2
Fore
SplineSet
734 181 m 0
 734 172 725 161 714 161 c 0
 710 161 64 398 54 404 c 0
 48 407 44 412 44 421 c 0
 44 428 47 434 52 437 c 0
 57 439 707 681 714 681 c 0
 725 681 734 670 734 661 c 0
 734 654 730 648 723 644 c 0
 721 642 584 592 420 531 c 2
 122 421 l 1
 420 311 l 2
 584 250 721 200 723 198 c 0
 730 194 734 188 734 181 c 0
44 247 m 0
 44 256 52 267 63 267 c 0
 67 267 713 30 723 24 c 0
 730 20 734 14 734 7 c 0
 734 0 730 -6 723 -10 c 0
 713 -16 67 -253 63 -253 c 0
 52 -253 44 -242 44 -233 c 0
 44 -226 47 -220 54 -216 c 0
 56 -214 193 -164 357 -103 c 2
 655 7 l 1
 357 117 l 2
 193 178 56 228 54 230 c 0
 47 234 44 240 44 247 c 0
EndSplineSet
Validated: 1
EndChar

StartChar: uni2277
Encoding: 8823 8823 128
Width: 778
GlyphClass: 2
Flags: MW
HStem: -253 38 161 38 232 35
LayerCount: 2
Fore
SplineSet
83 661 m 0
 83 671 91 681 104 681 c 0
 107 680 175 652 396 560 c 0
 554 493 685 438 687 436 c 0
 691 433 694 427 694 421 c 0
 694 415 691 409 687 406 c 0
 686 405 113 161 101 161 c 0
 91 162 83 170 83 180 c 0
 83 189 87 195 95 199 c 0
 98 200 218 251 361 311 c 2
 621 421 l 1
 357 532 l 2
 212 593 92 644 90 646 c 0
 87 649 83 655 83 661 c 0
673 267 m 0
 684 267 694 260 694 248 c 0
 694 242 691 235 687 232 c 0
 685 230 565 179 420 118 c 2
 156 7 l 1
 416 -103 l 2
 559 -163 679 -214 683 -215 c 0
 689 -219 694 -224 694 -233 c 0
 694 -243 686 -252 676 -253 c 0
 663 -253 91 -9 90 -8 c 0
 86 -4 83 1 83 7 c 0
 83 14 87 21 94 24 c 0
 98 26 657 262 667 266 c 0
 669 267 671 267 673 267 c 0
EndSplineSet
Validated: 1
EndChar

StartChar: uni227C
Encoding: 8828 8828 129
Width: 778
GlyphClass: 2
Flags: MW
HStem: 0 21G<666.5 678> 116 40<111 123> 270 40<109 140 108.5 157.5>
VStem: 653 40
LayerCount: 2
Fore
SplineSet
694 17 m 1
 690 9 684 0 672 0 c 0
 661 0 655 12 653 24 c 0
 638 146 539 221 352 252 c 0
 289 263 197 270 118 270 c 0
 100 270 99 270 94 273 c 0
 88 275 83 283 83 290 c 0
 83 297 89 304 94 307 c 0
 98 310 99 310 118 310 c 0
 162 310 228 313 270 317 c 0
 452 334 565 382 620 464 c 0
 637 489 649 522 653 556 c 0
 655 572 660 580 675 580 c 0
 687 578 693 572 693 558 c 2
 693 552 l 1
 677 391 528 319 372 290 c 1
 372 290 379 288 387 287 c 0
 408 283 445 273 465 266 c 0
 567 233 634 183 669 112 c 0
 681 86 690 55 693 28 c 2
 694 17 l 1
583 -131 m 0
 583 -145 576 -153 563 -153 c 0
 547 -153 545 -146 542 -127 c 0
 534 -76 514 -37 478 0 c 0
 407 70 280 112 123 116 c 0
 99 116 98 116 93 119 c 0
 89 122 83 130 83 136 c 0
 83 151 95 156 113 156 c 0
 153 156 205 151 247 144 c 0
 385 121 488 65 542 -15 c 0
 562 -45 578 -89 583 -131 c 0
EndSplineSet
Validated: 1
EndChar

StartChar: uni227D
Encoding: 8829 8829 130
Width: 778
GlyphClass: 2
Flags: MW
HStem: 0 21G<98.5 104> 116 40<656 661> 270 40
VStem: 83 41 194 41
LayerCount: 2
Fore
SplineSet
83 562 m 0
 83 571 93 580 103 580 c 0
 118 580 122 569 124 553 c 0
 130 509 146 474 173 442 c 0
 238 368 362 325 553 314 c 0
 583 312 633 310 659 310 c 0
 685 310 682 310 691 301 c 0
 693 297 694 296 694 290 c 0
 694 284 693 283 691 279 c 0
 685 272 682 271 664 270 c 0
 527 268 438 259 358 238 c 0
 216 201 139 132 124 27 c 0
 122 11 120 7 112 3 c 0
 109 1 105 0 103 0 c 0
 94 0 85 8 83 16 c 0
 82 25 88 56 96 80 c 0
 117 144 161 194 229 231 c 0
 275 257 341 277 405 290 c 1
 405 290 398 292 390 293 c 0
 369 297 332 307 312 314 c 0
 195 352 124 413 96 500 c 0
 89 522 83 551 83 562 c 0
212 -154 m 0
 202 -152 194 -145 194 -131 c 0
 200 -66 229 -14 270 27 c 0
 345 101 471 147 628 155 c 0
 636 155 651 156 661 156 c 0
 682 155 685 155 690 147 c 0
 693 144 694 140 694 136 c 0
 694 127 687 122 681 117 c 1
 656 116 l 2
 504 110 371 72 299 0 c 0
 263 -37 243 -76 235 -127 c 0
 233 -146 228 -154 212 -154 c 0
EndSplineSet
Validated: 33
EndChar

StartChar: uni227E
Encoding: 8830 8830 131
Width: 778
GlyphClass: 2
Flags: MW
HStem: -227 56<536 561.5> -51 57<218 227.5 218 241.5> 422 40<118 137>
VStem: 56 27 653 41 694 28
LayerCount: 2
Fore
SplineSet
694 176 m 0
 694 161 687 153 674 153 c 0
 658 153 656 160 653 179 c 0
 647 222 632 255 606 287 c 0
 549 356 441 398 281 414 c 0
 236 418 194 421 137 422 c 0
 99 422 98 422 94 424 c 0
 88 428 84 433 84 442 c 0
 84 451 88 456 94 460 c 0
 98 462 99 462 137 462 c 0
 194 463 236 466 281 470 c 0
 441 486 549 528 606 597 c 0
 632 629 647 662 653 705 c 0
 655 724 660 732 676 732 c 0
 687 730 694 723 694 708 c 0
 689 657 667 606 639 573 c 0
 586 510 491 466 373 442 c 1
 404 435 442 426 472 416 c 0
 496 408 512 401 533 392 c 0
 613 352 663 297 685 223 c 0
 689 209 693 187 694 176 c 0
69 -228 m 0
 59 -228 56 -215 56 -202 c 2
 56 -194 l 2
 56 -86 122 -9 201 4 c 0
 206 5 214 6 222 6 c 0
 233 6 245 5 253 3 c 0
 309 -9 350 -46 395 -86 c 0
 435 -121 452 -135 473 -147 c 0
 499 -163 517 -171 554 -171 c 0
 572 -171 581 -170 595 -165 c 0
 650 -148 691 -91 694 -29 c 0
 695 -8 698 6 708 6 c 0
 719 6 722 -12 722 -26 c 0
 722 -132 658 -210 581 -226 c 0
 575 -227 566 -227 557 -227 c 0
 515 -227 494 -219 464 -200 c 0
 442 -187 422 -172 382 -136 c 0
 342 -101 325 -87 304 -75 c 0
 278 -59 260 -51 223 -51 c 0
 205 -51 196 -52 182 -57 c 0
 129 -74 87 -126 83 -196 c 0
 82 -214 81 -228 69 -228 c 0
EndSplineSet
Validated: 8388609
EndChar

StartChar: uni227F
Encoding: 8831 8831 132
Width: 778
GlyphClass: 2
Flags: MW
HStem: -227 56<536 561.5> -51 57<218 227.5 218 241.5> 424 39
VStem: 56 27 83 41 694 28
LayerCount: 2
Fore
SplineSet
674 463 m 0
 683 463 694 456 694 442 c 0
 694 432 689 428 683 424 c 0
 679 422 678 422 640 422 c 0
 449 418 320 393 235 341 c 0
 170 302 134 249 124 179 c 0
 121 160 119 153 103 153 c 0
 90 153 83 161 83 176 c 0
 88 227 110 278 138 311 c 0
 191 374 286 418 404 442 c 1
 373 449 335 458 305 468 c 0
 281 476 265 483 245 492 c 0
 164 532 114 587 92 661 c 0
 88 678 84 699 84 710 c 0
 84 723 90 732 102 732 c 0
 105 732 108 731 112 729 c 0
 120 725 122 721 124 705 c 0
 130 662 145 629 171 597 c 0
 228 528 336 486 497 470 c 0
 541 466 583 463 640 462 c 0
 658 462 668 463 674 463 c 0
69 -228 m 0
 59 -228 56 -215 56 -202 c 2
 56 -194 l 2
 56 -86 122 -9 201 4 c 0
 206 5 214 6 222 6 c 0
 233 6 245 5 253 3 c 0
 309 -9 350 -46 395 -86 c 0
 435 -121 452 -135 473 -147 c 0
 499 -163 517 -171 554 -171 c 0
 572 -171 581 -170 595 -165 c 0
 650 -148 691 -91 694 -29 c 0
 695 -8 698 6 708 6 c 0
 719 6 722 -12 722 -26 c 0
 722 -132 658 -210 581 -226 c 0
 575 -227 566 -227 557 -227 c 0
 515 -227 494 -219 464 -200 c 0
 442 -187 422 -172 382 -136 c 0
 342 -101 325 -87 304 -75 c 0
 278 -59 260 -51 223 -51 c 0
 205 -51 196 -52 182 -57 c 0
 129 -74 87 -126 83 -196 c 0
 82 -214 81 -228 69 -228 c 0
EndSplineSet
Validated: 8388609
EndChar

StartChar: uni2280
Encoding: 8832 8832 133
Width: 778
GlyphClass: 2
Flags: MW
HStem: 201 38<386 415 386 415> 228 40<95 124 95 124>
VStem: 651 40
LayerCount: 2
Fore
SplineSet
386 292 m 1x60
 391 292 590 698 598 703 c 0
 600 703 606 705 609 705 c 0
 618 705 629 694 629 685 c 0
 629 683 591 605 533 494 c 0
 482 392 440 308 440 305 c 1
 440 305 451 310 462 312 c 0
 575 352 633 412 651 505 c 0
 655 532 660 539 673 539 c 0
 682 539 693 528 693 519 c 0
 693 508 684 468 678 450 c 0
 651 376 591 321 500 283 c 0
 475 274 424 259 418 259 c 0
 415 259 406 243 406 241 c 0
 406 239 411 239 415 239 c 0
 446 232 511 208 544 190 c 0
 629 145 680 76 691 -10 c 0
 693 -26 693 -28 691 -32 c 0
 686 -40 679 -43 672 -43 c 0
 667 -43 662 -41 658 -37 c 0
 655 -32 653 -24 651 -12 c 0
 640 68 586 130 500 168 c 0
 465 182 402 201 388 201 c 2
 386 201 l 1xa0
 284 -1 l 2
 224 -117 180 -204 178 -206 c 0
 175 -206 169 -208 166 -208 c 0
 158 -208 146 -197 146 -188 c 0
 146 -186 186 -106 246 12 c 0
 300 119 344 208 344 210 c 0
 344 216 200 228 124 228 c 2
 95 228 l 1
 90 233 82 241 82 248 c 0
 82 255 90 263 95 268 c 1
 124 268 l 2
 164 268 231 272 275 276 c 0
 309 279 386 290 386 292 c 1x60
EndSplineSet
Validated: 1
EndChar

StartChar: uni2281
Encoding: 8833 8833 134
Width: 778
GlyphClass: 2
Flags: MW
HStem: 185 51<321 356.5> 228 40<631 680 651 680> 256 36<360 389 360 389>
VStem: 82 42
LayerCount: 2
Fore
SplineSet
103 -43 m 0x90
 96 -43 82 -38 82 -26 c 0
 82 -23 83 -18 84 -10 c 0
 98 90 162 165 275 212 c 0
 300 221 351 236 355 236 c 0
 358 236 362 241 364 245 c 2
 369 256 l 1
 360 256 l 1
 344 261 300 274 275 283 c 0
 169 328 106 394 86 490 c 0
 83 503 82 511 82 517 c 0
 82 529 92 538 103 538 c 0
 107 538 111 537 115 534 c 0
 120 530 120 525 124 505 c 0
 142 410 202 350 320 310 c 0
 340 303 386 292 389 292 c 2xb0
 491 496 l 2
 551 614 595 701 598 703 c 0
 600 703 606 705 609 705 c 0
 618 705 629 694 629 685 c 0
 629 683 589 603 531 485 c 0
 475 379 431 290 431 288 c 0
 431 285 433 283 446 281 c 0
 493 274 591 268 651 268 c 2
 680 268 l 1
 684 263 693 254 693 248 c 0
 693 240 685 233 680 228 c 1
 651 228 l 2x50
 611 228 544 223 500 219 c 0
 458 216 389 205 386 201 c 2
 284 -1 l 2
 224 -117 180 -204 178 -206 c 0
 175 -206 169 -208 166 -208 c 0
 158 -208 146 -197 146 -188 c 0
 146 -184 202 -72 302 125 c 2
 335 190 l 1
 324 185 l 2
 318 185 302 179 289 172 c 0
 191 134 135 72 124 -12 c 0
 122 -24 120 -32 118 -37 c 0
 114 -41 109 -43 103 -43 c 0x90
EndSplineSet
Validated: 1
EndChar

StartChar: uni2288
Encoding: 8840 8840 135
Width: 778
GlyphClass: 2
Flags: MW
HStem: -143 40<115 202 115 220 262 464 115 246> 53 40<515 680 511 682> 595 40<435 435 435 471>
VStem: 83 40<334 354 334 354.5> 146 32
LayerCount: 2
Fore
SplineSet
103 -123 m 0
 103 -116 111 -108 115 -103 c 1
 220 -103 l 1
 291 68 l 1
 278 73 l 2
 178 110 109 188 86 288 c 0
 84 302 83 323 83 344 c 0
 83 365 84 386 86 399 c 0
 100 453 124 499 160 539 c 0
 198 577 249 608 298 621 c 0
 338 633 340 633 435 635 c 2
 526 637 l 1
 560 715 l 2
 582 766 595 795 598 797 c 0
 600 799 606 801 609 801 c 0
 618 801 629 790 629 781 c 0
 629 779 615 746 600 706 c 2
 571 637 l 2
 571 635 595 635 626 635 c 2
 680 635 l 1
 685 629 693 621 693 613 c 0
 693 609 692 605 689 601 c 2
 682 597 l 1
 618 595 l 1
 553 595 l 1
 449 346 l 2
 393 208 346 97 346 95 c 1
 349 95 424 93 515 93 c 2
 682 93 l 1
 687 88 693 82 693 74 c 0
 693 66 685 58 680 53 c 1
 511 53 l 2
 420 55 340 55 335 55 c 2
 329 57 l 1
 262 -103 l 1
 680 -103 l 1
 685 -109 693 -116 693 -124 c 0
 693 -132 688 -137 682 -141 c 2
 464 -143 l 1
 246 -143 l 1
 213 -219 l 2
 193 -267 180 -296 178 -299 c 0
 175 -301 169 -303 166 -303 c 0
 158 -303 146 -292 146 -283 c 0
 146 -282 202 -144 202 -143 c 1
 115 -143 l 1
 110 -137 103 -131 103 -123 c 0
509 590 m 0
 509 595 504 595 438 595 c 0
 362 595 346 593 318 586 c 0
 222 561 149 488 126 395 c 0
 124 384 123 364 123 344 c 0
 123 324 124 304 126 293 c 0
 146 208 206 141 291 110 c 2
 306 104 l 1
 406 346 l 2
 462 479 506 588 509 590 c 0
EndSplineSet
Validated: 1
EndChar

StartChar: uni2289
Encoding: 8841 8841 136
Width: 778
GlyphClass: 2
Flags: MW
HStem: -143 40<95 202 95 220 262 453 95 246> 53 40<189 284 189 189 95 366 95 326> 597 38<93 251>
VStem: 146 32 652 39<334 354>
LayerCount: 2
Fore
SplineSet
82 613 m 0
 82 621 90 629 95 635 c 1
 251 635 l 2
 346 635 415 635 426 633 c 0
 449 630 484 621 502 615 c 2
 515 608 l 1
 520 617 l 2
 520 621 538 661 558 708 c 0
 580 764 593 793 598 797 c 0
 600 799 604 801 609 801 c 0
 618 801 629 790 629 781 c 0
 629 777 613 737 562 615 c 2
 551 590 l 1
 569 577 l 2
 620 544 658 493 678 437 c 0
 689 404 691 384 691 344 c 0
 691 304 689 284 678 250 c 0
 644 159 564 88 469 64 c 0
 435 55 413 53 366 53 c 2
 326 53 l 1
 295 -25 l 1
 262 -103 l 1
 660 -103 l 1
 666 -110 673 -117 673 -125 c 0
 673 -128 672 -132 669 -136 c 2
 662 -141 l 1
 453 -143 l 1
 246 -143 l 1
 213 -219 l 2
 193 -267 180 -296 178 -299 c 0
 175 -301 169 -303 166 -303 c 0
 158 -303 146 -292 146 -283 c 0
 146 -282 202 -144 202 -143 c 1
 95 -143 l 1
 91 -138 82 -130 82 -123 c 0
 82 -116 91 -108 95 -103 c 1
 220 -103 l 1
 251 -25 l 1
 284 53 l 1
 189 53 l 1
 93 55 l 1
 86 59 l 2
 83 63 82 67 82 71 c 0
 82 79 90 87 95 93 c 1
 302 93 l 1
 400 333 l 2
 471 504 498 569 498 573 c 0
 498 575 457 587 444 590 c 0
 429 593 404 593 260 595 c 2
 93 597 l 1
 86 601 l 2
 83 605 82 609 82 613 c 0
575 521 m 0
 569 528 555 539 549 544 c 0
 543 549 539 551 537 551 c 0
 535 551 534 550 533 548 c 0
 533 546 491 444 438 319 c 2
 344 95 l 1
 371 93 l 1
 386 93 l 2
 519 93 620 181 649 293 c 0
 651 304 652 324 652 344 c 0
 652 364 651 384 649 395 c 0
 638 444 609 490 575 521 c 0
EndSplineSet
Validated: 1
EndChar

StartChar: uni228A
Encoding: 8842 8842 137
Width: 778
GlyphClass: 2
Flags: MW
HStem: -143 40<224 335 224 224 562 680 115 395> 52 40<442 680 526 680 526 680> 595 40<520 526 526 680>
VStem: 84 40<324.5 362 324.5 363>
LayerCount: 2
Fore
SplineSet
693 72 m 0
 693 65 685 57 680 52 c 1
 524 52 l 2
 360 52 346 52 309 63 c 0
 211 88 131 159 98 250 c 0
 86 283 84 303 84 343 c 0
 84 383 86 403 98 437 c 0
 135 541 233 617 346 632 c 0
 353 632 433 635 520 635 c 2
 680 635 l 1
 684 630 693 621 693 615 c 0
 693 607 685 600 680 595 c 1
 526 595 l 2
 431 595 364 595 353 592 c 0
 255 579 171 517 138 430 c 0
 126 397 124 381 124 343 c 0
 124 306 126 290 138 257 c 0
 171 170 255 108 353 95 c 0
 364 92 431 92 526 92 c 2
 680 92 l 1
 685 87 693 80 693 72 c 0
102 -125 m 0
 102 -117 110 -109 115 -103 c 1
 382 -103 l 1
 420 -68 l 2
 442 -48 466 -25 473 -19 c 0
 484 -10 490 -5 496 -5 c 0
 506 -5 515 -17 515 -28 c 0
 515 -31 515 -34 513 -37 c 0
 511 -39 493 -54 475 -70 c 2
 440 -101 l 1
 562 -103 l 1
 682 -103 l 1
 687 -108 693 -114 693 -122 c 0
 693 -130 685 -138 680 -143 c 1
 395 -143 l 1
 355 -179 l 2
 293 -237 286 -241 280 -241 c 0
 271 -241 260 -230 260 -221 c 0
 260 -212 262 -210 300 -174 c 2
 335 -143 l 1
 224 -143 l 1
 113 -141 l 1
 106 -137 l 2
 103 -133 102 -129 102 -125 c 0
EndSplineSet
Validated: 1
EndChar

StartChar: uni228B
Encoding: 8843 8843 138
Width: 778
GlyphClass: 2
Flags: MW
HStem: -143 40<218 342 218 218 549 660 95 395> 52 40<95 249 249 251 95 249> 595 40<95 249 95 251>
VStem: 651 40<324.5 362>
LayerCount: 2
Fore
SplineSet
82 615 m 0
 82 621 91 630 95 635 c 1
 251 635 l 2
 415 635 429 635 469 623 c 0
 564 599 644 528 678 437 c 0
 689 403 691 383 691 343 c 0
 691 303 689 283 678 250 c 0
 640 146 542 70 426 55 c 0
 415 52 346 52 251 52 c 2
 95 52 l 1
 90 57 82 65 82 72 c 0
 82 80 90 87 95 92 c 1
 249 92 l 2
 344 92 411 92 422 95 c 0
 520 108 604 170 638 257 c 0
 649 290 651 306 651 343 c 0
 651 381 649 397 638 430 c 0
 604 517 520 579 422 592 c 0
 411 595 344 595 249 595 c 2
 95 595 l 1
 90 600 82 607 82 615 c 0
82 -125 m 0
 82 -117 90 -109 95 -103 c 1
 380 -103 l 1
 420 -57 l 2
 444 -30 464 -10 466 -8 c 0
 469 -6 471 -6 474 -6 c 0
 484 -6 495 -15 495 -25 c 0
 495 -32 493 -34 451 -81 c 2
 433 -101 l 1
 549 -103 l 1
 662 -103 l 1
 667 -108 673 -114 673 -122 c 0
 673 -130 665 -138 660 -143 c 1
 395 -143 l 1
 355 -190 l 2
 331 -217 311 -239 309 -239 c 0
 307 -240 304 -241 302 -241 c 0
 292 -241 280 -231 280 -221 c 0
 280 -214 282 -212 324 -163 c 2
 342 -143 l 1
 218 -143 l 1
 93 -141 l 1
 86 -137 l 2
 83 -133 82 -129 82 -125 c 0
EndSplineSet
Validated: 1
EndChar

StartChar: uni228F
Encoding: 8847 8847 139
Width: 778
GlyphClass: 2
Flags: MW
HStem: -41 40<123 678 123 679 98 678> 499 40<123 679 123 123>
VStem: 83 40<247 499 -1 523 -1 523>
LayerCount: 2
Fore
SplineSet
694 -21 m 0
 694 -32 687 -37 679 -41 c 1
 98 -41 l 2
 91 -38 88 -33 84 -28 c 2
 83 247 l 1
 83 523 l 2
 86 529 87 533 94 536 c 2
 99 539 l 1
 679 539 l 1
 687 535 694 530 694 519 c 0
 694 508 687 503 679 499 c 1
 123 499 l 1
 123 -1 l 1
 678 -1 l 1
 687 -5 694 -10 694 -21 c 0
EndSplineSet
Validated: 1
EndChar

StartChar: uni2290
Encoding: 8848 8848 140
Width: 778
GlyphClass: 2
Flags: MW
HStem: -41 40<80 674 80 699 78 674> 499 40<78 674 78 699>
VStem: 674 40<-1 499 499 499>
LayerCount: 2
Fore
SplineSet
64 519 m 0
 64 530 70 535 78 539 c 1
 699 539 l 2
 706 536 710 531 714 526 c 1
 714 -28 l 1
 710 -33 706 -38 699 -41 c 2
 78 -41 l 1
 70 -37 64 -32 64 -21 c 0
 64 -9 70 -4 80 -1 c 2
 674 -1 l 1
 674 499 l 1
 78 499 l 1
 70 503 64 508 64 519 c 0
EndSplineSet
Validated: 1
EndChar

StartChar: uni229A
Encoding: 8858 8858 141
Width: 778
GlyphClass: 2
Flags: MW
HStem: -82 39<373 402> 112 39<384 394> 349 39<372.5 389.5 372.5 416> 543 39<361 390 361 426.5>
VStem: 57 39<237 263> 250 40<245 255> 488 40<245 255 245 279> 682 39<237 263 237 283.5>
LayerCount: 2
Fore
SplineSet
282 565 m 0
 311 576 340 582 382 582 c 0
 398 582 422 582 430 581 c 0
 499 571 557 545 610 500 c 0
 664 453 704 381 717 308 c 0
 721 286 721 276 721 250 c 0
 721 224 721 214 717 192 c 0
 706 129 675 67 630 20 c 0
 582 -30 515 -66 447 -78 c 0
 425 -82 415 -82 389 -82 c 0
 357 -82 336 -80 308 -73 c 0
 183 -42 84 63 61 192 c 0
 57 214 57 224 57 250 c 0
 57 276 57 286 61 308 c 0
 72 371 103 433 148 480 c 0
 184 518 232 548 282 565 c 0
389 -43 m 0
 550 -43 682 88 682 250 c 0
 682 317 659 381 617 434 c 0
 608 446 584 469 573 478 c 0
 522 519 463 543 390 543 c 0
 228 543 96 412 96 250 c 0
 96 183 119 119 161 66 c 0
 170 54 194 31 205 22 c 0
 249 -15 318 -43 389 -43 c 0
328 374 m 0
 343 381 361 388 384 388 c 0
 395 388 410 387 417 386 c 0
 472 374 514 331 526 275 c 0
 527 269 528 260 528 250 c 0
 528 240 527 231 526 225 c 0
 514 168 471 125 414 113 c 0
 408 112 399 112 389 112 c 0
 379 112 370 112 364 113 c 0
 307 125 264 168 252 225 c 0
 251 231 250 240 250 250 c 0
 250 260 251 269 252 275 c 0
 261 319 288 355 328 374 c 0
488 250 m 0
 488 308 443 349 389 349 c 0
 334 349 290 303 290 250 c 0
 290 191 340 151 389 151 c 0
 448 151 488 201 488 250 c 0
EndSplineSet
Validated: 1
EndChar

StartChar: uni229B
Encoding: 8859 8859 142
Width: 778
GlyphClass: 2
Flags: MW
HStem: -82 39<373 402> 126 93<228 282> 281 94<228.5 282> 543 39<361 390 361 426.5>
VStem: 57 39<237 263> 355 68<63 64.5> 682 39<237 263 237 283.5>
CounterMasks: 1 0e
LayerCount: 2
Fore
SplineSet
282 565 m 0
 311 576 340 582 382 582 c 0
 398 582 422 582 430 581 c 0
 499 571 557 545 610 500 c 0
 664 453 704 381 717 308 c 0
 721 286 721 276 721 250 c 0
 721 224 721 214 717 192 c 0
 706 129 675 67 630 20 c 0
 582 -30 515 -66 447 -78 c 0
 425 -82 415 -82 389 -82 c 0
 357 -82 336 -80 308 -73 c 0
 183 -42 84 63 61 192 c 0
 57 214 57 224 57 250 c 0
 57 276 57 286 61 308 c 0
 72 371 103 433 148 480 c 0
 184 518 232 548 282 565 c 0
389 -43 m 0
 550 -43 682 88 682 250 c 0
 682 317 659 381 617 434 c 0
 608 446 584 469 573 478 c 0
 522 519 463 543 390 543 c 0
 228 543 96 412 96 250 c 0
 96 183 119 119 161 66 c 0
 170 54 194 31 205 22 c 0
 249 -15 318 -43 389 -43 c 0
204 339 m 0
 204 360 219 375 238 375 c 0
 244 375 246 374 250 372 c 0
 252 371 279 351 311 328 c 2
 368 286 l 2
 370 286 355 434 355 437 c 0
 356 449 366 460 379 465 c 0
 382 465 386 466 391 466 c 0
 407 465 422 452 423 437 c 2
 423 437 409 286 410 286 c 2
 467 328 l 2
 499 351 526 371 529 372 c 0
 532 374 534 375 541 375 c 0
 559 375 575 358 575 339 c 0
 575 328 570 321 565 316 c 0
 563 314 537 301 496 281 c 2
 430 250 l 1
 496 219 l 2
 548 193 561 191 572 175 c 0
 574 170 575 168 575 161 c 0
 575 141 560 126 541 126 c 0
 534 126 532 126 529 128 c 0
 526 129 499 149 467 172 c 2
 410 214 l 2
 408 214 423 66 423 63 c 0
 422 49 408 36 389 36 c 0
 370 36 356 49 355 63 c 2
 355 63 369 214 368 214 c 2
 311 172 l 2
 279 149 252 129 250 128 c 0
 246 126 244 126 238 126 c 0
 218 126 204 140 204 161 c 0
 204 173 207 178 213 184 c 0
 215 186 241 199 282 219 c 2
 348 250 l 1
 282 281 l 2
 230 307 217 309 206 325 c 0
 204 330 204 332 204 339 c 0
EndSplineSet
Validated: 33
EndChar

StartChar: uni229D
Encoding: 8861 8861 143
Width: 778
GlyphClass: 2
Flags: MW
HStem: -82 39<373 402> 230 40<322.5 470.5> 543 39<361 390 361 426.5>
VStem: 57 39<237 263> 682 39<237 263 237 283.5>
CounterMasks: 1 e0
LayerCount: 2
Fore
SplineSet
282 565 m 0
 311 576 340 582 382 582 c 0
 398 582 422 582 430 581 c 0
 499 571 557 545 610 500 c 0
 664 453 704 381 717 308 c 0
 721 286 721 276 721 250 c 0
 721 224 721 214 717 192 c 0
 706 129 675 67 630 20 c 0
 582 -30 515 -66 447 -78 c 0
 425 -82 415 -82 389 -82 c 0
 357 -82 336 -80 308 -73 c 0
 183 -42 84 63 61 192 c 0
 57 214 57 224 57 250 c 0
 57 276 57 286 61 308 c 0
 72 371 103 433 148 480 c 0
 184 518 232 548 282 565 c 0
389 -43 m 0
 550 -43 682 88 682 250 c 0
 682 317 659 381 617 434 c 0
 608 446 584 469 573 478 c 0
 522 519 463 543 390 543 c 0
 228 543 96 412 96 250 c 0
 96 183 119 119 161 66 c 0
 170 54 194 31 205 22 c 0
 249 -15 318 -43 389 -43 c 0
235 268 m 0
 238 270 245 270 389 270 c 0
 552 270 543 270 549 265 c 0
 553 261 555 256 555 250 c 0
 555 244 553 239 549 235 c 0
 543 230 552 230 389 230 c 0
 256 230 239 230 235 232 c 0
 227 235 223 243 223 250 c 0
 223 257 227 264 235 268 c 0
EndSplineSet
Validated: 1
EndChar

StartChar: uni229E
Encoding: 8862 8862 144
Width: 778
GlyphClass: 2
Flags: MW
HStem: 0 40<95 369 95 390 71 369> 325 40<95 369 95 369 409 682> 649 40<95 369 95 95 409 409 409 682>
VStem: 55 40<40 325 40 346 40 346> 369 40<40 325 40 325 365 649> 682 40<40 325 325 325 365 649 649 649>
LayerCount: 2
Fore
SplineSet
56 676 m 2
 60 681 63 686 70 689 c 2
 709 689 l 1
 714 685 719 681 722 674 c 2
 722 15 l 2
 719 8 714 5 709 1 c 2
 390 0 l 1
 71 0 l 2
 65 3 61 4 58 11 c 2
 55 16 l 1
 55 346 l 1
 56 676 l 2
369 365 m 1
 369 649 l 1
 95 649 l 1
 95 365 l 1
 369 365 l 1
682 365 m 1
 682 649 l 1
 409 649 l 1
 409 365 l 1
 682 365 l 1
369 40 m 1
 369 325 l 1
 95 325 l 1
 95 40 l 1
 369 40 l 1
682 40 m 1
 682 325 l 1
 409 325 l 1
 409 40 l 1
 682 40 l 1
EndSplineSet
Validated: 1
EndChar

StartChar: uni229F
Encoding: 8863 8863 145
Width: 778
GlyphClass: 2
Flags: MW
HStem: 0 40<95 390 71 682> 325 40<95 682 95 682> 649 40<95 682 95 95>
VStem: 55 40<40 325 40 346 40 346> 682 40<40 325 325 325 365 649 649 649>
LayerCount: 2
Fore
SplineSet
56 676 m 2
 60 681 63 686 70 689 c 2
 709 689 l 1
 714 685 719 681 722 674 c 2
 722 15 l 2
 719 8 714 5 709 1 c 2
 390 0 l 1
 71 0 l 2
 65 3 61 4 58 11 c 2
 55 16 l 1
 55 346 l 1
 56 676 l 2
682 365 m 1
 682 649 l 1
 95 649 l 1
 95 365 l 1
 682 365 l 1
682 40 m 1
 682 325 l 1
 95 325 l 1
 95 40 l 1
 682 40 l 1
EndSplineSet
Validated: 1
EndChar

StartChar: uni22A0
Encoding: 8864 8864 146
Width: 778
GlyphClass: 2
Flags: MW
HStem: 0 40<256 522 256 707> 649 40<123 654 123 123>
VStem: 55 40<70 70 70 346 346 346> 682 40<70 619 619 619>
LayerCount: 2
Fore
SplineSet
56 676 m 2
 60 681 63 686 70 689 c 2
 707 689 l 2
 714 686 718 681 722 676 c 1
 722 13 l 1
 718 8 714 3 707 0 c 2
 71 0 l 2
 65 3 61 4 58 11 c 2
 55 16 l 1
 55 346 l 1
 56 676 l 2
389 374 m 2
 654 649 l 1
 123 649 l 1
 128 644 l 2
 241 527 388 374 389 374 c 2
95 70 m 1
 96 71 360 344 360 345 c 2
 95 619 l 1
 95 70 l 1
682 70 m 1
 682 619 l 1
 418 346 l 2
 417 344 429 331 549 207 c 2
 682 70 l 1
654 41 m 1
 400 304 l 1
 388 315 l 1
 123 41 l 1
 256 40 l 1
 522 40 l 1
 654 41 l 1
EndSplineSet
Validated: 33
EndChar

StartChar: uni22A1
Encoding: 8865 8865 147
Width: 778
GlyphClass: 2
Flags: MW
HStem: 0 40<95 390 71 682> 285 120<372.5 406.5> 649 40<95 682 95 95>
VStem: 55 40<40 346 346 346> 330 118<327.5 362 327.5 362.5> 682 40<40 649 649 649>
LayerCount: 2
Fore
SplineSet
56 676 m 2
 60 681 63 686 70 689 c 2
 709 689 l 1
 714 685 719 681 722 674 c 2
 722 15 l 2
 719 8 714 5 709 1 c 2
 390 0 l 1
 71 0 l 2
 65 3 61 4 58 11 c 2
 55 16 l 1
 55 346 l 1
 56 676 l 2
682 40 m 1
 682 649 l 1
 95 649 l 1
 95 40 l 1
 682 40 l 1
389 285 m 0
 354 285 330 310 330 345 c 0
 330 380 355 405 390 405 c 0
 424 405 448 379 448 345 c 0
 448 310 424 285 389 285 c 0
EndSplineSet
Validated: 1
EndChar

StartChar: uni22A8
Encoding: 8872 8872 148
Width: 611
GlyphClass: 2
Flags: MW
HStem: 0 21G<70.5 77> 230 40<95 539 95 540 95 539> 424 40<95 539 95 540> 674 20G<70.5 77>
VStem: 55 40<16 230 270 424 464 678 678 678>
LayerCount: 2
Fore
SplineSet
95 15 m 1
 91 7 85 1 77 0 c 0
 64 0 60 8 55 16 c 1
 55 678 l 1
 60 686 64 694 77 694 c 0
 85 693 91 687 95 679 c 1
 95 464 l 1
 540 464 l 1
 548 460 554 454 555 446 c 0
 555 433 547 429 539 424 c 1
 95 424 l 1
 95 270 l 1
 539 270 l 1
 547 265 555 261 555 248 c 0
 554 240 548 234 540 230 c 1
 95 230 l 1
 95 15 l 1
EndSplineSet
Validated: 1
EndChar

StartChar: uni22A9
Encoding: 8873 8873 149
Width: 722
GlyphClass: 2
Flags: MW
HStem: 0 21G<70.5 77 264.5 271> 327 40<289 651 289 651> 674 20G<70.5 77 264.5 271>
VStem: 55 40<16 678 678 678> 249 40<16 327 367 678 678 678>
LayerCount: 2
Fore
SplineSet
95 15 m 1
 91 7 85 1 77 0 c 0
 64 0 60 8 55 16 c 1
 55 678 l 1
 60 686 64 694 77 694 c 0
 85 693 91 687 95 679 c 1
 95 15 l 1
289 15 m 1
 285 7 279 1 271 0 c 0
 258 0 254 8 249 16 c 1
 249 678 l 1
 254 686 258 694 271 694 c 0
 279 693 285 687 289 679 c 1
 289 367 l 1
 651 367 l 1
 659 363 666 358 666 347 c 0
 666 336 659 331 651 327 c 1
 289 327 l 1
 289 15 l 1
EndSplineSet
Validated: 1
EndChar

StartChar: uni22AA
Encoding: 8874 8874 150
Width: 889
GlyphClass: 2
Flags: MW
HStem: 0 21G<70.5 77 252.5 259 434.5 441> 327 40<459 818 459 818> 674 20G<70.5 77 252.5 259 434.5 441>
VStem: 55 40<16 678 678 678> 237 40<16 678 678 678> 419 40<16 327 367 678 678 678>
CounterMasks: 1 1c
LayerCount: 2
Fore
SplineSet
95 15 m 1
 91 7 85 1 77 0 c 0
 64 0 60 8 55 16 c 1
 55 678 l 1
 60 686 64 694 77 694 c 0
 85 693 91 687 95 679 c 1
 95 15 l 1
277 15 m 1
 273 7 267 1 259 0 c 0
 246 0 242 8 237 16 c 1
 237 678 l 1
 242 686 246 694 259 694 c 0
 267 693 273 687 277 679 c 1
 277 15 l 1
459 15 m 1
 455 7 449 1 441 0 c 0
 428 0 424 8 419 16 c 1
 419 678 l 1
 424 686 428 694 441 694 c 0
 449 693 455 687 459 679 c 1
 459 367 l 1
 818 367 l 1
 826 363 833 358 833 347 c 0
 833 336 826 331 818 327 c 1
 459 327 l 1
 459 15 l 1
EndSplineSet
Validated: 1
EndChar

StartChar: uni22AC
Encoding: 8876 8876 151
Width: 611
GlyphClass: 2
Flags: MW
HStem: -1 21G<-38.5 -31.5 71 79> 328 40<96 152 96 243 296 416 416 479.5 96 261> 675 20G<72.5 80>
VStem: 56 40<50 92 92 92 238.5 263 263 328 368 681>
LayerCount: 2
Fore
SplineSet
56 681 m 1
 61 686 69 695 76 695 c 0
 84 695 91 686 96 681 c 1
 96 368 l 1
 243 368 l 1
 381 530 l 2
 458 619 523 692 525 692 c 0
 532 697 541 695 547 688 c 0
 552 684 554 679 554 674 c 0
 554 670 552 665 549 661 c 0
 547 659 487 592 421 512 c 1
 352 435 296 370 296 368 c 1
 416 368 l 2
 543 368 545 368 552 357 c 0
 553 354 554 351 554 348 c 0
 554 342 552 336 549 332 c 2
 543 328 l 1
 261 328 l 1
 96 141 l 1
 96 12 l 1
 90 7 83 -1 75 -1 c 0
 67 -1 62 4 58 10 c 2
 56 50 l 1
 56 92 l 1
 18 48 l 2
 -4 26 -22 3 -24 1 c 0
 -27 0 -30 -1 -33 -1 c 0
 -44 -1 -55 7 -55 19 c 0
 -55 26 -55 26 12 103 c 2
 56 155 l 1
 56 681 l 1
205 326 m 0
 205 328 181 328 152 328 c 2
 96 328 l 1
 96 263 l 2
 96 214 96 203 98 203 c 0
 100 203 194 315 205 326 c 0
EndSplineSet
Validated: 1
EndChar

StartChar: uni22AD
Encoding: 8877 8877 152
Width: 611
GlyphClass: 2
Flags: MW
HStem: -1 21G<-38.5 -31.5 71 79> 230 40<96 109 96 158 376 541 96 174> 426 40<96 292 96 327 461 541 96 345> 675 20G<72.5 80>
VStem: 56 40<50 92 92 92 201 230 270 426 466 681>
LayerCount: 2
Fore
SplineSet
56 681 m 1
 61 686 69 695 76 695 c 0
 84 695 91 686 96 681 c 1
 96 466 l 1
 327 466 l 1
 425 579 l 2
 478 641 525 692 527 692 c 0
 529 693 532 693 534 693 c 0
 544 693 553 684 553 674 c 0
 553 670 552 667 549 663 c 0
 549 661 509 617 463 563 c 2
 381 468 l 1
 461 466 l 1
 543 466 l 1
 547 461 554 454 554 446 c 0
 554 438 546 431 541 426 c 1
 345 426 l 1
 209 272 l 1
 376 270 l 1
 543 270 l 1
 547 265 554 258 554 251 c 0
 554 243 546 236 541 230 c 1
 174 230 l 1
 96 141 l 1
 96 12 l 1
 90 7 83 -1 75 -1 c 0
 67 -1 62 4 58 10 c 2
 56 50 l 1
 56 92 l 1
 18 48 l 2
 -4 26 -22 3 -24 1 c 0
 -27 0 -30 -1 -33 -1 c 0
 -44 -1 -55 7 -55 19 c 0
 -55 26 -55 26 12 103 c 2
 56 155 l 1
 56 681 l 1
267 399 m 2
 292 426 l 1
 96 426 l 1
 96 270 l 1
 158 270 l 1
 201 321 l 2
 225 348 256 383 267 399 c 2
118 228 m 1
 119 228 119 229 119 229 c 2
 119 230 116 230 109 230 c 2
 96 230 l 1
 96 201 l 1
 107 212 l 2
 112 219 118 226 118 228 c 1
EndSplineSet
Validated: 1
EndChar

StartChar: uni22AE
Encoding: 8878 8878 153
Width: 722
GlyphClass: 2
Flags: MW
HStem: -1 21G<-39.5 -31.5 72.5 80 268 275.5> 328 40<505 652 294 314> 675 20G<73 81 268 275.5 642 645 645 649.5>
VStem: 56 40<12 79 79 79 428 681 681 681> 252 40<12 139 139 173.5 449 526 526 681>
LayerCount: 2
Fore
SplineSet
56 681 m 1
 61 686 69 695 77 695 c 0
 85 695 91 688 96 683 c 1
 96 428 l 1
 98 175 l 1
 252 323 l 1
 252 681 l 1
 257 687 264 695 272 695 c 0
 279 695 287 686 292 681 c 1
 292 526 l 2
 292 372 292 368 296 368 c 0
 298 368 365 432 447 510 c 0
 627 684 637 695 642 695 c 2
 645 695 l 2
 654 695 665 682 665 673 c 0
 665 669 664 665 661 661 c 0
 656 659 587 590 505 512 c 2
 356 370 l 1
 505 368 l 1
 654 368 l 1
 659 363 665 357 665 349 c 0
 665 341 657 334 652 328 c 1
 314 328 l 1
 303 317 l 1
 292 308 l 1
 292 12 l 1
 287 7 279 -1 272 -1 c 0
 264 -1 257 7 252 12 c 1
 252 139 l 2
 252 208 252 266 249 266 c 2
 96 119 l 1
 96 12 l 1
 91 7 84 -1 76 -1 c 0
 69 -1 61 7 56 12 c 1
 56 79 l 1
 29 55 l 1
 -22 3 -28 -1 -35 -1 c 0
 -44 -1 -55 10 -55 19 c 0
 -55 28 -55 26 18 99 c 2
 56 135 l 1
 56 681 l 1
EndSplineSet
Validated: 1
EndChar

StartChar: uni22AF
Encoding: 8879 8879 154
Width: 722
GlyphClass: 2
Flags: MW
HStem: -1 21G<-39.5 -31.5 72.5 80 268 275.5> 230 40<292 652 292 652> 426 40<292 358 292 401 556 652 292 416> 675 20G<73 81 268 275.5 641.5 650>
VStem: 56 40<12 79 79 79 428 681 681 681> 252 40<12 139 139 173.5 361 426 466 681>
LayerCount: 2
Fore
SplineSet
56 681 m 1
 61 686 69 695 77 695 c 0
 85 695 91 688 96 683 c 1
 96 428 l 1
 98 175 l 1
 252 323 l 1
 252 681 l 1
 257 687 264 695 272 695 c 0
 279 695 287 686 292 681 c 1
 292 466 l 1
 401 466 l 1
 503 563 l 1
 621 679 l 2
 634 692 638 695 645 695 c 0
 655 695 665 683 665 673 c 0
 665 671 664 668 663 666 c 0
 663 663 616 619 561 563 c 2
 458 468 l 1
 556 466 l 1
 654 466 l 1
 659 461 665 455 665 447 c 0
 665 439 657 431 652 426 c 1
 416 426 l 1
 294 308 l 1
 292 288 l 1
 292 270 l 1
 652 270 l 1
 656 265 665 257 665 250 c 0
 665 243 657 235 652 230 c 1
 292 230 l 1
 292 12 l 1
 287 7 279 -1 272 -1 c 0
 264 -1 257 7 252 12 c 1
 252 139 l 2
 252 208 252 266 249 266 c 2
 96 119 l 1
 96 12 l 1
 91 7 84 -1 76 -1 c 0
 69 -1 61 7 56 12 c 1
 56 79 l 1
 29 55 l 1
 -22 3 -28 -1 -35 -1 c 0
 -44 -1 -55 10 -55 19 c 0
 -55 28 -55 26 18 99 c 2
 56 135 l 1
 56 681 l 1
358 426 m 1
 292 426 l 1
 292 361 l 1
 325 392 l 1
 358 426 l 1
EndSplineSet
Validated: 1
EndChar

StartChar: uni22B2
Encoding: 8882 8882 155
Width: 778
GlyphClass: 2
Flags: MW
HStem: 487 52<652.5 679>
VStem: 83 68<248.5 249.5 248.5 253> 654 40<141 314.5>
LayerCount: 2
Fore
SplineSet
694 -26 m 1
 690 -34 684 -40 676 -41 c 2
 670 -41 l 1
 382 95 l 2
 223 170 92 232 90 234 c 0
 86 237 83 243 83 249 c 0
 83 257 88 264 96 267 c 0
 103 271 656 533 665 537 c 0
 668 538 671 539 674 539 c 0
 684 539 690 533 694 524 c 1
 694 -26 l 1
654 249 m 0
 654 380 654 487 653 487 c 0
 652 487 151 250 151 249 c 0
 151 248 647 14 652 11 c 0
 654 11 654 33 654 249 c 0
EndSplineSet
Validated: 1
EndChar

StartChar: uni22B3
Encoding: 8883 8883 156
Width: 778
GlyphClass: 2
Flags: MW
VStem: 83 40<141 357 141 523>
LayerCount: 2
Fore
SplineSet
101 -41 m 2
 93 -40 87 -34 83 -26 c 1
 83 523 l 1
 87 530 92 539 103 539 c 0
 108 539 669 275 680 268 c 0
 689 264 694 258 694 249 c 0
 694 243 691 237 687 234 c 0
 685 232 554 170 395 95 c 2
 107 -41 l 1
 101 -41 l 2
376 368 m 2
 239 433 125 486 125 487 c 1
 123 487 123 465 123 249 c 0
 123 33 123 11 125 11 c 0
 130 14 626 248 626 249 c 2
 376 368 l 2
EndSplineSet
Validated: 1
EndChar

StartChar: uni22B4
Encoding: 8884 8884 157
Width: 778
GlyphClass: 2
Flags: MW
HStem: -138 40<98 678 99 678 99 679> 584 52<652.5 679>
VStem: 83 68<345.5 346.5 345.5 350> 654 40<238 411.5>
LayerCount: 2
Fore
SplineSet
694 71 m 1
 690 63 684 57 676 56 c 2
 670 56 l 1
 382 192 l 2
 223 267 92 329 90 331 c 0
 86 334 83 340 83 346 c 0
 83 354 88 361 96 364 c 0
 103 368 656 630 665 634 c 0
 668 635 671 636 674 636 c 0
 684 636 690 630 694 621 c 1
 694 71 l 1
654 346 m 0
 654 477 654 584 653 584 c 0
 652 584 151 347 151 346 c 0
 151 345 647 111 652 108 c 0
 654 108 654 130 654 346 c 0
98 -138 m 1
 90 -134 84 -128 83 -120 c 0
 83 -107 91 -103 99 -98 c 1
 678 -98 l 1
 686 -103 694 -107 694 -120 c 0
 693 -128 687 -134 679 -138 c 1
 98 -138 l 1
EndSplineSet
Validated: 1
EndChar

StartChar: uni22B5
Encoding: 8885 8885 158
Width: 778
GlyphClass: 2
Flags: MW
HStem: -138 40<98 678 99 678 99 679>
VStem: 83 40<238 454 238 620>
LayerCount: 2
Fore
SplineSet
101 56 m 2
 93 57 87 63 83 71 c 1
 83 620 l 1
 87 627 92 636 103 636 c 0
 108 636 669 372 680 365 c 0
 689 361 694 355 694 346 c 0
 694 340 691 334 687 331 c 0
 685 329 554 267 395 192 c 2
 107 56 l 1
 101 56 l 2
376 465 m 2
 239 530 125 583 125 584 c 1
 123 584 123 562 123 346 c 0
 123 130 123 108 125 108 c 0
 130 111 626 345 626 346 c 2
 376 465 l 2
98 -138 m 1
 90 -134 84 -128 83 -120 c 0
 83 -107 91 -103 99 -98 c 1
 678 -98 l 1
 686 -103 694 -107 694 -120 c 0
 693 -128 687 -134 679 -138 c 1
 98 -138 l 1
EndSplineSet
Validated: 1
EndChar

StartChar: uni22B8
Encoding: 8888 8888 159
Width: 1111
GlyphClass: 2
Flags: MW
HStem: 92 40<887 901> 230 40<244.5 738 405 738> 368 40<859 896>
VStem: 738 40<228 230 230 230 270 272 272 272> 1014 41<241 282>
CounterMasks: 1 e0
LayerCount: 2
Fore
SplineSet
741 283 m 0
 753 348 811 408 891 408 c 0
 903 408 919 407 926 406 c 0
 996 391 1055 335 1055 250 c 0
 1055 230 1053 219 1047 202 c 0
 1029 145 983 104 924 93 c 0
 917 92 906 92 896 92 c 0
 812 92 754 150 741 217 c 0
 740 222 739 227 738 228 c 2
 738 230 l 1
 405 230 l 2
 84 230 71 230 68 232 c 0
 61 235 55 241 55 250 c 0
 55 259 61 265 68 268 c 0
 71 270 84 270 405 270 c 2
 738 270 l 1
 738 272 l 2
 739 273 740 278 741 283 c 0
891 368 m 0
 827 368 778 318 778 250 c 0
 778 192 813 152 857 138 c 0
 872 133 878 132 896 132 c 0
 954 132 994 167 1008 211 c 0
 1013 226 1014 232 1014 250 c 0
 1014 314 972 355 920 367 c 0
 914 368 901 368 891 368 c 0
EndSplineSet
Validated: 1
EndChar

StartChar: uni22BA
Encoding: 8890 8890 160
Width: 556
GlyphClass: 2
Flags: MW
HStem: 351 80<162 470 318 318 318 394>
VStem: 238 80<84 351>
LayerCount: 2
Fore
SplineSet
318 -182 m 1
 310 -197 303 -212 278 -212 c 0
 254 -212 245 -199 239 -182 c 1
 238 84 l 1
 238 351 l 1
 162 351 l 1
 87 352 l 1
 71 357 57 368 57 391 c 0
 57 413 68 424 84 429 c 0
 89 431 98 431 280 431 c 2
 470 431 l 1
 484 423 500 415 500 391 c 0
 500 369 485 358 470 352 c 1
 394 351 l 1
 318 351 l 1
 318 -182 l 1
EndSplineSet
Validated: 1
EndChar

StartChar: uni22BB
Encoding: 8891 8891 161
Width: 611
GlyphClass: 2
Flags: MW
HStem: 0 40<71 540 71 540>
VStem: 56 34 520 35
LayerCount: 2
Fore
SplineSet
56 697 m 0
 56 707 64 716 75 716 c 0
 81 716 87 714 90 709 c 0
 92 707 140 605 199 483 c 2
 305 261 l 1
 411 483 l 2
 470 605 518 707 520 709 c 0
 523 712 529 716 535 716 c 0
 542 716 555 709 555 700 c 0
 555 683 336 237 325 210 c 0
 321 201 314 194 306 194 c 0
 303 194 300 195 296 197 c 0
 291 199 290 200 285 210 c 0
 275 235 56 681 56 697 c 0
555 20 m 0
 555 9 548 4 540 0 c 1
 71 0 l 1
 64 4 55 9 55 20 c 0
 55 31 64 36 71 40 c 1
 540 40 l 1
 548 36 555 31 555 20 c 0
EndSplineSet
Validated: 1
EndChar

StartChar: uni22BC
Encoding: 8892 8892 162
Width: 611
GlyphClass: 2
Flags: MW
HStem: 0 21G<71.5 78 532.5 541.5> 676 40<71 539 71 71>
VStem: 518 37
LayerCount: 2
Fore
SplineSet
55 698 m 0
 56 706 62 712 70 716 c 1
 540 716 l 1
 548 712 554 706 555 698 c 0
 555 685 547 681 539 676 c 1
 71 676 l 1
 63 681 55 685 55 698 c 0
555 18 m 2
 554 11 547 0 536 0 c 0
 529 0 521 5 518 11 c 0
 516 13 468 114 410 235 c 2
 305 455 l 1
 199 233 l 2
 140 111 92 9 90 7 c 0
 87 3 81 0 75 0 c 0
 68 0 60 5 58 11 c 0
 55 15 55 17 55 21 c 0
 60 39 280 492 285 507 c 0
 290 516 291 517 296 519 c 0
 299 521 303 522 305 522 c 0
 311 522 317 519 320 515 c 0
 322 513 375 402 439 268 c 2
 555 24 l 1
 555 18 l 2
EndSplineSet
Validated: 1
EndChar

StartChar: dotmath
Encoding: 8901 8901 163
Width: 278
GlyphClass: 2
Flags: MW
HStem: 0 189<71 140 71 71>
VStem: 55 167<16 96 96 96>
LayerCount: 2
Fore
SplineSet
66 187 m 2
 70 189 l 1
 209 189 l 1
 214 185 219 181 222 174 c 2
 222 15 l 2
 219 8 214 5 209 1 c 2
 140 0 l 1
 71 0 l 2
 65 3 61 4 58 11 c 2
 55 16 l 1
 55 96 l 1
 56 176 l 2
 59 180 62 183 66 187 c 2
EndSplineSet
Validated: 1
EndChar

StartChar: uni22C7
Encoding: 8903 8903 164
Width: 778
GlyphClass: 2
Flags: MW
HStem: -44 154 230 40<68 339 68 339 435 706> 390 153
VStem: 311 155<22 39.5 22 45 455 472.5>
LayerCount: 2
Fore
SplineSet
366 543 m 0
 370 544 376 545 382 545 c 0
 394 545 409 543 419 538 c 0
 433 532 455 510 462 496 c 0
 464 487 466 478 466 467 c 0
 466 443 459 430 444 412 c 0
 426 394 413 390 388 390 c 0
 362 390 348 394 331 412 c 0
 315 430 311 443 311 467 c 0
 311 490 315 503 331 518 c 0
 344 532 351 536 366 543 c 0
146 472 m 0
 146 480 158 492 166 492 c 0
 173 492 182 483 279 385 c 2
 386 278 l 1
 495 385 l 2
 591 483 602 492 608 492 c 0
 617 492 628 481 628 472 c 0
 628 465 619 456 531 367 c 2
 435 270 l 1
 706 270 l 1
 711 265 720 258 720 250 c 0
 720 242 712 235 706 230 c 1
 435 230 l 1
 531 132 l 2
 619 43 628 34 628 27 c 0
 628 18 617 7 608 7 c 0
 602 7 591 16 495 114 c 2
 386 221 l 1
 279 114 l 2
 182 16 173 7 166 7 c 0
 157 7 146 18 146 27 c 0
 146 34 155 43 244 132 c 2
 339 230 l 1
 68 230 l 1
 63 235 55 243 55 250 c 0
 55 257 63 265 68 270 c 1
 339 270 l 1
 244 367 l 2
 155 456 146 465 146 472 c 0
366 110 m 0
 370 111 376 112 382 112 c 0
 394 112 409 110 419 105 c 0
 433 98 455 76 462 63 c 0
 464 54 466 45 466 34 c 0
 466 10 459 -4 444 -22 c 0
 426 -39 413 -44 388 -44 c 0
 362 -44 348 -39 331 -22 c 0
 315 -4 311 10 311 34 c 0
 311 56 315 70 331 85 c 0
 344 98 351 103 366 110 c 0
EndSplineSet
Validated: 1
EndChar

StartChar: uni22C9
Encoding: 8905 8905 165
Width: 778
GlyphClass: 2
Flags: MW
VStem: 146 40<77 77 77 424>
LayerCount: 2
Fore
SplineSet
146 479 m 1
 151 484 158 492 166 492 c 0
 173 492 182 484 279 386 c 2
 386 279 l 1
 495 386 l 2
 590 484 602 492 608 492 c 0
 617 492 628 481 628 472 c 0
 628 466 619 455 522 357 c 2
 415 250 l 1
 522 144 l 2
 619 46 628 35 628 28 c 0
 628 19 617 8 608 8 c 0
 602 8 590 17 495 115 c 1
 386 221 l 1
 279 115 l 2
 182 17 173 8 166 8 c 0
 159 8 151 16 146 21 c 1
 146 479 l 1
186 77 m 1
 359 250 l 1
 186 424 l 1
 186 77 l 1
EndSplineSet
Validated: 1
EndChar

StartChar: uni22CA
Encoding: 8906 8906 166
Width: 778
GlyphClass: 2
Flags: MW
VStem: 588 40<77 424 424 424>
LayerCount: 2
Fore
SplineSet
146 472 m 0
 146 481 157 492 166 492 c 0
 173 492 182 484 279 386 c 2
 386 279 l 1
 495 386 l 2
 590 484 602 492 608 492 c 0
 617 492 623 485 628 479 c 1
 628 21 l 1
 623 16 616 8 608 8 c 0
 602 8 590 17 495 115 c 1
 386 221 l 1
 279 115 l 2
 182 17 173 8 166 8 c 0
 157 8 146 19 146 28 c 0
 146 35 155 46 253 144 c 2
 359 250 l 1
 253 357 l 2
 155 455 146 466 146 472 c 0
588 77 m 1
 588 424 l 1
 499 337 l 1
 415 250 l 1
 588 77 l 1
EndSplineSet
Validated: 1
EndChar

StartChar: uni22CB
Encoding: 8907 8907 167
Width: 778
GlyphClass: 2
Flags: MW
HStem: 674 20G<70.5 79>
LayerCount: 2
Fore
SplineSet
55 674 m 0
 55 685 65 694 76 694 c 0
 82 694 87 691 95 683 c 0
 99 679 241 525 410 342 c 0
 705 24 719 9 721 3 c 0
 721 1 722 0 722 -2 c 0
 722 -15 710 -22 701 -22 c 0
 696 -22 692 -21 688 -17 c 0
 687 -14 398 295 394 301 c 2
 388 306 l 1
 240 146 l 2
 159 58 91 -15 89 -16 c 0
 85 -20 80 -22 75 -22 c 0
 66 -22 55 -14 55 -2 c 0
 55 0 56 1 56 3 c 0
 58 9 65 17 209 172 c 2
 361 336 l 1
 209 500 l 2
 65 655 58 663 56 669 c 0
 56 671 55 672 55 674 c 0
EndSplineSet
Validated: 1
EndChar

StartChar: uni22CC
Encoding: 8908 8908 168
Width: 778
GlyphClass: 2
Flags: MW
HStem: 674 20G<697.5 706.5>
LayerCount: 2
Fore
SplineSet
76 -22 m 0
 67 -22 55 -15 55 -2 c 0
 55 0 56 1 56 3 c 0
 58 9 72 24 367 342 c 0
 536 525 678 679 682 683 c 0
 688 689 693 694 702 694 c 0
 711 694 722 686 722 674 c 0
 722 672 721 671 721 669 c 0
 719 663 712 655 568 500 c 2
 416 336 l 1
 568 172 l 2
 712 17 719 9 721 3 c 0
 721 1 722 0 722 -2 c 0
 722 -14 711 -22 702 -22 c 0
 697 -22 692 -20 688 -16 c 0
 686 -15 618 58 537 146 c 2
 389 306 l 1
 380 298 89 -17 89 -17 c 2
 85 -21 81 -22 76 -22 c 0
EndSplineSet
Validated: 1
EndChar

StartChar: uni22CD
Encoding: 8909 8909 169
Width: 778
GlyphClass: 2
Flags: MW
HStem: 36 40<73 706 73 707 71 706> 251 56<216.5 227 199 240.5> 407 56<551 561.5 538 579>
VStem: 694 28
LayerCount: 2
Fore
SplineSet
722 283 m 0
 722 268 719 250 707 250 c 0
 698 250 695 269 694 281 c 0
 693 301 689 313 682 330 c 0
 674 344 667 354 655 367 c 0
 628 393 602 407 556 407 c 0
 546 407 535 407 527 405 c 0
 492 398 459 380 411 343 c 0
 349 296 332 284 306 271 c 0
 277 257 259 251 222 251 c 0
 211 251 200 251 192 253 c 0
 115 270 56 338 56 433 c 0
 56 448 60 464 71 464 c 0
 96 464 62 413 123 347 c 0
 150 321 176 307 222 307 c 0
 232 307 243 307 251 309 c 0
 286 316 319 334 368 371 c 0
 429 418 446 430 473 443 c 0
 501 457 520 463 556 463 c 0
 567 463 578 463 586 461 c 0
 662 445 722 377 722 283 c 0
57 56 m 0
 57 68 63 73 73 76 c 2
 706 76 l 1
 715 72 722 67 722 56 c 0
 722 45 715 40 707 36 c 1
 71 36 l 1
 63 40 57 45 57 56 c 0
EndSplineSet
Validated: 1
EndChar

StartChar: uni22CE
Encoding: 8910 8910 170
Width: 760
GlyphClass: 2
Flags: MW
HStem: 537 41
VStem: 360 40<11.5 22.5>
LayerCount: 2
Fore
SplineSet
83 558 m 0
 83 568 92 578 104 578 c 0
 107 578 111 577 117 576 c 0
 257 555 329 447 366 311 c 0
 368 303 379 251 380 251 c 0
 381 251 381 252 381 253 c 0
 381 256 390 294 395 312 c 0
 432 450 498 533 596 565 c 0
 610 570 626 574 642 576 c 0
 648 577 652 578 655 578 c 0
 667 578 676 568 676 558 c 0
 676 543 667 539 648 537 c 0
 559 524 501 463 465 391 c 0
 424 304 403 187 400 29 c 0
 400 -6 400 -8 398 -11 c 0
 394 -17 389 -21 380 -21 c 0
 371 -21 366 -17 362 -11 c 0
 360 -7 360 -6 360 12 c 0
 360 33 359 76 357 101 c 0
 347 264 313 381 256 453 c 0
 217 501 171 528 111 537 c 0
 92 539 83 543 83 558 c 0
EndSplineSet
Validated: 1
EndChar

StartChar: uni22CF
Encoding: 8911 8911 171
Width: 760
GlyphClass: 2
Flags: MW
HStem: -22 41
VStem: 357 43
LayerCount: 2
Fore
SplineSet
104 -22 m 0
 92 -22 83 -12 83 -2 c 0
 83 13 92 17 111 19 c 0
 171 28 217 55 256 103 c 0
 313 175 347 291 357 454 c 0
 358 471 360 524 360 549 c 0
 360 571 362 567 371 576 c 0
 374 577 377 578 380 578 c 0
 387 578 394 574 398 567 c 0
 400 564 400 562 400 527 c 0
 403 369 424 252 465 166 c 0
 501 92 558 32 648 19 c 0
 667 17 676 13 676 -2 c 0
 676 -12 667 -22 655 -22 c 0
 652 -22 648 -21 642 -20 c 0
 626 -18 610 -14 596 -9 c 0
 498 23 432 106 395 244 c 0
 390 262 381 300 381 303 c 0
 381 304 381 305 380 305 c 0
 372 305 354 15 117 -20 c 0
 111 -21 107 -22 104 -22 c 0
EndSplineSet
Validated: 1
EndChar

StartChar: uni22D0
Encoding: 8912 8912 172
Width: 778
GlyphClass: 2
Flags: MW
HStem: -40 40<522 526 526 679> 114 40<519 679 519 679> 346 40<440.5 679 520 679 520 679> 500 40<522 679>
VStem: 84 40<243.5 256.5 243.5 332.5> 238 40<224.5 254 224.5 276.5>
LayerCount: 2
Fore
SplineSet
84 250 m 0
 84 415 213 524 360 539 c 0
 365 539 439 540 524 540 c 2
 679 540 l 1
 688 536 694 530 694 520 c 0
 694 511 688 506 681 501 c 1
 522 500 l 2
 348 499 357 500 329 494 c 0
 223 468 143 394 125 285 c 0
 124 277 124 263 124 250 c 0
 124 237 124 224 125 216 c 0
 139 130 195 64 266 28 c 0
 288 18 304 12 328 7 c 0
 356 0 347 1 522 0 c 2
 681 0 l 1
 688 -5 694 -11 694 -20 c 0
 694 -30 688 -36 679 -40 c 1
 526 -40 l 2
 428 -40 369 -40 362 -39 c 0
 228 -26 115 67 89 192 c 0
 84 215 84 224 84 250 c 0
694 134 m 0
 694 123 687 118 679 114 c 1
 425 114 l 2
 343 114 347 115 331 120 c 0
 281 138 238 185 238 251 c 0
 238 302 263 340 295 361 c 0
 311 373 334 383 353 385 c 0
 360 386 394 386 520 386 c 2
 679 386 l 1
 687 382 694 377 694 366 c 0
 694 355 686 350 679 346 c 1
 519 346 l 2
 362 346 358 346 351 344 c 0
 315 335 289 307 279 271 c 0
 278 267 278 258 278 250 c 0
 278 199 310 166 351 156 c 0
 358 154 362 154 519 154 c 2
 679 154 l 1
 686 150 694 145 694 134 c 0
EndSplineSet
Validated: 1
EndChar

StartChar: uni22D1
Encoding: 8913 8913 173
Width: 778
GlyphClass: 2
Flags: MW
HStem: -40 40<98 251 98 98> 114 40<99 258 258 336.5 99 99> 346 40<98 244 244 258 98 98> 501 39<96 251>
VStem: 500 40<246 275 217 275.5> 654 39<243.5 256.5>
LayerCount: 2
Fore
SplineSet
83 520 m 0
 83 530 89 536 98 540 c 1
 251 540 l 2
 349 540 408 540 415 539 c 0
 549 526 662 433 688 309 c 0
 693 285 693 276 693 250 c 0
 693 224 693 215 688 192 c 0
 663 68 548 -28 415 -39 c 0
 407 -40 352 -40 251 -40 c 2
 98 -40 l 1
 89 -36 83 -30 83 -20 c 0
 83 -11 89 -5 96 0 c 1
 255 0 l 2
 429 1 420 0 448 6 c 0
 472 12 489 18 512 28 c 0
 582 64 638 130 652 216 c 0
 653 224 654 237 654 250 c 0
 654 263 653 277 652 285 c 0
 638 370 582 436 512 472 c 0
 489 482 473 488 449 493 c 0
 421 500 430 499 255 500 c 2
 96 501 l 1
 89 506 83 511 83 520 c 0
83 366 m 0
 83 375 89 381 96 386 c 1
 244 386 l 2
 325 386 396 387 402 387 c 0
 429 387 459 378 482 361 c 0
 514 340 540 300 540 250 c 0
 540 184 495 136 446 120 c 0
 430 115 434 114 353 114 c 2
 99 114 l 1
 90 118 84 122 84 134 c 0
 84 145 90 150 98 154 c 1
 258 154 l 2
 415 154 419 154 426 156 c 0
 462 165 488 193 498 229 c 0
 499 233 500 242 500 250 c 0
 500 301 467 334 426 344 c 0
 419 346 415 346 258 346 c 2
 98 346 l 1
 89 350 83 356 83 366 c 0
EndSplineSet
Validated: 1
EndChar

StartChar: uni22D2
Encoding: 8914 8914 174
Width: 667
GlyphClass: 2
Flags: MW
HStem: 403 41<313.5 352.5> 558 40<292 372.5>
VStem: 55 40<-7 193 -7 200 -7 200> 209 40<-7 164 -7 166 -7 259.5> 417 40<-7 164 164 166 -7 258.5> 572 39<-9 194>
LayerCount: 2
Fore
SplineSet
75 -21 m 0
 64 -21 59 -15 55 -7 c 1
 55 200 l 2
 56 425 55 409 61 431 c 0
 67 456 83 485 101 506 c 0
 150 561 234 598 332 598 c 0
 443 598 535 554 579 487 c 0
 596 461 607 434 610 405 c 0
 611 399 611 326 611 194 c 2
 611 -7 l 1
 607 -16 601 -22 591 -22 c 0
 582 -22 577 -16 572 -9 c 1
 570 405 l 1
 563 439 553 460 529 485 c 0
 487 530 411 558 334 558 c 0
 250 558 179 529 136 484 c 0
 113 459 100 432 96 401 c 0
 95 396 95 323 95 193 c 2
 95 -7 l 1
 91 -15 86 -21 75 -21 c 0
229 -21 m 0
 218 -21 213 -15 209 -7 c 1
 209 166 l 2
 209 353 209 346 215 363 c 0
 229 408 274 444 333 444 c 0
 399 444 447 399 455 347 c 0
 457 339 457 315 457 166 c 2
 457 -7 l 1
 453 -15 448 -21 437 -21 c 0
 426 -21 421 -15 417 -7 c 1
 417 164 l 2
 417 353 417 343 411 358 c 0
 397 384 372 403 333 403 c 0
 294 403 269 384 255 358 c 0
 249 343 249 353 249 164 c 2
 249 -7 l 1
 245 -15 240 -21 229 -21 c 0
EndSplineSet
Validated: 1
EndChar

